<?xml version="1.0" encoding="utf-8"?>
<!-- Generator: Adobe Illustrator 23.0.3, SVG Export Plug-In . SVG Version: 6.00 Build 0)  -->
<svg version="1.1" id="Warstwa_1" xmlns="http://www.w3.org/2000/svg" xmlns:xlink="http://www.w3.org/1999/xlink" x="0px" y="0px"
	 viewBox="0 0 150.5 50.8" style="enable-background:new 0 0 150.5 50.8;" xml:space="preserve">
<style type="text/css">
	.st0{fill:#CC6E4E;}
</style>
<g id="XMLID_1_">
	<path id="XMLID_2_" class="st0" d="M19.9,18.8c0.1-0.9,0.1-1.7,0.1-2.6c0.1-0.7,0.1-1.5,0.1-2.3c0-0.7,0-1.4,0-2.1
		c0.1-0.7,0.5-1.5,0.4-2.2c-0.1-0.8,0.4-1.4,0.4-2.3c0.1-0.9,0.3-1.7,0.8-2.4c0.1-0.2,0.1-0.4,0.3-0.5c0.1-0.1,0.3-0.6,0.5-0.7
		c0.7-0.5,3.8-2.1,4.4-0.9c0.3,0.6,0.9,1.1,1.2,1.6c0.3,0.6,0.1,1.7,0.1,2.4c0,4.4,0,8.8,0,13.2c0.1,1-0.1,2.1-0.1,3.2
		c0,0.3,0,0.5,0,0.8c0.2,0.9,0.1,1.7,0.1,2.6c-0.1,0.9-0.1,1.8-0.1,2.7c0,4.9-0.3,9.9,0,14.7c0.1,0.3-0.1,0.6-0.1,0.8
		c-0.3,0.7-0.5,1.5-0.7,2.2c-0.2,0.6-0.7,2-1.5,2c-0.1,0-0.3-0.1-0.4-0.2c-0.4-0.2-1-0.8-1.5-0.9c-0.7,0-0.7,0.5-1.2,0.7
		c-0.2,0.1-0.5,0-0.7-0.1s-0.5,0-0.6,0.2c0.2-0.3-1.4-0.8-1.5-0.9c-0.5-0.4-0.4-1.2-0.8-1.6c-0.2-0.2-0.3-0.5-0.1-0.8
		c0.3-0.6,0.3-1.2,0.3-1.8c0-2.4,0-4.8,0.1-7.2c0-2.1-0.2-4.6,0.1-6.7c0.1-0.6,0.1-1.2,0-1.7c-0.1-0.5-0.1-0.6-0.6-0.6
		c-2.7,0-5.3-0.1-8-0.1c-0.5,0.1-1.1,0-1.4,0.6c-0.1,0.1-0.1,0.3-0.1,0.5c-0.1,0.4,0,0.7,0,1.1c0,2-0.2,4.1-0.2,6.1
		c0,2,0.4,3.8,0.4,5.8c0,0.3-0.1,0.5-0.2,0.7c-0.1,0.5-0.2,1.1,0.1,1.6c0.1,0.3,0.1,0.7-0.1,1c-0.1,0.5,0,1,0,1.5
		c0.1,0.9-0.1,1.7-0.8,2.3c-1,0.9-1.1-0.4-1.8-0.7c-0.1,0.3,0,0.5,0,0.8s-0.1,0.6-0.3,0.6c-0.2,0-0.4-0.1-0.5-0.2
		C4.6,48.4,3.2,48.7,2,48c-0.5-0.2-0.6-0.6-0.7-1.2c-0.1-1-0.3-1.9-0.3-2.9c0-5,0.6-10.1,0.6-15.1c0-0.9,0.1-1.8,0.2-2.8
		c0-0.6,0-1.2,0.1-1.8C2,23.4,2.1,22.7,2.2,22c0.1-0.4,0.1-0.8,0.1-1.2c0-4.6,1.1-9.3,0.6-13.9c-0.1-1,0.4-2,0.8-3
		c0.8-2.1,2.8-2.1,4.7-2.1C8.7,1.7,8.9,1.9,9,2.1c0.3,0.6,0.5,1.4,0.6,2.1S9.9,5.6,10,6.3c0.2,1.1,0.2,2.2,0.1,3.3
		c-0.1,0.8-0.3,1.7-0.2,2.5c0.1,0.6,0,1.3,0,1.9c-0.1,0.9-0.1,1.7-0.1,2.6c-0.1,0.8,0,1.5,0,2.3c0,0.5,0.1,0.5,0.5,0.5
		c0.4,0,0.8,0,1.3,0c2.3,0,4.7,0.5,7,0.5c0.3,0,0.6,0,1,0C19.8,19.6,19.9,19.2,19.9,18.8z"/>
	<path id="XMLID_43_" class="st0" d="M50.9,26.5c-2.1,1-4.2,1.1-6.5,1.1c-0.6,0-0.8,0.2-0.8,0.8c-0.1,1.4-0.1,2.6-0.1,4
		c0,3-0.5,5.9-0.5,8.9c0,0.8,0.2,1,1,1c1.8,0,4.1-0.4,5.8,0.2c0.8,0.3,1.6,0.6,2.3,1.1s1.4,0.9,1.9,1.5c0.1,0.1,0.2,0.2,0.3,0.4
		c0-0.1-1.8,0.4-2,0.5c0,0.3,0.1,0.4,0.3,0.6c-0.4,0.1-0.8,0.2-1.3,0.2c1,0,2.1,0,3.1,0c0.1,0-1.3,1.7-1.6,1.9
		c-0.8,0.5-1.8,0.8-2.8,0.8c-0.5,0.1-0.9,0.1-1.4,0.2c-0.1,0-0.2,0-0.3,0c-2.4-0.6-5.2-0.6-7.6,0c-1.1,0.3-2.2,0.5-3-0.6
		c-0.1,0.3-0.5,0.2-0.7,0c-1.1-0.7-1.4-1.8-1.6-3.1c-0.3-1.7-0.3-3.5-0.3-5.2c0-0.4,0.1-0.8,0.1-1.2c0-2.4-0.2-4.8-0.2-7.2
		c0.1-1.4,0.1-2.7,0.1-4.1c0.2-2.5,0.4-5,0.5-7.5c0.1-2.4-0.3-5-0.1-7.4c0-1.9,0.1-3.8,0.1-5.7c0-1,1.5-4.8,2.8-4.8
		c0.6-0.1,0.8-0.5,1.2-0.9c0.1-0.3,0.3-0.3,0.6-0.3c2.2,0.3,4.5,0,6.7,0c0.6,0,1.3-0.1,1.9-0.1c0.1-0.1,0.3-0.1,0.3-0.1
		c0.5,0.3,0.9,0.5,1.2,0.7c0.6,0.5,1.1,0.9,1.5,1.4c0.2,0.2,0.8,0.3,1,0.3c-0.1,0.2-0.4,0.4-0.5,0.6c0.3,0.3,0.7,0.5,1,0.7
		c-0.3,0.1-1.4-0.1-1.6,0.1C51.7,5.4,51.2,6,51.8,6c-0.8-0.1-1.7,0-2.5,0.1c-0.4,0.1-1,0.4-0.8,0.8c0.6-0.2,5.4-0.4,5.4-0.3
		c-0.3,0.5-0.6,0.9-1.2,1c-0.1,0-0.1,0.1-0.3,0.1c-1.5,0.8-3,1.1-4.7,1.1C46.9,8.9,46.2,9,45.5,9c-0.6,0.1-0.9,0.5-0.9,1
		c-0.1,1.3-0.3,2.6-0.3,3.9c0,1.4-0.2,2.6-0.2,4c0,0.5,0.1,1.1,0.1,1.7c0.1,0.1,0.3,0.1,0.5,0.1c1.7,0,3.1,0,4.6,0.7
		c1.4,0.7,3.2,1.6,2.9,3.3c-0.7,0.2-1.5,0.5-2.2,0.7c0.3-0.1,2.2,0.6,1.9,1.3c-0.1,0.2-0.3,0.3-0.5,0.5
		C51.2,26.3,51.1,26.4,50.9,26.5z"/>
	<path id="XMLID_57_" class="st0" d="M63.3,3.4c0.5-0.6,1.2-1.1,2.1-1.3c0.1,0,0.2-0.1,0.3-0.1c0.1-0.1,0.1-0.4,0.1-0.5
		c0.1-0.3,0.5-0.5,0.8-0.4c0.1,0,1.7,0.8,1.7,0.5c0,0.1,0.1,0.1,0.1,0.1C69,1.5,70,6.9,70,7.6c-0.1,0.5-0.1,0.8-0.1,1.3
		c0,5.3-0.4,10.6-0.7,15.8C68.9,29.8,69,34.9,69,40c0,0.6,0,1.2,0,1.7s0.1,0.6,0.6,0.7c0.3,0.1,0.6,0.1,0.9,0.1
		c1.5-0.1,3.1,0.1,4.6,0.4c0.6,0.1,1.3,0.4,1.8,0.8c0.7,0.2,1.1,1.3,1.3,1.9c0.1,0.2,0.1,0.3,0.1,0.5c0,0.6-1.1,1.4-1.6,1.7
		c-1,0.8-2.1,1.4-3.2,2.1c-0.6,0.4-1.2,0.5-1.9,0.5c-1.4,0-2.7,0-4.1,0.1c-0.8,0-1.7,0.2-2.5,0.1c-0.7-0.1-1.6-0.6-2.3-0.2
		c0.7-1-0.2-1.3-0.5-2c-0.2-0.4-0.3-0.8-0.5-1.2c0-1.4-0.5-2.9-0.7-4.3c0-0.5-0.1-1-0.1-1.6c0-2.8,0-5.8-0.3-8.5
		c-0.1-0.7,0-1.5,0-2.2c0.1-0.9,0.1-1.8,0.2-2.8c0.1-0.2,0-0.4,0.1-0.6c0.3-0.6,0.2-1.3,0.2-1.9c0-5.4,0.7-10.7,0.7-16.1
		c0-0.3,0.1-0.7,0.1-1C62,6.5,62.3,4.6,63.3,3.4z"/>
	<path id="XMLID_3_" class="st0" d="M86.2,3.4c0.5-0.6,1.2-1.1,2.1-1.3c0.1,0,0.2-0.1,0.3-0.1c0.1-0.1,0.1-0.4,0.1-0.5
		c0.1-0.3,0.5-0.5,0.8-0.4c0.1,0,1.7,0.8,1.7,0.5c0,0.1,0.1,0.1,0.1,0.1c0.6,0,1.6,5.4,1.6,6.1c-0.1,0.5-0.1,0.8-0.1,1.3
		c0,5.3-0.4,10.6-0.7,15.8c-0.3,5.1-0.2,10.2-0.2,15.3c0,0.6,0,1.2,0,1.7s0.1,0.6,0.6,0.7c0.3,0.1,0.6,0.1,0.9,0.1
		c1.5-0.1,3.1,0.1,4.6,0.4c0.6,0.1,1.3,0.4,1.8,0.8c0.7,0.2,1.1,1.3,1.3,1.9c0.1,0.2,0.1,0.3,0.1,0.5c0,0.6-1.1,1.4-1.6,1.7
		c-1,0.8-2.1,1.4-3.2,2.1c-0.6,0.4-1.2,0.5-1.9,0.5c-1.4,0-2.7,0-4.1,0.1c-0.8,0-1.7,0.2-2.5,0.1c-0.7-0.1-1.6-0.6-2.3-0.2
		c0.7-1-0.2-1.3-0.5-2c-0.2-0.4-0.3-0.8-0.5-1.2c0-1.4-0.5-2.9-0.7-4.3c0-0.5-0.1-1-0.1-1.6c0-2.8,0-5.8-0.3-8.5
		c-0.1-0.7,0-1.5,0-2.2c0.1-0.9,0.1-1.8,0.2-2.8c0.1-0.2,0-0.4,0.1-0.6c0.3-0.6,0.2-1.3,0.2-1.9c0-5.4,0.7-10.7,0.7-16.1
		c0-0.3,0.1-0.7,0.1-1C84.9,6.5,85.2,4.6,86.2,3.4z"/>
	<path id="XMLID_71_" class="st0" d="M106.1,44.7c-0.1-0.3-0.4-1.5-0.1-1.8c0.3-0.3,0.8-0.7,0.6-1.1c-0.3-0.5-0.3-0.9-0.4-1.5
		c-0.1-0.1-0.1-0.3-0.1-0.4c-0.4-1.7-0.7-3.5-0.8-5.3c-0.1-0.8-0.2-1.6-0.3-2.4c0-1,0.1-1.9,0.1-2.9s0-2.1,0.1-3.2
		c0.1-1.2,0.1-2.3,0.2-3.4c0.2-1.2,0.4-2.5,0.6-3.7c0.3-1.5,0.8-3.2,1.3-4.6c0.3-1,0.6-2.1,1-3c0.2-0.6,0.6-1.1,0.8-1.7
		c0.6-1.3,1.4-2.4,2.4-3.4c0.6-0.7,1.3-1.5,2.3-1.8c0.1-0.1,0.1-0.1,0.3-0.2c0.8-0.4,1.5-1.4,2.5-1.3c0.3,0,0.6,0.2,0.9,0.1
		c0.3-0.1,0.6-0.3,0.9-0.5c0.6-0.4,1.1,0.3,1.4,0.2c0.6-0.3,0.9,0.1,1.4,0.3c0.7,0.3,1.5,0.6,2.2,0.8c1.1,0.5,1.9,1.3,2.8,2.1
		c0.4,0.4,0.8,0.8,1.3,1.2c0.7,0.5,1.2,1.2,1.6,1.9c0.5,0.8,1,1.7,1.5,2.5c0.5,0.9,1,1.9,1.4,2.8c0.6,1.3,1.1,2.6,1.4,3.9
		c0.1,0.6,0.3,1.3,0.3,2c0.1,0.8,0.3,1.5,0.3,2.3c0.2,1,0.3,1.9,0.5,2.9c0.1,0.3-0.1,0.6-0.1,1c-0.1,0.9,0,1.8-0.1,2.8
		c-0.1,1.2-0.2,2.3-0.3,3.4c-0.1,0.5-0.1,0.9-0.1,1.3c0.1,1.2-0.3,2.3-0.5,3.5c-0.2,0.7-0.3,1.5-0.6,2.3c-0.4,1.4-1,2.8-1.8,4.1
		c-0.8,1.2-1.5,2.4-2.3,3.5c-0.3,0.4-0.6,0.6-1,0.7c-0.5,0.1-0.9,0.5-1.3,0.8c-0.8,0.6-1.6,1-2.6,1.2c-0.8,0.1-1.6,0.2-2.4,0.3
		c-0.3,0.1-0.6,0.2-1,0.3c-1.7,0.2-3.5,0-5.2-0.8c-0.3-0.1-0.6-0.3-1-0.4c-0.9-0.3-1.7-0.8-2.5-1.4c-0.8-0.6-1.5-1.4-2.2-2.2
		c-0.6-0.8-0.8-0.7-1.3-1.5c-0.2-0.2-0.6-0.5-1-0.4C106.8,44,106.1,44.5,106.1,44.7z M122.6,40.2c0.5-0.7,0.8-1.4,1.2-2.2
		c0.3-0.4,0.2-0.8,0.3-1.3c0.2-1.1,0.5-2.1,0.7-3.2c0.1-0.3,0.3-0.7,0.3-1.1c0.1-1.1,0.2-2.3,0.3-3.4c0.1-0.6,0.2-1.4,0.4-2
		c0.3-0.7,0.5-1.5,0.4-2.3c-0.1-0.7-0.2-1.4-0.3-2.1c-0.1-0.1-0.1-0.3-0.1-0.4c-0.1-0.2-0.2-0.4-0.3-0.6c-0.1-0.6-0.2-1.3-0.3-1.9
		c-0.2-1.3-0.4-2.5-0.8-3.7c-0.2-0.7-0.5-1.4-0.9-2.1c-0.8-1.3-1.9-2.4-3.1-3.5c-0.5-0.4-1.4-0.3-1.8,0.3c-0.5,0.6-0.8,1.2-1.3,1.8
		c-0.6,0.9-1,2-1.3,3c-0.1,0.6-0.3,1.1-0.5,1.7c-0.5,1.2-0.8,2.4-1,3.7c-0.2,1.4-0.5,2.8-0.5,4.2c0,2.8,0.1,5.7,0.1,8.5
		c0,0.1,0,0.1,0,0.2c0.2,1.4,0.3,2.8,0.6,4.1c0.2,0.8,0.4,1.6,0.8,2.3c0.4,0.6,0.8,1.2,1.5,1.6c0.5,0.3,1,0.4,1.6,0.4
		c0.4,0,0.8-0.1,1.3,0.2c0.1,0.1,0.1,0,0.3,0c0.4,0.1,1.7-1,1.7-1.4c0-0.1,0-0.3,0-0.3C122.2,40.6,122.5,40.4,122.6,40.2z"/>
	<path id="XMLID_105_" class="st0" d="M149.4,13.7c-0.1,0.6-0.1,1.3-0.1,1.9c-0.1,0.9-0.1,1.8-0.3,2.7c-0.3,1.8-0.7,3.7-1,5.5
		c-0.1,0.8-0.1,1.5-0.1,2.3c0,0.6-0.1,1.2,0.1,1.7c0,0.1,0,0.1,0,0.1c-0.3,1.3,0.1,2.5,0.1,3.7c0,0.8,0,1.7,0,2.5c0,0.5,0.1,1,0,1.5
		s-0.4,1-0.8,1.3c-0.3,0.2-0.6,0.4-1,0.6c-0.3,0.1-0.6,0.2-0.8,0.1c-1-0.3-1.9-0.7-2.9-1c-0.3-0.1-0.6-0.1-0.9-0.2
		c-0.3-0.1-0.5-0.1-0.6-0.5c-0.1-0.2-0.2-0.5-0.4-0.6c-0.5-0.5-0.5-1.1-0.6-1.7c0-0.8,0-1.7-0.1-2.5c-0.1-1.1,0-2.1,0-3.2
		c0-0.8-0.1-1.5-0.1-2.3c0-0.9,0.1-1.8,0.2-2.6c0.1-1.2,0.3-2.3,0.5-3.4c0.1-0.6,0.2-1.3,0.4-1.9c0.1-0.8,0.4-1.5,0.5-2.3
		s0.3-1.5,0.3-2.3c0.1-1.5,0.1-3,0.2-4.5c0.1-0.6,0.2-1.1,0.3-1.7c0.1-0.8,0.3-1.6,0.5-2.4c0.5-1.9,2.4-2.8,4.3-1.9
		c0.5,0.3,0.9,0.8,1.2,1.3c0.4,0.7,0.7,1.5,1,2.2c0.5,0.9,0.4,1.9,0.5,2.8c0.1,0.4,0,0.7,0,1.1C149.7,11.2,149.6,12.5,149.4,13.7z
		 M142.1,43.8c0.1-0.1,0.2-0.2,0.5-0.2c-0.4-0.2-0.4-0.8-0.2-1.2c0.3-0.5,0.9-1.3,1.6-1.2c0.3,0,0.6,0.2,0.9,0.3
		c1,0.3,1.9,0.3,2.8,0.9c1,0.7,1.3,1.6,1.7,2.6c0.2,0.5,0.3,1,0.2,1.5c-0.2,0.6-0.2,1.3-0.5,1.9c-0.8,1.6-3.2,0.9-4.5,0.6
		c-0.3-0.1-0.6-0.1-0.9-0.2c-0.7-0.1-1.4-0.3-1.9-0.8c-0.6-0.7-0.4-2.1,0.1-2.8C142.3,44.9,141.8,44.2,142.1,43.8z"/>
</g>
</svg>
