<?xml version="1.0" encoding="utf-8"?>
<!-- Generator: Adobe Illustrator 19.0.0, SVG Export Plug-In . SVG Version: 6.00 Build 0)  -->
<svg version="1.1" id="Warstwa_1" xmlns="http://www.w3.org/2000/svg" xmlns:xlink="http://www.w3.org/1999/xlink" x="0px" y="0px"
	 viewBox="0 0 69 69" style="enable-background:new 0 0 69 69;" xml:space="preserve">
<style type="text/css">
	.st0{fill:#808080;}
</style>
<path id="XMLID_756_" class="st0" d="M34.2,0C15.4,0,0,15.4,0,34.2s15.4,34.2,34.2,34.2s34.2-15.4,34.2-34.2S53.1,0,34.2,0z
	 M41.1,62.2V38.2H27.4v23.9C14.8,59.1,5.5,47.8,5.5,34.2c0-15.9,12.9-28.8,28.8-28.8S63,18.4,63,34.2C63,47.8,53.7,59.1,41.1,62.2z
	 M41.6,25.6c0,4-3.3,7.3-7.3,7.3c-4,0-7.3-3.3-7.3-7.3c0-4,3.3-7.3,7.3-7.3C38.3,18.3,41.6,21.5,41.6,25.6z"/>
</svg>
