<?xml version="1.0" encoding="utf-8"?>
<!-- Generator: Adobe Illustrator 23.0.3, SVG Export Plug-In . SVG Version: 6.00 Build 0)  -->
<svg version="1.1" id="Warstwa_1" xmlns="http://www.w3.org/2000/svg" xmlns:xlink="http://www.w3.org/1999/xlink" x="0px" y="0px"
	 viewBox="0 0 69 69" style="enable-background:new 0 0 69 69;" xml:space="preserve">
<style type="text/css">
	.st0{fill:#808080;}
</style>
<g>
	<path class="st0" d="M34.2,0C15.4,0,0,15.4,0,34.2s15.4,34.2,34.2,34.2S68.4,53,68.4,34.2S53.1,0,34.2,0z M53.6,55.5
		c-0.8-10-9.1-17.9-19.3-17.9c-10.2,0-18.6,7.9-19.3,17.9c-5.8-5.2-9.5-12.8-9.5-21.4c0-15.9,12.9-28.8,28.8-28.8
		c15.9,0,28.7,13,28.7,28.8C63,42.7,59.4,50.2,53.6,55.5z"/>
	<ellipse transform="matrix(0.9732 -0.2298 0.2298 0.9732 -4.5046 8.5119)" class="st0" cx="34.3" cy="23.6" rx="8.9" ry="8.9"/>
</g>
</svg>
