<?xml version="1.0" encoding="utf-8"?>
<!-- Generator: Adobe Illustrator 23.0.3, SVG Export Plug-In . SVG Version: 6.00 Build 0)  -->
<svg version="1.1" id="Layer_1" xmlns="http://www.w3.org/2000/svg" xmlns:xlink="http://www.w3.org/1999/xlink" x="0px" y="0px"
	 viewBox="0 0 483 284" style="enable-background:new 0 0 483 284;" xml:space="preserve">
<style type="text/css">
	.st0{fill:#FFFFFF;}
</style>
<g>
	<g>
		<path class="st0" d="M152.1,222.6c-0.1,0-0.3,0-0.4,0c-0.3,0-0.5,0.1-0.7,1c-0.4,1.5-1,3.1-1.5,4.3c-0.6,1.8-0.6,2.2-0.6,2.2
			c0.2,0.2,1.3,0.5,1.7,0.6c0.2,0,0.3,0.1,0.4,0.1c0.2,0.1,0.5,0.1,0.7,0.1c1.5,0,2.2-2,2.8-3.7l0.2-0.6c0.3-0.9,0.3-1.7,0-2.4
			C154.2,223.5,153.4,222.9,152.1,222.6z"/>
	</g>
	<g>
		<path class="st0" d="M176.8,231c-0.6-0.4-1.3-0.7-2-0.7c-0.6,0-1.2,0.2-1.8,0.5c-1.1,0.7-1.5,2.3-1.8,3.8
			c-0.1,0.3-0.1,0.6-0.2,0.9c-0.2,0.9-0.5,1.8-0.7,2.7c-0.3,0.9-0.5,1.9-0.7,2.8c-0.2,0.7-0.6,2.9,0.6,4c0.6,0.6,1.8,1,2.8,1
			c0.4,0,0.8-0.1,1.1-0.2c1.2-0.5,1.6-2.2,2-3.6c0.1-0.3,0.2-0.6,0.3-0.9c0.3-1.1,0.6-2.3,0.8-3.4c0.2-1,0.4-1.9,0.7-2.9
			C178.2,233.2,178.2,232,176.8,231z"/>
	</g>
	<g>
		<path class="st0" d="M190.2,187c34.4,0,68.8,0,103.3,0c12.7,0.2,23.4-9.7,22.1-22.8C308.3,98,304.3,87,295.3,19.3
			c-1.1-11.6-10-18.5-22.1-19.3c-20.6,0-41.1,0-61.7,0c-12.3,0.9-21.6,7.9-23.2,19.6c-9,65.4-13,79.4-21,144.3
			C166.5,177.2,177.3,187.1,190.2,187z M241.7,176c-6.5,0-11.7-4.6-11.7-10.2s5.1-10.2,11.4-10.2c6.2,0,11.5,4.6,11.7,10.2
			C253.2,171.5,248.1,176,241.7,176z M183.3,137.2c8-57.2,9-61.2,17.7-117.6c0.6-5.4,4.9-9.9,9.2-9.9c21.2,0,42.5-0.1,63.7-0.1
			c4.3,0,8.4,4.4,8.7,9.7C291.3,79,292.3,80,299,137.4c0.6,5.3-3.5,9.6-9.1,9.6c-32.4-0.1-64.8-0.1-97.2-0.2
			C187,146.8,182.9,142.5,183.3,137.2z"/>
	</g>
	<g>
		<path class="st0" d="M118.6,206.7c-0.4,0-0.7,0.1-1,0.2c-1.2,0.4-2,1.9-2.7,3.2c-0.1,0.3-0.3,0.5-0.4,0.8
			c-0.5,0.8-0.9,1.7-1.4,2.5c-0.5,0.8-0.9,1.7-1.4,2.5c-0.3,0.6-1.3,2.6-0.4,4c0.6,0.9,2.1,1.8,3.2,1.8c0.1,0,0.2,0,0.3,0
			c1.3-0.2,2.1-1.7,2.8-3c0.2-0.3,0.3-0.6,0.5-0.8c0.6-1,1.1-2.1,1.6-3.1c0.4-0.9,0.9-1.8,1.3-2.6c0.9-1.6,1.2-2.8,0.1-4.1
			C120.5,207.2,119.6,206.7,118.6,206.7z"/>
	</g>
	<g>
		<path class="st0" d="M58,157.4c-0.1-0.1-0.2-0.1-0.3-0.1c-0.4,0-0.8,0.6-1.2,1.1c-0.2,0.3-0.4,0.6-0.7,0.8
			c-0.6,0.6-1.2,1.1-1.8,1.6c-0.5,0.4-1,0.8-1.4,1.2c-0.1,0.1-0.2,0.2-0.3,0.3c-0.2,0.1-0.3,0.3-0.4,0.4c0,0,0,0,0,0
			c0,0,0,0.1,0.3,0.4c0.5,0.6,1.4,1.3,2.1,1.7c0.2,0.1,0.4,0.2,0.6,0.2c0.3,0,0.7-0.2,1.2-0.5c0.9-0.6,1.8-1.5,2.6-2.3
			c0.9-0.9,1.1-1.4,0.9-2.3C59.4,159,58.7,157.9,58,157.4z"/>
	</g>
	<g>
		<path class="st0" d="M215.6,245.1l0-0.2c-0.1-0.7-0.1-1.1-0.2-1.5c-0.5,1.4-1.3,3.9-1.4,4.2c0,0.1-0.1,0.2-0.1,0.3
			c0,0,0.3,0,0.3,0c0.1,0,0.3,0.1,0.6,0.1c0.4,0.1,0.9,0.2,1.3,0.2c0-0.5-0.3-1.6-0.4-2.1C215.7,245.6,215.6,245.3,215.6,245.1z"/>
	</g>
	<g>
		<path class="st0" d="M368.3,208.4c-0.7-1.3-2-2.1-3.2-2.1c-0.1,0-0.3,0-0.4,0c-0.7,0.1-1.5,0.5-2.3,1.1c-0.2,0.1-0.4,0.3-0.7,0.4
			c-0.3,0.2-0.6,0.4-0.9,0.5c0.3,0.5,0.7,1.1,0.9,1.5c0.6,1,1.1,1.9,1.5,2.7l0.3,0.6c1,1.9,2,3.9,3.2,5.6c0.2,0.3,0.4,0.7,0.7,1.2
			c0.4,0.7,1.2,1.9,1.4,2.2c0.2-0.1,0.7-0.4,0.9-0.6c0.3-0.2,0.5-0.4,0.7-0.5l0.1-0.1c0.7-0.4,1.4-0.8,1.8-1.5
			c0.8-1.3,0.6-2.8-0.4-4.6L368.3,208.4z"/>
	</g>
	<g>
		<path class="st0" d="M478.8,146.7c-0.8-7.6-1.7-15.2-2.7-22.8l-0.7-5.7l-0.8-5.7c-0.3-1.9-0.6-3.8-0.9-5.7c-0.2-1-0.3-1.9-0.5-2.8
			c-0.2-1-0.4-1.9-0.7-2.8c-0.9,0.3-1.8,0.5-2.7,0.7l-2.7,0.5c-1.8,0.3-3.6,0.6-5.5,0.8l-5.5,0.8l-5.5,0.7
			c-7.4,0.9-14.8,1.8-22.2,2.6c-14.8,1.6-29.7,3.1-44.6,4.5l20.2,16.4l-4.6,5.7l-4.4,5.4l-4.1,4.6c-1.4,1.6-2.7,3.2-4.2,4.6
			c-2.9,2.9-5.7,6-8.8,8.7l-4.6,4.2l-4.8,3.9c-3.1,2.7-6.5,5-9.8,7.5c-1.6,1.3-3.4,2.3-5.1,3.5l-5.2,3.4l-5.4,3.1l-2.7,1.5
			c-0.4,0.3-0.9,0.5-1.3,0.8l-1.4,0.7c-14.6,7.6-30.2,13.4-46.4,17.2c-16.1,3.8-32.7,5.5-49.5,5.4c-16.9,0.1-33.7-1.7-49.8-5.4
			c-16.2-3.8-31.8-9.6-46.4-17.2l-1.4-0.7c-0.5-0.2-0.9-0.5-1.3-0.8l-2.7-1.5l-5.4-3.1l-5.2-3.4c-1.7-1.1-3.5-2.2-5.1-3.5
			c-3.3-2.5-6.7-4.8-9.8-7.5l-4.8-3.9l-4.6-4.2c-3.1-2.7-5.9-5.8-8.8-8.7c-1.5-1.4-2.8-3-4.2-4.6l-4.1-4.6l-4.4-5.4l-4.6-5.7
			l20.2-16.4c-14.8-1.4-29.8-2.9-44.6-4.5c-7.4-0.8-14.8-1.7-22.2-2.6l-5.5-0.7l-5.5-0.8c-1.8-0.3-3.7-0.5-5.5-0.8l-2.7-0.5
			c-0.9-0.2-1.8-0.4-2.7-0.7c-0.3,0.9-0.5,1.8-0.7,2.8c-0.2,1-0.4,1.9-0.5,2.8c-0.3,1.9-0.6,3.8-0.9,5.7l-0.8,5.7l-0.7,5.7
			c-1,7.6-1.8,15.2-2.7,22.8c-1.7,15.2-3.2,30.4-4.6,45.6L19.8,176l4.8,5.9l5,6.1l5.7,6.5c1.9,2.2,3.8,4.4,5.8,6.4
			c4,4.1,8,8.3,12.3,12.2l6.4,5.8l6.7,5.5c4.4,3.8,9.2,7.1,13.8,10.5c2.3,1.8,4.8,3.3,7.2,4.9l7.3,4.7l7.5,4.4l3.8,2.2
			c0.6,0.4,1.3,0.7,1.9,1.1l1.9,1c20.5,10.8,42.3,18.8,64.7,24c21.8,5.1,44.1,7.5,66.2,7.4c22.5,0.2,45.3-2.2,67.6-7.4
			c22.4-5.2,44.2-13.3,64.7-24l1.9-1c0.6-0.3,1.3-0.7,1.9-1.1l3.8-2.2l7.5-4.4l7.3-4.7c2.4-1.6,4.9-3.1,7.2-4.9
			c4.6-3.4,9.4-6.7,13.8-10.5l6.7-5.5l6.4-5.8c4.3-3.8,8.3-8,12.3-12.2c2.1-2,3.9-4.2,5.8-6.4l5.7-6.5l5-6.1l4.8-5.9l20.2,16.4
			C482,177.1,480.4,161.9,478.8,146.7z M35,154.3l-1.8,1.7c-0.2,0.1-0.3,0.3-0.5,0.5c-0.5,0.5-1,1-1.5,1.1c-0.1,0-0.2,0-0.3,0
			c-1,0-1.6-1-2.1-1.8c-0.1-0.2-0.2-0.4-0.3-0.5l-0.3-0.4c-0.8-1.2-1.2-2,0.5-3.3c1.1-0.9,2.2-1.8,3.4-2.7c1.7-1.4,3.4-2.8,5.2-4
			c1.5-1.1,3.2-2.3,4.6-3.7c0.3-0.2,0.6-0.4,0.9-0.6c0.3-0.2,0.6-0.4,0.9-0.7c0.2-0.2,0.3-0.3,0.3-0.3c0,0,0,0,0,0
			c0,0-0.2-0.2-0.3-0.3c-0.1-0.1-0.3-0.3-0.6-0.6c-1.7-1.7-2.6-2.8-2.5-3.6c0-0.2,0.1-0.5,0.3-0.6c0.3-0.2,0.6-0.4,0.8-0.6
			c0.4-0.3,0.8-0.5,1.1-0.8c0.1-0.1,0.2-0.2,0.3-0.3c0.3-0.4,0.7-0.8,1.1-0.9c0.2,0,0.3-0.1,0.4-0.1c1.1,0,1.9,1.3,2.6,2.3
			c0.2,0.3,0.4,0.6,0.5,0.8c0.7,0.8,1.3,1.7,1.9,2.6c0.4,0.5,0.7,1,1.1,1.5c0.4,0.6,0.9,1.1,1.4,1.6c0.7,0.8,1.4,1.6,2,2.5
			c0.1,0.2,0.3,0.4,0.5,0.6c0.6,0.7,1.4,1.6,0.3,2.8c0,0-2.3,2.3-3.6,2.3c-0.1,0-0.2,0-0.4-0.1c-0.4-0.2-0.7-0.6-0.9-1
			c-0.1-0.1-0.1-0.2-0.2-0.3c-0.5-0.5-1-1.1-1.5-1.9c-0.5-0.7-0.7-0.8-0.7-0.8c-0.1,0-0.5,0.3-0.8,0.6c-0.1,0.1-0.3,0.2-0.4,0.4
			c-1.1,0.9-2.2,1.7-3.3,2.6c-1.4,1.1-2.9,2.2-4.2,3.3c-0.7,0.6-1.5,1.2-2.2,1.7C36.1,153.5,35.6,153.9,35,154.3z M53.1,171.5
			c-0.2,0.4-0.4,0.9-0.5,1.4c-0.1,0.4-0.2,0.8-0.4,1.2c-0.6,1.2-1.1,2.4-1.6,3.6l-0.1,0.1c-0.2,0.6-0.6,1.2-1.2,1.2
			c-0.5,0-0.9-0.4-1.4-1l-0.1-0.1c-0.2-0.2-0.3-0.3-0.5-0.5c-0.3-0.3-0.6-0.5-0.9-0.9l-0.2-0.2c-0.3-0.4-0.6-0.8-0.7-1.1
			c-0.4-0.9,0.2-1.9,0.6-2.7c0.1-0.3,0.3-0.5,0.3-0.7c0.2-0.5,0.4-1.1,0.7-1.6c0.3-0.7,0.6-1.3,0.8-2c0.1-0.3,0-0.7-0.2-1
			c-0.1-0.2-0.3-0.3-0.5-0.3c-0.1,0-0.1,0-0.2,0c-0.2,0.1-0.6,0.6-0.9,0.9c-0.2,0.3-0.4,0.5-0.6,0.7c-0.3,0.3-0.6,0.6-1,0.9
			c-0.3,0.3-0.7,0.7-1,1c-0.3,0.3-0.8,0.7-1.2,0.7c-0.5,0-0.9-0.4-1.4-0.9l-0.2-0.3c-0.1-0.1-0.3-0.3-0.6-0.5
			c-1-0.9-1.8-1.5-1.8-2.2c0-0.8,0.5-1,0.8-1.2c0.1-0.1,0.2-0.1,0.3-0.2c0.3-0.2,0.5-0.5,0.8-0.8c0.2-0.2,0.4-0.5,0.6-0.7
			c0.8-0.8,1.7-1.6,2.5-2.4c0.4-0.4,0.9-0.8,1.3-1.2c1.1-1.1,2.3-2.2,3.4-3.2c1.1-1.1,2.3-2.2,3.4-3.3c1.1-1,2.1-1.8,3.2-2.8
			c0.3-0.3,0.6-0.6,0.9-1c0.5-0.6,1-1.1,1.6-1.5c0.3-0.2,0.6-0.2,0.8-0.2c0.9,0,1.5,0.7,2.1,1.4c0.1,0.2,0.3,0.3,0.4,0.4
			c1,1.1,2.2,2.4,3.2,3.4c3.3,3.8,3.4,7.6,0.2,11.1c-1,1.1-2.2,2.2-3.6,3.4c-2.2,1.9-4.1,2.9-5.9,2.9
			C54.1,171.7,53.6,171.6,53.1,171.5z M82.9,176.1c-0.1,0-0.2,0.1-0.3,0.1c-2.7,1.2-5.4,2.5-8.5,4c-0.3,0.2-0.6,0.3-1,0.4
			c-0.9,0.4-1.7,0.8-2.6,1.4c-0.7,0.6-1.3,1.3-2,2c-0.3,0.3-0.6,0.7-0.9,1c-0.5,0.6-1,1.2-1.5,1.7c-0.5,0.6-1,1.1-1.5,1.7
			c-0.1,0.2-0.3,0.4-0.5,0.6c-0.6,0.8-1.4,1.8-2.4,1.8c-0.1,0-0.2,0-0.3,0c-0.5-0.2-0.9-0.6-1.3-1.1c-0.1-0.2-0.3-0.3-0.4-0.4
			c-0.1-0.1-0.3-0.2-0.4-0.4c-0.5-0.4-1-0.8-1.2-1.4c-0.4-1.2,0.6-2.1,1.3-2.8c0.2-0.1,0.3-0.3,0.5-0.4c0.4-0.4,0.8-0.8,1.1-1.2
			c0.7-0.7,1.3-1.4,1.9-2.1c0.4-0.5,0.9-1,1.4-1.5c0.7-0.7,1.4-1.3,1.7-2c0.8-1.5,1.2-3.2,1.7-4.9c0.4-1.4,0.8-2.9,1.4-4.2
			c0.3-0.6,0.4-1.2,0.6-1.9c0.2-0.8,0.4-1.7,0.8-2.5c0.2-0.4,0.6-1,1.2-1c0.5,0,0.9,0.4,1.2,0.8c0.1,0.1,0.2,0.2,0.3,0.3
			c0.2,0.2,0.5,0.4,0.8,0.7c0.8,0.6,1.6,1.3,1.5,2.6c-0.1,1.1-0.5,2.2-0.9,3.2c-0.2,0.5-0.4,1.1-0.5,1.6c0,0.1-0.1,0.2-0.1,0.4
			c-0.1,0.2-0.2,0.5-0.3,0.9c0.1-0.1,0.3-0.1,0.3-0.2c0.2-0.1,0.3-0.2,0.4-0.2c0.4-0.2,0.9-0.3,1.3-0.5c1.4-0.5,2.8-1,4-1.6
			c0.2-0.1,0.3-0.1,0.4-0.1c0.7,0,1.3,0.8,1.8,1.5c0.2,0.2,0.4,0.5,0.5,0.6c0.1,0.1,0.2,0.2,0.4,0.3c0.6,0.4,0.9,0.6,1.1,1
			C84.5,175.4,83.4,175.9,82.9,176.1z M103.2,197.7c-0.1,0.1-0.2,0.3-0.3,0.5c-0.8,1.2-1.6,2.3-2.4,3.5c-1,1.4-2.1,2.9-3,4.5
			c-0.5,0.8-1,1.6-1.6,2.3c-0.4,0.5-0.8,1-1.1,1.6l-1.3,2.2c-0.1,0.2-0.2,0.4-0.3,0.6c-0.3,0.6-0.7,1.3-1.1,1.6
			c-0.2,0.1-0.5,0.2-0.7,0.2c-0.8,0-1.5-0.6-2.1-1.2c-0.2-0.1-0.3-0.3-0.5-0.4l-0.4-0.3c-1.2-0.9-1.8-1.5-0.5-3.3
			c0.8-1.2,1.6-2.4,2.4-3.6c1.2-1.8,2.4-3.7,3.7-5.4c1.1-1.5,2.3-3.2,3.2-4.9c0.2-0.3,0.4-0.6,0.6-0.9c0.2-0.3,0.5-0.6,0.6-0.9
			c0.1-0.3,0.2-0.4,0.2-0.4c0,0,0,0,0,0c0,0-0.2-0.1-0.4-0.2c-0.1-0.1-0.4-0.2-0.7-0.4c-1.8-1-3.2-1.8-3.4-2.7
			c-0.1-0.2,0-0.5,0.1-0.7c0.2-0.3,0.4-0.6,0.6-0.8c0.3-0.4,0.6-0.7,0.8-1.1c0.1-0.1,0.1-0.2,0.2-0.3c0.2-0.4,0.4-0.9,0.8-1.2
			c0.3-0.2,0.5-0.3,0.8-0.3c0.9,0,1.9,0.8,2.7,1.5c0.3,0.2,0.5,0.5,0.7,0.6c0.9,0.6,1.7,1.3,2.6,1.9c0.5,0.4,1,0.8,1.5,1.1
			c0.6,0.4,1.2,0.8,1.8,1.1c0.9,0.5,1.8,1.1,2.6,1.7c0.2,0.2,0.4,0.3,0.6,0.4c0.7,0.5,1.9,1.1,1.1,2.6c0,0-1.7,3.4-3,3.4
			c-0.5,0-0.9-0.4-1.2-0.7c-0.1-0.1-0.2-0.2-0.3-0.2c-0.6-0.3-1.3-0.8-2-1.4c-0.6-0.4-0.8-0.5-0.9-0.5
			C103.7,196.9,103.4,197.4,103.2,197.7z M126.9,214.7c-0.2,0.3-0.3,0.7-0.5,1c-0.3,0.7-0.7,1.3-1.1,2c-0.4,0.6-0.8,1.3-1.1,1.9
			c-0.8,1.6-1.7,3.1-2.5,4.6c-1.6,2.8-3.9,4.3-6.4,4.3c-0.1,0-0.2,0-0.3,0c-2-0.1-3.7-1-5.5-2c-3.1-1.8-4.8-3.8-5.2-6.2
			c-0.4-2.4,0.7-4.7,1.9-6.9c0.6-1.1,1.2-2.3,1.8-3.5c0.8-1.5,1.5-3,2.4-4.4l0.2-0.3c1.3-2.2,2.8-4.6,5.5-5.3
			c0.5-0.2,1.1-0.2,1.7-0.2c2.3,0,4.4,1.2,6.4,2.4c2,1.1,4.2,3.4,4.7,5.5C129.2,210,128,212.5,126.9,214.7z M160.1,229.6
			c-0.1,0.4-0.3,0.7-0.4,1.1c-1.1,3-2.3,6.3-5.8,6.8c0,0.3,0.1,0.7,0.2,1.1c0,0.2,0.1,0.5,0.1,0.7c0,0.4,0,0.7,0,1
			c0,0.5,0,1,0.1,1.5c0,0.2,0,0.3,0.1,0.5c0.2,1.3,0.4,3.2-0.7,3.7c-0.1,0-0.2,0.1-0.3,0.1c-0.5,0-1-0.3-1.6-0.5
			c-0.2-0.1-0.4-0.2-0.5-0.2c-0.2-0.1-0.4-0.1-0.6-0.1c-0.5-0.1-1.1-0.2-1.5-0.5c-0.9-0.7-0.9-2.3-0.9-3.5c0-0.3,0-0.6,0-0.9
			c0-0.3,0-0.8,0-1.2c0-1,0-2.3-0.4-2.8c-0.3-0.3-0.4-0.3-0.5-0.3c-0.4,0-0.8,1.2-1,1.6l-0.1,0.3c-0.1,0.2-0.2,0.5-0.3,0.9
			c-0.5,1.8-1,3.2-2,3.5c-0.1,0-0.2,0-0.3,0c-0.4,0-0.9-0.2-1.3-0.4c-0.1-0.1-0.2-0.1-0.3-0.2c-0.2-0.1-0.4-0.1-0.7-0.2
			c-0.5-0.2-1.2-0.3-1.6-0.7c-1.2-0.9-0.4-2.5,0.1-3.7c0.1-0.2,0.2-0.3,0.2-0.5l2.1-5.6c0.6-1.6,1.3-3.3,1.9-5
			c0.6-1.7,1.2-3.4,1.9-5.1c0.4-1,0.8-2.1,1.1-3.2l0.3-1l0-0.2c0.2-0.8,0.4-1.4,0.8-1.7c0.2-0.2,0.5-0.2,0.7-0.2
			c0.4,0,0.9,0.2,1.2,0.4c0.1,0.1,0.2,0.1,0.3,0.1l0.8,0.2c1.3,0.4,2.7,0.9,4,1.5l0.6,0.2c1.5,0.6,3.2,1.3,4.2,2.7
			C162.2,223,161.1,226.9,160.1,229.6z M184,236.1c-0.1,0.4-0.2,0.7-0.2,1.1c-0.2,0.7-0.4,1.5-0.6,2.2c-0.2,0.7-0.4,1.4-0.6,2.1
			c-0.4,1.7-0.9,3.6-1.4,5.1c-0.9,3.2-2.9,5.3-5.5,5.8c-0.5,0.1-1,0.1-1.5,0.1c-1.5,0-2.8-0.4-4.2-0.7c-3.4-1-5.6-2.5-6.5-4.7
			c-1-2.2-0.4-4.8,0.2-7.2c0.3-1.3,0.6-2.6,0.9-3.8c0.4-1.6,0.8-3.3,1.2-4.9l0.1-0.3c0.7-2.4,1.6-5.2,4-6.5c1-0.6,2.1-0.9,3.4-0.9
			c1.7,0,3.3,0.5,4.9,0.9c2.2,0.6,4.9,2.3,5.9,4.3C185.1,231,184.5,233.7,184,236.1z M203.3,236.5c-0.7-0.1-1.5-0.2-2.4-0.4
			c-0.3-0.1-0.6-0.1-0.8-0.1c-0.2,0-0.3,0-0.4,1c0,0.2,0,0.3-0.1,0.5c-0.2,1.4-0.5,2.8-0.7,4.2c-0.3,1.8-0.7,3.6-0.9,5.4
			c-0.1,0.9-0.3,1.9-0.5,2.8c-0.1,0.6-0.3,1.3-0.4,1.9l-0.3,2.5c0,0.2,0,0.4-0.1,0.7c0,0.7-0.1,1.4-0.4,1.9
			c-0.3,0.4-0.7,0.6-1.3,0.6c-0.5,0-1.1-0.2-1.6-0.3c-0.2-0.1-0.4-0.1-0.6-0.2l-0.5-0.1c-1.4-0.4-2.2-0.7-1.8-2.8
			c0.2-1.4,0.5-2.9,0.7-4.3c0.3-2.2,0.7-4.4,1.1-6.5c0.4-1.8,0.8-3.9,0.9-5.9c0-0.4,0.1-0.7,0.2-1.1c0.1-0.4,0.2-0.7,0.2-1.1
			c0-0.3,0-0.4,0-0.4c0,0,0,0,0,0c-0.1,0-0.2,0-0.4-0.1c-0.1,0-0.4,0-0.8-0.1c-2-0.2-3.7-0.3-4.2-1c-0.2-0.2-0.2-0.4-0.2-0.7
			c0.1-0.4,0.1-0.7,0.2-1c0.1-0.5,0.2-0.9,0.3-1.4c0-0.1,0-0.2,0-0.4c0-0.5,0-1,0.2-1.4c0.3-0.5,0.8-0.8,1.6-0.8
			c0.7,0,1.5,0.2,2.1,0.4c0.4,0.1,0.7,0.2,0.9,0.2c1.1,0.2,2.1,0.4,3.1,0.7c0.6,0.1,1.2,0.3,1.8,0.4c0.7,0.1,1.4,0.2,2.1,0.3
			c1,0.1,2.1,0.2,3.1,0.5c0.2,0.1,0.5,0.1,0.7,0.1c0.9,0.1,2.1,0.3,2.1,1.9c0,0-0.1,3.8-1.4,4.4c-0.1,0-0.3,0.1-0.4,0.1
			c-0.3,0-0.7-0.1-1-0.2C203.6,236.5,203.4,236.5,203.3,236.5z M222.8,260.9c-0.1,0.1-0.3,0.1-0.5,0.1c-0.4,0-0.8-0.1-1.2-0.3
			c-0.3-0.1-0.6-0.2-0.8-0.2l-0.1,0c-0.1,0-0.3,0-0.4,0c-0.2,0-0.4,0-0.6,0c-0.4,0-0.8-0.1-1-0.3c-0.3-0.3-0.7-0.9-0.9-3.5
			c0-0.2,0-0.5-0.1-0.7c0-0.7-0.1-1.6-0.5-1.9c0,0-0.1,0-0.5,0l-0.5,0c-0.2,0-0.4,0-0.5,0c-0.7-0.1-1.5-0.2-2.3-0.3
			c-0.1,0-0.3,0-0.4,0c-0.6,0-0.6,0.2-0.9,1.2c-0.1,0.3-0.1,0.5-0.3,0.8c-0.1,0.2-0.1,0.5-0.2,0.8c-0.3,1.2-0.6,2.2-1.1,2.6
			c-0.3,0.3-0.6,0.4-0.9,0.4c-0.2,0-0.4-0.1-0.6-0.1c-0.1,0-0.2-0.1-0.4-0.1c-0.4-0.1-0.9-0.1-1.4-0.1c-0.3,0-0.7,0-1-0.1
			c-0.7-0.1-1.1-0.3-1.3-0.7c-0.3-0.6,0-1.3,0.3-2c0.1-0.2,0.2-0.4,0.3-0.7c0.3-0.8,0.6-1.7,0.8-2.5c0.3-1,0.7-2.1,1.1-3.2
			c0.2-0.7,0.5-1.4,0.8-2.1c0.9-2.4,1.8-4.8,2.5-7.2c0.1-0.3,0.2-0.5,0.3-0.8c0.2-0.3,0.3-0.6,0.4-1c0.2-0.9,0.5-1.7,0.9-2.6
			l0.2-0.4c0-0.1,0.1-0.4,0.2-0.7c0.5-2,0.9-3.4,1.8-3.4c0.6,0.1,1.1,0.1,1.6,0.1c0.8,0,1.7,0,2.5,0.2c1.7,0.4,1.8,2,1.9,3.3
			c0,0.3,0,0.6,0.1,0.9c0.2,1.2,0.4,2.3,0.6,3.5c0.4,2.3,0.8,4.6,1.1,7l0.3,1.6c0.5,2.9,1,6,1.4,9c0,0.2,0.1,0.5,0.2,0.8
			C223.7,259,224.1,260.4,222.8,260.9z M243.3,239.5c-0.2,0.1-0.4,0.2-0.7,0.2c-0.2,0-0.5,0-0.7-0.1c-0.1,0-0.3,0-0.4,0
			c-0.4,0-0.8,0.1-1.2,0.1c-0.4,0-0.8,0-1.2-0.1c-0.2,0-0.3,0-0.5,0c-0.4,0-0.5,0.1-0.5,0.1c-0.1,0.1-0.1,0.6-0.1,1
			c0,0.2,0,0.4,0,0.5c0,1.4,0,2.9-0.1,4.2c-0.1,1.8-0.1,3.7-0.1,5.5c0,1,0,1.9-0.1,2.8c0,0.7-0.1,1.3-0.1,2l0.1,2.5
			c0,0.2,0,0.4,0,0.7c0.1,0.7,0.1,1.4-0.1,1.9c-0.3,0.6-0.8,0.9-1.7,0.9c-0.4,0-0.8-0.1-1.2-0.1c-0.2,0-0.4-0.1-0.6-0.1l-0.5,0
			c-1.5-0.1-2.3-0.3-2.2-2.5c0-1.5,0-2.9,0-4.4c0-2.2,0-4.4,0.1-6.6c0.1-1.9,0.2-4,0-6c0-0.4,0-0.7,0-1.1c0-0.4,0.1-0.8,0-1.1
			c0-0.3-0.1-0.4-0.1-0.4c0,0-0.1,0-0.2,0c-0.1,0-0.2,0-0.2,0c-0.2,0-0.5,0-0.8,0.1c-0.6,0-1.5,0.1-2.2,0.1c-1.1,0-1.8-0.2-2.1-0.5
			c-0.2-0.2-0.3-0.4-0.3-0.6c0-0.4,0-0.7,0.1-1.1c0-0.5,0.1-0.9,0-1.4c0-0.1,0-0.2,0-0.4c-0.1-0.5-0.1-1,0-1.5
			c0.3-0.7,1-1.1,2.1-1.1c0.5,0,1,0.1,1.5,0.1c0.4,0,0.7,0.1,0.9,0.1c1.1,0,2.1,0.1,3.2,0.2c0.6,0,1.2,0.1,1.8,0.1
			c0.1,0,0.2,0,0.4,0c0.6,0,1.2,0,1.8-0.1c0.6,0,1.2-0.1,1.8-0.1c0.4,0,0.9,0,1.3,0.1c0.1,0,0.2,0,0.3,0c0.1,0,0.3,0,0.4,0
			c0.1,0,0.3,0,0.4,0c0.5,0,1.7,0,1.9,1.6C244,235,244.5,238.7,243.3,239.5z M264.2,259.5c-0.1,0.8-0.6,1.3-1.4,1.3
			c-0.1,0-0.3,0-0.5,0c-0.1,0-0.3,0-0.5,0c-0.3,0-1.4,0.1-2.6,0.3c-2.6,0.3-6.1,0.7-8,0.7c-0.7,0-1.7,0-1.8-0.7c-0.1-1-0.1-2-0.2-3
			c-0.1-1.7-0.2-3.4-0.3-4.9c-0.2-2-0.3-4-0.4-5.9c-0.1-1.2-0.2-2.4-0.3-3.7c-0.1-0.7-0.1-1.3-0.2-2c-0.1-1.6-0.2-3.2-0.3-4.9
			c0-0.2-0.1-0.5-0.1-0.8c-0.2-1-0.3-1.6,0-2c0.2-0.4,0.6-0.6,1.1-0.6c0.2,0,0.4,0,0.6,0.1c0.1,0,0.3,0,0.4,0l0.5,0
			c1.3,0,2.7-0.1,4-0.3c0.7-0.1,1.3-0.1,2-0.2c0.8-0.1,1.7-0.1,2.5-0.1l0.8,0c0.1,0,0.3,0,0.5-0.1c0.3-0.1,0.7-0.1,1-0.1
			c0.3,0,0.6,0.1,0.8,0.2c0.6,0.5,0.6,1.4,0.7,2.6c0,0.3,0,0.5,0,0.7c0,0.2,0,0.4,0.1,0.6c0.1,0.7,0.3,1.8-1,2.2
			c-0.3,0.1-0.8,0.2-1.4,0.2c-0.2,0-0.5,0-0.7,0c-0.2,0-0.4,0-0.6,0c-0.1,0-0.2,0-0.4,0c-1,0.1-2,0.2-3,0.2c0,0,0,0,0,0
			c-0.2,0-0.4,0-0.6-0.1c-0.2,0-0.4-0.1-0.5-0.1c-0.2,0-0.3,0-0.3,0.1c-0.2,0.2,0,1.5,0,2c0,0.2,0.1,0.4,0.1,0.5c0,0.1,0,0.3,0,0.5
			c0,0.5,0.1,1.4,0.2,1.8c0,0,0.1,0,0.1,0c0.4,0,1.1-0.1,1.6-0.2c0.2,0,0.5-0.1,0.6-0.1c0.3,0,0.6-0.1,0.8-0.1
			c0.6-0.1,1.2-0.2,1.8-0.2c0.2,0,0.4,0,0.6,0c1.3,0.2,1.3,1,1.3,1.7c0,0.2,0,0.3,0,0.5c0,0.2,0.1,0.4,0.1,0.7
			c0.2,0.9,0.4,1.8,0.1,2.5c-0.4,1-1.3,1-1.6,1c-0.1,0-0.2,0-0.4,0c-0.1,0-0.2,0-0.3,0l-0.2,0c-0.5,0-0.9,0.1-1.4,0.1
			c-0.3,0-0.6,0.1-0.9,0.1c-0.1,0-0.2,0-0.3,0c-0.2,0-0.3,0-0.5,0c-0.2,0-0.3,0-0.5,0c-0.3,0-0.5,0-0.7,0.1c-0.2,0.3,0,1.9,0.1,2.6
			c0.1,0.5,0.1,1,0.1,1.3c0,0.4,0.1,0.8,0.2,1.1c0.2,0,0.3,0,0.6,0c0.5,0,1.1,0,1.6-0.1l0.5,0c0.5,0,0.9-0.1,1.4-0.1
			c0.7,0,1.3-0.1,2.1-0.2c0.4-0.1,0.7-0.1,1-0.1c1.2,0,1.4,0.9,1.5,1.8c0,0.3,0.1,0.6,0.1,0.9C264.2,258,264.3,258.8,264.2,259.5z
			 M297.3,232.9c-0.3,0.3-0.9,0.4-1.3,0.4c-0.1,0-0.3,0-0.4,0c-0.7,0.2-1.4,0.4-2.3,0.5c-0.8,0.1-0.9,0.2-0.9,0.3
			c-0.1,0.1,0.1,0.6,0.2,1c0,0.2,0.1,0.3,0.1,0.5c0.3,1.4,0.6,2.8,0.8,4.2c0.3,1.8,0.7,3.6,1.1,5.4c0.2,0.9,0.4,1.9,0.5,2.8
			c0.1,0.6,0.2,1.3,0.3,1.9l0.7,2.4c0,0.2,0.1,0.4,0.2,0.7c0.2,0.6,0.5,1.4,0.3,1.9c-0.3,1.2-1.7,1.3-2.6,1.4c-0.2,0-0.4,0-0.6,0.1
			l-0.5,0.1c-0.4,0.1-0.7,0.1-1,0.1c-1.1,0-1.5-0.8-1.8-2c-0.3-1.4-0.6-2.9-1-4.3c-0.5-2.1-1-4.3-1.4-6.5c-0.3-1.9-0.7-4-1.3-5.8
			c-0.1-0.4-0.2-0.7-0.2-1.1c-0.1-0.4-0.1-0.8-0.2-1.1c-0.1-0.3-0.1-0.4-0.2-0.4c0,0-0.2,0.1-0.4,0.1c-0.1,0-0.4,0.1-0.8,0.2
			c-1,0.3-2.5,0.8-3.5,0.8c-0.9,0-1.1-0.5-1.2-0.7c-0.1-0.4-0.1-0.7-0.2-1c-0.1-0.5-0.1-0.9-0.3-1.4c0-0.1-0.1-0.2-0.1-0.4
			c-0.2-0.5-0.4-1-0.3-1.4c0.2-1.4,2-1.6,3.3-1.7c0.4,0,0.7-0.1,0.9-0.1c1-0.2,2.1-0.4,3.1-0.5c0.6-0.1,1.2-0.2,1.8-0.3
			c0.7-0.1,1.3-0.3,2.1-0.5c1-0.3,2-0.6,3-0.7c0.2,0,0.5-0.1,0.7-0.2c0.4-0.1,0.7-0.2,1.1-0.2c0.7,0,1.3,0.4,1.5,1.2
			C297,228.4,298.3,232,297.3,232.9z M322.7,248.9c-0.2,0-0.5,0.1-0.6,0.1c-0.1,0-0.3,0.1-0.5,0.2c-0.5,0.2-1,0.5-1.5,0.5
			c-0.4,0-0.8-0.2-1.1-0.5c-0.5-0.5-0.6-1.4-0.7-2.3c-0.1-0.4-0.1-0.7-0.2-1c-0.3-0.9-0.6-1.8-0.9-2.7c-0.2-0.5-0.3-0.9-0.5-1.4
			c-0.1-0.3-0.2-0.7-0.3-1.2c-0.1-0.6-0.2-1.4-0.4-1.6c0,0-0.1-0.1-0.2-0.1c-0.2,0-0.6,0.1-0.9,0.2c-0.2,0.1-0.3,0.1-0.5,0.2
			c-0.9,0.3-1.8,0.5-2.8,0.9c-0.6,0.2-0.7,0.3-0.7,0.3c0,0.1,0,0.3,0.2,0.9c0.5,1.4,0.9,2.8,1.3,4.2c0.2,0.6,0.3,1.2,0.5,1.8
			c0.1,0.3,0.2,0.6,0.3,1c0.3,0.7,0.6,1.4,0.6,2.1c0,1.2-1.2,1.4-1.9,1.6c-0.1,0-0.2,0-0.3,0.1c-0.1,0-0.3,0.1-0.5,0.2
			c-0.6,0.2-1.4,0.4-2,0.4c-0.3,0-0.6-0.1-0.7-0.2c-0.5-0.4-0.7-1.3-1-2.5c-0.1-0.2-0.1-0.5-0.1-0.6c-0.7-2.5-1.5-5.1-2.3-7.7
			c-0.4-1.1-0.7-2.2-1-3.4c-0.2-0.6-0.4-1.1-0.6-1.7c-0.2-0.5-0.4-1-0.5-1.4l-0.3-1.3c-0.4-1.7-0.9-3.3-1.5-4.9l-0.1-0.3
			c-0.3-0.8-0.8-2-0.1-2.7c0.5-0.6,1.5-0.7,2.4-0.8c0.3,0,0.6-0.1,0.8-0.1l0.3-0.1c0.3-0.1,0.6-0.2,0.9-0.2c0.8,0,1.2,0.7,1.4,1.3
			c0.3,0.8,0.5,1.7,0.7,2.5c0.1,0.5,0.3,1.1,0.4,1.6c0.2,0.6,0.4,1.3,0.5,1.9c0.2,0.6,0.3,1.3,0.5,1.9c0.2,0.7,0.4,0.7,0.4,0.7
			c0.1,0,0.4-0.1,0.7-0.2l0.3-0.1c0.7-0.2,1.3-0.4,2-0.7c0.2-0.1,0.5-0.1,0.7-0.2c0.4-0.1,0.9-0.2,1.2-0.3c0-0.3-0.2-0.8-0.3-1.2
			c-0.1-0.2-0.2-0.5-0.2-0.7l-1.3-4.3c-0.2-0.6-0.5-1.4-0.7-2.2c-0.1-0.2-0.1-0.4-0.1-0.6c0-0.1,0-0.3,0-0.3c0-0.1-0.1-0.4,0.1-0.7
			c0.6-0.8,3.6-1.5,4.6-1.5c0.4,0,0.6,0.1,0.7,0.2c0.4,0.3,0.7,1.3,0.9,2.4c0.1,0.2,0.1,0.5,0.1,0.6c0.1,0.5,0.3,1,0.5,1.5
			c0.3,0.9,0.6,1.8,0.8,2.7c0.5,2.3,1.3,4.8,2,6.8c0.3,1,0.6,2.1,1,3.2c0.2,0.7,0.4,1.4,0.6,2.1c0.2,0.6,0.4,1.2,0.6,1.8
			c0.1,0.3,0.2,0.6,0.3,0.9c0.2,0.5,0.3,0.9,0.4,1.4c0,0.2,0.1,0.4,0.1,0.7c0,0.1,0.1,0.3,0.2,0.4c0.2,0.4,0.4,0.8,0.4,1.2
			C324.7,248.6,323.5,248.8,322.7,248.9z M345.5,240.4c-0.3,0.4-1,0.6-2,0.8c-0.3,0.1-0.5,0.1-0.7,0.2c-0.2,0.1-0.7,0.3-1.4,0.6
			c-3.6,1.5-7.4,3.1-8.7,3.1c-0.5,0-0.7-0.3-0.7-0.4c-0.6-1.4-1.1-2.9-1.7-4.4c-0.9-2.4-1.8-4.9-2.9-7.2c-0.8-1.8-1.7-3.9-2.6-6.4
			c-0.5-1.3-0.9-2.4-1.4-3.6c-0.1-0.2-0.2-0.4-0.3-0.6c-0.5-1-1.2-2.2-0.8-3.2c0.5-1.1,2.2-1.4,3.5-1.7c0.5-0.1,0.9-0.2,1.2-0.3
			c1.2-0.5,2.5-1,3.7-1.4c0.8-0.3,1.6-0.6,2.5-0.9c0.1,0,0.3-0.1,0.4-0.2c0.3-0.2,0.7-0.4,1.2-0.4c0.2,0,0.4,0.1,0.7,0.2
			c0.6,0.3,0.9,1.1,1.1,1.8c0,0.1,0.1,0.3,0.1,0.4l0.2,0.6c0.4,1,0.7,1.7,0.3,2.4c-0.3,0.5-0.8,0.8-1.7,1.1c-1,0.3-1.8,0.6-2.8,1
			c-0.7,0.3-1.5,0.6-2.3,0.9c0,0-0.5,0.1-0.6,0.2c0,0.1,0,0.2,0.1,0.4c0.2,0.8,0.5,1.6,0.9,2.4c0.2,0.4,0.3,0.7,0.4,1
			c0,0,0.2,0.4,0.2,0.5c0.1,0,0.3-0.1,0.3-0.1c0.7-0.2,1.6-0.5,2.2-0.8c0.2-0.1,0.5-0.2,0.7-0.4c0.6-0.4,1.3-0.8,2-0.8h0
			c1.3,0,1.7,1,2,1.8l0.1,0.3c0.1,0.3,0.2,0.5,0.3,0.8c0.4,0.8,0.7,1.6,0.5,2.3c-0.2,0.4-0.5,0.7-1,1c-0.4,0.2-0.9,0.3-1.6,0.4
			c-1.1,0.3-3.2,0.8-3.3,1.5c-0.1,0.4,0.5,1.7,0.7,2.2c0.1,0.2,0.1,0.3,0.2,0.5c0.2,0.5,0.7,1.5,1,1.8c0.2,0,0.4-0.1,0.6-0.2
			c0.2-0.1,0.4-0.1,0.5-0.2c1.3-0.4,2.3-0.8,3.5-1.4c0.2-0.1,0.4-0.2,0.6-0.3c0.6-0.3,1.3-0.7,2-0.7c1.3,0,1.6,1.1,2,2
			c0,0.1,0.1,0.3,0.1,0.4c0.1,0.2,0.1,0.3,0.2,0.5C345.5,238.6,346,239.7,345.5,240.4z M379.3,221.4c-0.8,2.5-3.5,3.9-5.5,5l-0.1,0
			c-0.6,0.3-1.1,0.6-1.6,0.9c-0.5,0.3-1.1,0.6-1.7,0.9c-0.2,0.1-0.5,0.3-0.8,0.6c-0.9,0.6-1.9,1.4-2.7,1.4c-0.1,0-0.2,0-0.3,0
			c-0.9-0.3-1.5-1.7-2-2.8c-0.1-0.3-0.2-0.5-0.3-0.7c-0.8-1.5-1.7-2.9-2.6-4.4c-0.7-1.2-1.4-2.5-2.1-3.8c-0.8-1.5-1.7-3.1-2.6-4.6
			c-0.6-1-1.1-2-1.6-2.9l-0.5-0.9c-0.2-0.3-0.3-0.6-0.5-0.9c-0.2-0.3-0.3-0.6-0.5-0.9c-0.1-0.1-0.2-0.3-0.3-0.4
			c-0.3-0.4-0.7-1-0.6-1.6c0.2-0.8,1.4-1.4,2.4-1.8c0.3-0.1,0.5-0.2,0.6-0.3c0.5-0.3,1-0.6,1.5-0.8c1-0.6,2-1.1,3-1.7l0.5-0.3
			c1.1-0.7,2.4-1.4,3.8-1.6c0.2,0,0.4,0,0.6,0c4.2,0,5.9,2.7,8,5.9l0.2,0.3c1.4,2.2,3.1,4.8,4.2,7.4l0.3,0.7
			C379.2,216.4,380.2,218.6,379.3,221.4z M399.1,210.4c-0.1,0.1-0.3,0.1-0.4,0.2c-0.3,0.2-1.1,0.8-2.1,1.6c-4.5,3.5-6.9,5.3-7.8,5.3
			c-0.2,0-0.4-0.1-0.5-0.3c-0.5-0.8-1.1-1.7-1.6-2.5c-0.9-1.4-1.8-2.9-2.8-4.1c-1.2-1.6-2.3-3.3-3.3-4.9c-0.7-1-1.4-2-2.1-3
			c-0.4-0.5-0.8-1.1-1.2-1.6l-0.1-0.1c-0.9-1.3-1.8-2.6-2.6-4c-0.1-0.1-0.3-0.4-0.5-0.6c-0.6-0.7-1-1.3-1-1.7c0-0.8,0.8-1.1,1.3-1.4
			c0.1-0.1,0.3-0.1,0.4-0.2c1.3-0.7,2.5-1.6,3.6-2.5c0.5-0.4,1.1-0.8,1.6-1.2c0.7-0.5,1.4-0.9,2.1-1.4l0.7-0.4
			c0.1-0.1,0.2-0.2,0.4-0.3c0.4-0.4,1-0.9,1.5-0.9l0.1,0c0.7,0.1,1.3,0.9,1.9,2c0.1,0.2,0.3,0.4,0.4,0.6c0.1,0.2,0.2,0.3,0.3,0.5
			c0.5,0.6,1.1,1.4,0.2,2.4c-0.4,0.5-1.1,0.8-1.7,1.2c-0.3,0.2-0.6,0.3-0.8,0.5c-0.8,0.6-1.6,1.2-2.4,1.7c-0.1,0.1-0.4,0.2-0.6,0.3
			c-0.3,0.1-0.7,0.3-0.7,0.5c0,0.3,0.8,1.4,1,1.7c0.1,0.2,0.3,0.3,0.3,0.4c0.1,0.1,0.2,0.3,0.3,0.4c0.3,0.4,0.7,1.2,1.1,1.4
			c0.3-0.1,1-0.7,1.4-1c0.2-0.2,0.4-0.3,0.5-0.4c0.2-0.2,0.4-0.3,0.7-0.5c0.6-0.5,1.3-1,2-1.4c0.3-0.1,0.5-0.2,0.7-0.2
			c0.7,0,1,0.5,1.3,1c0.1,0.1,0.2,0.3,0.3,0.5c0.1,0.1,0.3,0.3,0.5,0.5c0.6,0.7,1.2,1.4,1.3,2.1c0.2,1.1-0.6,1.5-1.2,1.8
			c-0.1,0.1-0.2,0.1-0.3,0.2c-0.5,0.3-0.9,0.6-1.2,0.9c-0.2,0.2-0.4,0.4-0.7,0.5c-0.2,0.1-0.4,0.3-0.7,0.4c-0.4,0.2-0.8,0.4-1,0.7
			c0,0.3,1,1.6,1.4,2.2c0.3,0.4,0.6,0.8,0.7,1c0.2,0.4,0.5,0.7,0.7,0.9c0.5-0.2,1.3-0.8,1.8-1.2l0.4-0.3c0.4-0.3,0.8-0.5,1.1-0.8
			c0.6-0.4,1.1-0.8,1.7-1.3c0.6-0.5,1-0.8,1.5-0.8c0.6,0,1.1,0.5,1.4,1c0.2,0.2,0.3,0.5,0.5,0.7c0.5,0.6,0.9,1.3,1.2,1.9
			C400.6,209.6,399.7,210.1,399.1,210.4z M414.4,198.5c-0.3,0.6-1.1,1.2-1.8,1.7c-0.2,0.1-0.3,0.2-0.5,0.4c-0.6,0.5-1.2,0.7-1.7,0.7
			c-0.9,0-1.7-0.6-2.5-1.4l-0.3-0.3c-2-1.7-4.1-3.3-6.2-4.8c-0.9-0.6-1.8-1.3-2.7-2c-1.3-0.9-2.5-2-3.8-3c-1.6-1.3-3.3-2.7-5-3.9
			c-0.9-0.6-1.6-1.1-1.6-1.8c0-0.6,0.5-1.2,0.9-1.5c0.2-0.1,0.3-0.2,0.4-0.4c0.8-0.7,1.6-1.4,2.7-1.4c0.5,0,0.9,0.1,1.4,0.4
			c0.9,0.6,1.7,1.2,2.4,1.9c0.6,0.5,1.2,1.1,1.9,1.5l4.1,3.2c0.1,0.1,0.3,0.2,0.5,0.4c1.3,1.1,2.2,1.8,2.9,2.3
			c-0.4-0.8-0.9-1.8-1.1-2.3c-0.2-0.3-0.3-0.6-0.3-0.7c-0.3-0.7-0.6-1.3-0.9-2c-0.6-1.3-1.2-2.7-1.8-4c-0.5-1-1-2.1-1.6-3.1
			c0,0-1-2.2-1.1-2.8l0,0c-0.1-1.1,1.3-1.9,2.3-2.6c0.3-0.2,0.5-0.3,0.6-0.4c0.1-0.1,0.2-0.2,0.3-0.2c0.2-0.2,0.4-0.4,0.8-0.4
			c0.2,0,0.4,0.1,0.7,0.2c0.6,0.4,1,1.4,1.4,2.3l0.1,0.2c1,2.5,2.1,5,3.2,7.4c0.5,1.1,1,2.3,1.5,3.4c0.6,1.3,1.2,2.5,1.8,3.8
			c1.1,2.3,2.2,4.6,3.2,7c0.1,0.1,0.1,0.3,0.2,0.4C414.8,197.4,414.9,197.7,414.4,198.5z M427,187.7c-0.2,0.2-0.5,0.4-0.6,0.5
			l-0.1,0.1c-0.5,0.6-1.2,1.3-1.8,1.3c-0.3,0-0.5-0.1-0.7-0.3l-4.1-4.5c-0.6-0.7-1.2-1.4-1.8-2.1c-0.8-1-1.7-2.1-2.7-3
			c-1.6-1.6-3.1-3.2-4.4-4.8l-0.1-0.1c-0.7-0.9-1.5-1.7-2.2-2.6c-0.1-0.1-0.3-0.3-0.6-0.5c-1-0.9-1.8-1.7-2-2.4
			c-0.2-0.9,0.6-1.5,1.2-1.9c0.2-0.1,0.3-0.2,0.4-0.3c0.1-0.1,0.3-0.3,0.4-0.5c0.5-0.6,1-1.3,1.8-1.3c1,0,1.7,1,2.1,1.6l0.1,0.1
			c0.6,0.8,1.3,1.5,2.1,2.3c2,2,3.9,4.2,5.7,6.3c1.3,1.6,2.7,3.2,4.1,4.7c0.5,0.5,0.9,1.1,1.4,1.6c0.5,0.6,1,1.2,1.5,1.8
			c0.1,0.1,0.2,0.2,0.4,0.3c0.8,0.7,1.3,1.3,1.3,1.9C428.6,186.5,427.9,187,427,187.7z M442.3,172.7c-1.6,2.5-4.8,5.4-8.5,5.4
			c-0.8,0-1.6-0.1-2.3-0.4c-1.9-0.7-3.6-2.3-4.7-3.5c-1.3-1.5-2.8-2.9-4.2-4.2l-1.1-1c-2.9-2.8-6.4-7-3.8-11.3
			c2.6-4.4,5.6-6.6,8.9-6.6c0.6,0,1.2,0.1,1.8,0.2c1.5,0.4,3.6,1.5,4.7,2.9c0.3,0.4,0.5,0.9,0.4,1.4c-0.2,1.2-1.5,2.4-2.7,3.2
			c-0.3,0.3-0.6,0.4-0.9,0.4c-0.3,0-0.6-0.2-1-0.4c-0.2-0.1-0.4-0.2-0.5-0.4c-0.5-0.4-0.8-0.5-1.3-0.5c-0.1,0-0.2,0-0.4,0
			c-1.5,0.2-3.2,1.9-3.1,3.5c0.2,1.5,1.6,2.9,2.9,4c0.3,0.3,0.6,0.6,0.9,0.9c0.4,0.4,0.8,0.8,1.3,1.3c1.3,1.4,2.8,2.9,4.3,3.5
			c0.3,0.1,0.6,0.2,0.9,0.2c1.3,0,2.3-1.1,2.7-2c0.9-1.7-0.4-3.3-2.2-5c-0.2-0.2-0.3-0.4-0.3-0.7c0-0.7,0.9-1.6,1.8-2.4
			c0.2-0.1,0.3-0.2,0.3-0.3c0.1-0.1,0.2-0.2,0.3-0.3c0.3-0.3,0.7-0.8,1.3-0.8c0.2,0,0.3,0,0.5,0.1c0.7,0.2,1.2,0.9,1.6,1.4
			c0.1,0.1,0.2,0.3,0.3,0.4C444,165.4,444.6,169.1,442.3,172.7z M459.2,152.6c-0.1,0.1-0.2,0.2-0.3,0.3c-0.2,0.2-0.8,1.1-1.5,2.1
			c-4.1,5.8-5.4,7.3-6.2,7.3H451l-0.2-0.1c-0.7-0.6-1.5-1.3-2.3-2c-1.3-1.1-2.6-2.3-3.8-3.2c-1.6-1.2-3.2-2.6-4.6-3.8
			c-0.9-0.8-1.9-1.5-2.9-2.3c-0.5-0.4-1.1-0.8-1.6-1.2c-1.3-1.1-2.5-2.1-3.7-3.2c-0.1-0.1-0.4-0.3-0.6-0.5c-0.8-0.5-1.3-0.9-1.5-1.4
			c-0.2-0.8,0.4-1.3,0.8-1.7c0.1-0.1,0.2-0.2,0.3-0.3c1-1.1,1.9-2.3,2.8-3.4c0.4-0.5,0.8-1.1,1.2-1.6c0.5-0.7,1.1-1.3,1.6-1.9
			l0.5-0.6c0.1-0.1,0.2-0.2,0.3-0.4c0.3-0.6,0.7-1.2,1.3-1.3l0,0l0.1,0c0.7,0,1.4,0.6,2.2,1.4c0.2,0.2,0.4,0.4,0.5,0.4
			c0.2,0.1,0.3,0.2,0.5,0.3c0.6,0.4,1.5,1.1,0.9,2.2c-0.3,0.6-0.8,1.1-1.3,1.6c-0.2,0.2-0.5,0.5-0.6,0.7c-0.6,0.8-1.2,1.6-1.8,2.3
			c-0.1,0.1-0.3,0.3-0.5,0.4c-0.3,0.2-0.6,0.5-0.6,0.7c0,0.3,1.1,1.1,1.4,1.4c0.2,0.1,0.3,0.2,0.4,0.3c0.1,0.1,0.2,0.2,0.4,0.3
			c0.4,0.3,1,0.9,1.4,1c0.3-0.2,0.8-1,1-1.4c0.1-0.2,0.3-0.4,0.4-0.5c0.2-0.2,0.3-0.5,0.5-0.7c0.5-0.7,0.9-1.3,1.6-1.9
			c0.3-0.3,0.6-0.4,1-0.4c0.5,0,0.8,0.3,1.2,0.7c0.1,0.1,0.2,0.2,0.4,0.4c0.1,0.1,0.4,0.2,0.6,0.4c0.7,0.5,1.6,1,1.8,1.6
			c0.5,1-0.2,1.7-0.6,2.1c-0.1,0.1-0.2,0.2-0.2,0.2c-0.4,0.4-0.7,0.8-0.9,1.2c-0.2,0.2-0.3,0.5-0.5,0.7c-0.2,0.2-0.3,0.4-0.5,0.6
			c-0.3,0.3-0.6,0.6-0.8,0.9c0,0.3,1.4,1.3,1.9,1.7c0.4,0.3,0.8,0.6,1,0.8c0.3,0.3,0.6,0.5,0.9,0.6c0.4-0.4,1-1.1,1.4-1.6l0.3-0.4
			c0.3-0.4,0.6-0.7,0.8-1.1c0.4-0.5,0.8-1,1.3-1.7c0.4-0.7,0.9-1.3,1.6-1.3c0.4,0,0.8,0.2,1.3,0.6c0.2,0.2,0.4,0.4,0.7,0.5
			c0.6,0.5,1.2,1,1.7,1.5C460.5,151.4,459.7,152.1,459.2,152.6z"/>
	</g>
</g>
</svg>
