<svg version="1" xmlns="http://www.w3.org/2000/svg" viewBox="0 0 483 284"><style>.st0{fill:#fff}</style><path class="st0" d="M152 223l-1 1-1 4-1 2 2 1h1l2-4h1v-3l-3-1zM177 231l-2-1-2 1-2 4v1l-1 2v3 4l3 1h1l2-4v-1l1-3 1-3-1-4zM190 187h103c13 0 24-10 23-23-8-66-12-77-21-145-1-11-10-18-22-19h-62c-12 1-21 8-23 20-9 65-13 79-21 144 0 13 10 23 23 23zm52-11c-7 0-12-5-12-10s5-10 11-10c7 0 12 4 12 10s-5 10-11 10zm-59-39l18-117c1-6 5-10 9-10h64c4 0 8 4 9 9l16 118c1 6-3 10-9 10h-97c-6 0-10-4-10-10zM119 207h-1c-2 0-2 2-3 3l-1 1-1 2-1 3c-1 0-2 2-1 4l3 2h1l3-3v-1l2-3 1-3v-4l-2-1zM58 157l-1 1-1 1a26 26 0 0 1-3 3h-1v1l2 2h2l3-3 1-2-2-3zM216 245l-1-2-1 5h2v-2-1zM368 208l-3-2-3 1v1h-1l1 2 1 3h1l3 6v1l2 2 1-1 2-2v-4l-4-7z"/><path class="st0" d="M479 147l-3-23-1-6v-6l-1-5-1-3v-3l-3 1h-3l-5 1-6 1-5 1a1677 1677 0 0 1-67 7l20 16-5 6-4 5-4 5-4 4-9 9-5 4-4 4-10 8-5 3-6 4-5 3-3 1-1 1-1 1a199 199 0 0 1-96 22 217 217 0 0 1-96-22l-2-1-1-1-3-1-5-3-5-4-6-3-9-8-5-4-5-4-9-9-4-4-4-5-4-5-5-6 20-16a3366 3366 0 0 1-66-7l-6-1-5-1-6-1h-3l-2-1-1 3-1 3v5l-1 6-1 6-3 23-4 45 20-16 5 6 5 6 5 7 6 6 12 12 7 6 7 5 13 11 7 5 8 5 7 4 4 2 2 1 2 1a270 270 0 0 0 131 32 287 287 0 0 0 132-32l2-1 2-1 4-2 7-4 7-5 8-5 13-11 7-5 7-6 12-12 6-6 5-7 5-6 5-6 20 16-4-45zm-444 7l-2 2v1l-2 1-2-2v-1h-1c-1-1-1-2 1-3l3-3 5-4 5-4h1l1-1v-1h-1l-2-4v-1h1l1-1 1-1h1l2 2 1 1 2 3 1 1 1 2a24 24 0 0 1 3 3v2c0 1-2 3-4 3l-1-1v-1l-2-1v-1h-1l-1 1-3 2-4 4-2 1-2 1zm18 18v1l-1 1-1 4-2 1-1-1-1-1-1-1-1-1 1-3 1-2 1-2v-1h-1l-1 1-1 1h-1l-1 1-1 1-1-1-1-1-2-2 1-1 1-1 1-1 2-2 2-1 3-3 3-4 4-3v-1l2-1h1l2 1v1l4 3c3 4 3 8 0 11l-4 3-6 3-1 1zm30 4a290 290 0 0 0-12 6l-2 2-1 1-2 2-1 1-1 1-2 2h-1l-1-1v-1h-1l-1-2 1-2 1-1 1-1 2-2 1-2 2-2 2-4 1-5 1-2 1-2 1-1 1 1 1 1 2 2-1 4-1 1v1h2l4-2 2 1v1h1l1 1c1 1-1 2-1 2zm20 22l-2 4-3 4-2 2-1 2-1 2-1 1-1 1-1 1-2-2h-1v-4l2-3 4-6 3-4 1-1v-1l1-1h-1l-4-3v-1h1l1-2 1-1 3 1 1 1 2 2 2 1 2 1 2 2h1c1 0 2 1 1 3l-3 3-1-1h-1l-2-1v-1l-1 1zm24 17l-1 1-1 2-1 2-2 4c-2 3-4 4-7 4v1l-5-2c-4-2-5-4-6-7l2-7 2-3 2-4 1-1c1-2 2-4 5-5h2l6 2c2 1 4 3 5 6l-2 7zm33 15v1c-1 3-3 6-6 6v3a8 8 0 0 0 0 2v4h-1-1l-1-1h-2l-1-4v-1-1-3h-1l-1 2v1l-2 3h-2-1l-1-1v-4l2-6 2-5a105 105 0 0 1 3-8v-1l1-2h3l4 2h1l4 3c2 3 1 7 0 10zm24 6v1l-1 2v2l-2 6c-1 3-3 5-5 5h-6c-3-1-6-3-6-5v-7l1-4 1-5 4-7 3-1 5 1 6 5v7zm19 1l-2-1h-1v2l-1 4-1 5v3l-1 2v3l-1 2h-4c-1-1-2-1-2-3l1-4a126 126 0 0 1 2-13v-1l1-1h-1-1l-4-1v-1-1-2l1-1 1-1h3l3 1 2 1h6l2 2-1 5h-1-1c1 0 0 0 0 0zm20 24h-1-1l-1-1v1h-1l-1-1-1-3v-1-2h-1-1-2l-1 1-1 1v1l-1 2-1 1-1-1h-2l-2-1 1-2 1-3 1-3 1-2 2-7 1-1v-1l1-3v-1l2-3h4c2 1 2 2 2 3v1l1 4 1 7v1l2 9v1l-1 3zm20-21h-3-2v21l-2 1h-1l-1-1c-2 0-3 0-3-2v-4l1-7v-6-1-1l-1-1h-1l-2 1-2-1v-1-1-1-2l2-1h14l2 2s1 4-1 5zm21 20l-1 1h-1-3l-8 1-2-1v-3-5l-1-6v-3-2-5-3l1-1h13v3l1 1-1 2h-2-1-1-3-1v5h3l2-1h1l1 2v4l-1 1h-3-1-1v5h7l2 1v4zm33-27h-1l-3 1h-1l1 1v1l1 4a103 103 0 0 0 1 8v2l1 2v1l1 2-3 1h-1v1h-1l-2-2-1-5a124 124 0 0 1-3-12v-1-1-1l-1 1-4 1-1-1v-1l-1-2v-1c0-2 2-2 3-2h1l3-1h4l3-1h1l1-1 2 2v4zm26 16h-1l-2 1-1-1-1-2v-1l-1-3v-1l-1-1v-2h-1-1l-2 1h-1v1l1 5 1 1v1l1 3-2 1h-1l-2 1h-1l-1-3v-1l-2-7-1-4-1-1v-3l-2-5v-3l2-1h2l2 1v3l1 1v2l1 2v1h1l2-1h1l1-1v-1-1l-2-4v-2l-1-1 1-1 4-1h1l1 2v3l1 2 2 7 1 3 1 2v2l1 1v3l1 1-2 1zm23-9l-2 1h-1l-2 1-8 3h-1l-2-5c-1-2-1-5-3-7l-2-6-2-4v-1l-1-3 4-1 1-1 4-1 2-1h1l1-1 1 1 1 1v4l-1 1-3 1-3 1 1 3v1h1l2-1h1l2-1 2 2v1l1 2-1 1-2 1-3 1v3l1 2h1l1-1 3-1h1l2-1 2 2v1l1 2zm33-19c0 3-3 4-5 5l-2 1-2 1v1l-3 1c-1 0-2-1-2-3h-1l-2-5-2-3-3-5-2-3v-1l-1-1v-1l-1-2 2-2h1l1-1 3-1 1-1 4-1c5 0 6 2 8 6h1l4 7v1c1 2 2 5 1 7zm20-11v1l-2 1-8 5h-1l-1-2-3-4-3-5-3-3-1-2-2-4-1-1-1-1 1-2h1l3-2 2-2 2-1h1v-1l2-1 2 2v2l1 2-2 1-1 1-2 1-1 1h-1l1 2h1v1l1 1 1-1h1l1-1 2-1v-1l2 2v1l2 2-1 1-1 1h-1l-1 1-1 1 1 2 1 1v1l2-1h1l1-1 1-1 2-1 1 1h1l1 2c1 2 0 2-1 2zm15-11l-1 1-1 1h-2l-2-1-7-5-2-2-4-3-5-4-2-2 1-1 1-1 2-1h2l2 2 2 2 4 3h1l2 2-1-2v-1l-1-2-2-4-1-3-1-2c0-2 1-2 2-3h1v-1h1l2 2v1l3 7 2 3 1 4 4 7v1l-1 2zm13-11h-1l-2 2v-1l-4-4-2-2-3-3-4-5-3-3-2-3 1-2h1l2-2 2 2 2 2a112 112 0 0 1 10 11l1 2 2 2 1 2c1 1 0 1-1 2zm15-15c-1 2-4 5-8 5h-2l-5-4-4-4-1-1c-3-3-7-7-4-11 2-5 5-7 9-7h1l5 3v2l-2 3h-1-1l-1-1h-1c-2 0-4 2-3 3l2 4 1 1 2 2 4 3h1l3-2-3-5 2-3 2-1 2 1v1c4 3 5 7 2 11zm17-20l-2 2-6 7-2-2-4-3-5-4-3-2-1-1-4-3-1-1-1-1 1-2 3-4 1-1 1-2 1-1 2-2 2 2 1 1 1 2-1 1-1 1-2 2v1h-1l1 2h1l2 1 1-1v-1l2-2h2l1 1 2 2c1 1 0 1-1 2l-1 1v1h-1v1l1 2 1 1h1l2-1v-1l1-1 1-1 2-2 1 1h1l1 2c2 1 1 2 0 3z"/></svg>