<?xml version="1.0" encoding="utf-8"?>
<!-- Generator: Adobe Illustrator 23.0.3, SVG Export Plug-In . SVG Version: 6.00 Build 0)  -->
<svg version="1.1" id="Layer_1" xmlns="http://www.w3.org/2000/svg" xmlns:xlink="http://www.w3.org/1999/xlink" x="0px" y="0px"
	 viewBox="0 0 495 408" style="enable-background:new 0 0 495 408;" xml:space="preserve">
<g>
	<path d="M427.8,102H313.2c-16.1,0-29.2,13.1-29.2,29.2v247.6c0,16.1,13.1,29.2,29.2,29.2h114.6c16.1,0,29.2-13.1,29.2-29.2V131.2
		C457,115.1,443.9,102,427.8,102z M370.5,394c-7.2,0-13-5.8-13-13s5.8-13,13-13s13,5.8,13,13S377.7,394,370.5,394z M440,344.8
		c0,6.7-5.5,12.2-12.2,12.2H313.2c-6.7,0-12.2-5.5-12.2-12.2V131.2c0-6.7,5.5-12.2,12.2-12.2h114.6c6.7,0,12.2,5.5,12.2,12.2V344.8z
		 M7.2,386.9c-1.9-0.2-3.7-0.7-5.6-0.9c-0.6-0.1-1.1,0-1.5-0.5c-0.5-0.7,0.1-2.6,0.2-3.4c0.3-1.6,0.7-3.2,0.9-4.8l0.3-3
		c0.1-0.8,0.2-2.8,0.7-3.5c0.4-0.6,1.9,0,3,0.2c0.6,0.1,1.6,0.1,2,0.7c0.4,0.7-0.2,2.1-0.3,2.8c-0.3,1.8-0.6,3.6-0.9,5.3
		c-0.3,2,1.8,1.7,3.2,2c0.6,0.1,2.2,0.1,2.5-0.2c0.4-0.3,0.2-1.4,0.6-2.9c0.4-1.8,0.3-4,0.7-4.2c0.5-0.2,1.2-0.1,1.7,0
		c0.8,0.2,2.2,0.3,2.9,0.5c0.7,0.2,0,2.4-0.1,3.6c-0.2,1.1-0.6,3.6-0.1,3.9c0.7,0.3,2.4,0.3,3.1,0.4c1,0.1,2,0.2,2.9,0.4
		c1,0.1,1.9,0.4,3,0.6c0.5,0.1,1.8-0.1,2.1,0.3c0.5,0.5,0.1,1.5,0,2.1c-0.2,1.1-0.2,2.1-0.4,3.2C28,390.2,9.3,387.1,7.2,386.9z
		 M17.4,346.3c1.5,0.3,3,0.8,4.6,1c1.8,0.3,3.7,0.7,5.5,1.2c2.9,0.7,5.3,2.3,6.1,5.3c0.5,2.1,0.1,4.2-0.2,6.2
		c-0.5,2.7-1.7,5.8-4.2,7.2c-2.2,1.2-4.9,0.7-7.2,0.2c-3.1-0.7-6.3-1.1-9.3-1.8c-2.6-0.7-5.6-1.3-7.2-3.8c-1.7-2.6-1-6-0.4-8.8
		c0.5-2.3,2-5.3,3.8-6.5C11.3,345,14.7,345.9,17.4,346.3z M10.9,353.5C10,355,10,357,11,358.4c1.1,1.6,3.5,1.8,5.3,2.1
		c2,0.4,4,0.8,5.9,1.3c1.6,0.3,3.6,0.3,4.7-1.1c0.9-1.2,1.3-3.5,0.6-4.9c-0.9-1.8-3.5-2-5.2-2.5c-2.3-0.5-4.5-0.7-6.7-1.2
		C13.7,351.7,12.1,351.7,10.9,353.5z M36.7,327.6c0.8-0.2,3.4-1,3.8,0c0.2,0.5-0.5,1.9-0.6,2.4c-0.1,0.7,0,1.6-0.4,2.3
		c-0.6,1.1-3,1-4.1,1.2c-1.1,0.2-3.6,0.1-4.5,1c-1.4,1.7,1.1,2.2,2.1,2.5c1,0.3,4.2,0.6,4.5,1.7c0.1,0.5-0.3,1.4-0.4,1.8
		c-0.2,0.7-0.3,1.8-0.7,2.5c-0.7,1.2-2.7,0.3-3.8-0.1l-6.1-1.7c-3.5-1.1-7.3-2-10.9-3.1c-1.5-0.5-3-0.8-4.5-1.1
		c-0.5-0.1-1.5-0.2-1.8-0.5c-0.4-0.6,0-1.4,0.2-2c0.4-1.8,0.8-3.7,1.3-5.4c0.5-1.9,1-4,2.5-5.4c2.6-2.5,6.5-1.9,9.6-1
		c3.5,1,7.9,1.7,8.7,6.1c0.8,0.1,1.7-0.3,2.4-0.5C34.9,327.9,35.8,327.8,36.7,327.6z M16.1,331.5c-0.1,1.3,0.4,1.5,1.6,1.8
		c1.5,0.3,3.1,0.7,4.6,1.2c0.5,0.1,2.3,0.6,2.8,0.3c0.5-0.3,0.7-2.2,0.8-2.8c0.6-3.1-2.9-3.7-5.2-4.3
		C17.8,327,16.4,328.8,16.1,331.5z M42,277.3c4.2,1.4,8.1,3.5,12.3,4.8c0.7,0.2,1.6,0.4,1.9,1.2c0.2,0.9-0.8,1.8-1,2.6
		c-0.4,1.1-0.1,1.8-1.4,1.8c-1,0-2.3-0.9-3.2-1.2c-2-0.9-4-1.7-6.1-2.4c-1.1-0.4-2.3-0.9-3.4-1.3c-0.1,0-1.6-0.6-1.8-0.7
		c0.3,0.3,8.1,6.4,8.9,6.9c1.2,0.8,3.1,2,4,3.1c0.6,0.8,0,3.3-1,3.8c-1.3,0.7-16.8-2.1-16.9-1.5c0,0.3,4.9,1.9,5.5,2.1
		c2,0.8,4,1.6,6,2.3c1.3,0.5,4,0.8,3.5,2.5c-0.2,0.8-0.7,1.6-0.9,2.3c-0.1,0.5-0.2,1.5-0.7,1.7c-0.4,0.1-1.3-0.4-1.6-0.5l-3.3-1.3
		c-3.7-1.5-7.3-2.9-11-4.2c-1.9-0.7-3.9-1.4-5.8-2.2c-0.9-0.4-1.8-0.8-2.6-1.2c-0.3-0.1-1.8-0.3-2-0.7c-0.3-0.5,0.6-1.8,0.8-2.2
		c0.2-0.6,0.2-1.2,0.4-1.9c0.6-1.7,1.3-2.1,3-1.9c2,0.3,4.1,0.2,6.2,0.4c2.1,0.2,4.1,0.5,6.2,0.6c0.8,0,2.6,0.2,3.2,0.2
		c1.1,0.1,0.8-0.1,0.4-0.4c-1.4-1-1.7-1.3-2.1-1.6c-3.3-2.6-6.6-5.3-10-7.9c-1.8-1.4-2-2-1-4.1c0.2-0.4,1.2-3.6,1.7-3.4
		C34.1,274.5,38,276,42,277.3z M51.6,250.8c1.4,0.6,2.8,1.4,4.2,2.1c1.7,0.7,3.4,1.6,5,2.4c2.7,1.3,4.6,3.5,4.7,6.6
		c0,2.2-0.9,4.2-1.7,5.9c-1.2,2.5-3,5.3-5.8,6c-2.4,0.6-4.9-0.5-7.1-1.5c-2.8-1.4-5.9-2.5-8.6-3.9c-2.4-1.3-5.1-2.6-6.1-5.4
		c-1-2.9,0.4-6.1,1.7-8.7c1-2.1,3.2-4.7,5.2-5.4C46,248,49.1,249.7,51.6,250.8z M43.6,256.2c-1.2,1.2-1.7,3.1-1,4.7
		c0.7,1.8,3,2.6,4.7,3.3c1.8,0.9,3.6,1.8,5.5,2.6c1.4,0.7,3.5,1.1,4.8,0c1.2-1,2.1-3.1,1.8-4.6c-0.4-2-3-2.8-4.5-3.6
		c-2.1-1-4.2-1.8-6.3-2.7C46.7,255.1,45.2,254.7,43.6,256.2z M74.8,237.1c0.9,0,3.5-0.2,3.7,0.9c0.1,0.5-0.9,1.8-1.1,2.2
		c-0.3,0.6-0.4,1.6-0.9,2.1c-0.9,0.9-3.2,0.2-4.3,0.2c-1.2,0-3.6-0.8-4.6,0c-1.8,1.3,0.6,2.4,1.5,2.9s3.9,1.6,4,2.7
		c0,0.5-0.6,1.3-0.8,1.7c-0.4,0.7-0.7,1.7-1.2,2.2c-0.9,1-2.6-0.4-3.7-1l-5.5-3.1c-3.2-1.9-6.6-3.6-9.9-5.5
		c-1.4-0.8-2.8-1.5-4.2-2.2c-0.4-0.2-1.4-0.5-1.6-0.9c-0.3-0.6,0.4-1.4,0.7-1.9c0.8-1.7,1.6-3.4,2.6-5c1-1.7,1.9-3.7,3.7-4.7
		c3.1-1.8,6.7-0.3,9.6,1.3c3.2,1.8,7.3,3.5,7,7.9c0.7,0.3,1.7,0.1,2.5,0.1C73,236.9,73.9,237.1,74.8,237.1z M53.8,236
		c-0.5,1.3,0.1,1.6,1.1,2.1c1.4,0.6,2.8,1.4,4.2,2.3c0.4,0.2,2.1,1.1,2.6,1c0.6-0.1,1.2-1.9,1.5-2.5c1.3-2.9-1.9-4.2-4.1-5.4
		C56.6,232,54.7,233.5,53.8,236z M75.4,227.2c-1.8-1-3.5-2.1-5.3-3.3c-1.6-1.1-3.4-2-5.1-3c-1.5-0.9-2.9-1.8-4.3-2.7
		c-0.5-0.3-2.1-0.9-2.3-1.4c-0.3-0.6,0.7-1.3,1-1.8c1.4-1.9,2.5-4.1,3.7-6.1c0.6-1.1,1.3-2.1,2-3.1c0.3-0.5,0.7-1.7,1.2-1.9
		c0.8-0.2,2.2,1.1,2.8,1.4c0.8,0.5,1.9,0.7,1.5,1.8c-0.3,0.9-1.3,2-1.8,2.8c-0.6,1-1.1,1.9-1.7,2.8c-0.3,0.5-1.2,1.1-1.1,1.8
		c0.2,0.7,1.9,1.5,2.4,1.8c0.6,0.4,1.7,1.3,2.5,1.2c0.4,0,1.2-1.9,1.6-2.6c0.6-1,1.1-2.2,1.8-3.1c0.8-0.9,1.2-0.2,2.1,0.3
		c0.7,0.4,2.2,0.9,2.6,1.6c0.5,0.8-0.2,1.4-0.6,2.1c-0.6,0.8-0.9,1.6-1.3,2.4c-0.4,0.6-1,1.3-1.3,2c-0.3,0.9,2.8,2.2,3.6,2.8
		c0.7,0.5,1.3,0.6,1.6,0.6c0.6-0.6,1.5-2.1,1.9-2.8c0.7-1.3,1.4-2.1,2-3.4c0.7-1.3,1-1.7,2.3-1c0.8,0.5,2,1.1,2.7,1.7
		c0.9,0.8,0,1.4-0.5,2.2c-0.8,1.1-6.1,11.8-6.9,11.3C80.2,230.3,77.7,228.5,75.4,227.2z M86.7,187.4c-1.5-1.1-2.9-2.4-4.5-3.4
		c-0.4-0.3-1-0.5-1.1-1.2c-0.1-0.9,1.3-2.2,1.8-2.9c1.1-1.3,2.1-2.5,3.1-3.8l1.7-2.5c0.5-0.7,1.5-2.3,2.3-2.7
		c0.6-0.3,1.7,0.9,2.6,1.6c0.5,0.4,1.4,0.8,1.4,1.6c0,0.8-1.2,1.8-1.6,2.3c-1.1,1.4-2.3,2.8-3.3,4.2c-1.3,1.6,0.7,2.4,1.8,3.3
		c0.5,0.4,1.8,1.2,2.3,1.1c0.5-0.1,0.9-1.1,1.9-2.3c1.2-1.4,2.2-3.4,2.7-3.4c0.5,0,1.1,0.5,1.5,0.8c0.6,0.5,1.8,1.3,2.3,1.9
		c0.5,0.6-1.1,2.2-1.9,3.1c-0.6,0.9-2.2,2.9-2,3.4c0.4,0.6,2,1.4,2.5,1.8c0.8,0.6,1.6,1.2,2.4,1.8c0.8,0.6,1.5,1.3,2.4,1.9
		c0.4,0.3,1.6,0.7,1.7,1.2c0.2,0.7-0.6,1.3-1,1.8c-0.7,0.8-1.2,1.8-1.9,2.6C103.4,200.3,88.4,188.6,86.7,187.4z M105.7,151.3
		c0.6-0.8,0.9-1.4,1.9-0.9c1,0.6,1.7,1.8,2.6,2.5c2.3,1.8,5.1,4,7.4,6.1c3,2.8,8.6,5.6,8.2,10.6c-0.4,4.4-4.8,9.9-9.2,10.7
		c-4.8,0.8-9.1-3.9-12.3-6.8c-1.6-1.5-3.3-3-5-4.4c-0.7-0.6-1.5-1.1-2.2-1.8c-0.6-0.6-2.2-1.4-2.4-2.3c-0.1-0.6,0.5-1.1,0.8-1.5
		c0.5-0.6,1.1-1.7,1.8-2.3c1.3-1,4.2,2.3,5.2,3.1c1.8,1.6,3.5,3.1,5.4,4.5c2.1,1.6,3.7,4.2,6.4,4.9c2.4,0.6,5.2-1.8,5-4.3
		c-0.2-2.4-2.8-4.2-4.6-5.4c-4-2.9-7.4-6.4-11-9.5C103,154.2,105.3,151.8,105.7,151.3z M124.3,131.9c0.9-0.7,1.1-0.3,2,0.4
		c2.1,1.8,3.9,3.9,5.9,5.7c3.7,3.4,7.4,6.8,10.9,10.4c0.6,0.5,2,1.5,2.1,2.1c0.1,0.8-1.2,1.9-1.7,2.4c-0.8,1-1.3,1.8-2.6,1.5
		c-1-0.2-2-0.6-2.9-0.9c-2.4-0.8-4.9-1.7-7.2-2.6c-0.3-0.1-3.6-1.9-3.9-1.4c-0.1,0.1,3.2,3.1,3.3,3.2c1.8,1.7,3.6,3.3,5.4,5
		c0.7,0.7,1.8,1.3,1.2,2.3c-0.4,0.7-1.7,1.6-2.3,2.2c-0.7,0.7-1.1,1.1-1.9,0.5c-1-0.8-1.9-2-2.9-2.9c-4-3.6-7.7-7.6-11.7-11.2
		c-0.9-0.8-1.7-1.8-2.7-2.6c-0.6-0.5-1.9-1.2-2.1-2.1c-0.3-1,0.8-1.5,1.4-2.2c0.7-0.8,1.3-2.1,2.6-2.2c1-0.1,1.9,0.8,2.8,1.3
		c1.3,0.6,2.8,0.9,4.2,1.4c0.5,0.2,6.7,2.8,6.8,2.6c0.2-0.4-5-4.8-5.6-5.3c-0.4-0.4-4.8-4.2-4.3-4.7
		C122.1,133.9,123.2,132.7,124.3,131.9z M157.3,101.6c0.6-0.5,0.6-0.9,1.3-0.5c0.6,0.3,1.2,1.8,1.4,2.3c1.6,3.8,3.4,7.5,5.1,11.2
		c1.8,3.7,3.8,7.4,5.4,11.2c0.4,0.9,0.6,0.9,0.1,1.7c-0.4,0.8-1.6,1.6-2.3,2.2c-1.8,1.5-2.7,0.5-4.3-0.7c-3.1-2.4-6.5-4.4-9.8-6.6
		c-3.3-2.1-6.3-4.6-9.6-6.7c-1.5-0.9-2.2-1.4-0.7-2.7c1.3-1.1,2.5-2.6,4.2-1.7c1.6,0.9,3.1,2.3,4.7,3.3l4.5,3.1
		c0.6,0.4,4.7,3.7,5,3.2c0.2-0.2-2-4-2.1-4.3c-1-2.1-2-4.2-3-6.3c-0.6-1.1-1.1-2.1-1.7-3.2c-0.2-0.3-1.1-2.6-1.1-2.7
		C154.2,103.4,156.6,102.2,157.3,101.6z M177.1,113.4c-1.4-1.8-2.7-3.9-4.2-5.6c-1.5-1.7-2.9-3.5-4.3-5.3c-0.7-1-1.4-2-2.2-3
		c-0.6-0.7-2.2-2.1-2.3-3c-0.1-0.8,1.2-1.3,1.7-1.7c0.6-0.5,1.4-1.7,2.3-1.7s1.4,1.1,1.8,1.8c0.6,1,1.3,1.8,2,2.6
		c3.4,3.8,6.2,8.2,9.5,12.1c1,1.2,1.8,2.5,2.8,3.7c0.3,0.4,1.5,1.4,1.4,2c-0.1,0.6-1.9,1.5-2.4,1.9c-0.3,0.3-1.7,1.8-2.2,1.1
		C179.8,116.8,178.4,115.1,177.1,113.4z M200.1,105c-2.7,3-7.7,4.5-11.4,2.8c-1.9-0.9-0.8-2.6-0.4-4.2c0.1-0.5,0.1-1.8,0.6-2.1
		c0.6-0.4,1.8,0.6,2.4,0.7c1.7,0.4,3.9-0.2,4.7-2c0.9-2.1-0.7-3.7-2.7-3.8c-2.1-0.1-4.3,0.9-6.3,1.1c-2.1,0.3-4.7,0.2-6.6-0.9
		c-3.1-1.8-4.4-6.1-3-9.3c1.7-3.7,5.4-7,9.7-6.5c1.5,0.2,4.5,0.7,4.3,2.6c-0.1,0.9-0.6,1.8-1,2.6c-0.5,1.1-0.5,1.3-1.7,1.1
		c-2.1-0.4-4.3-0.7-5.7,1.4c-1.7,2.4,1.4,3.3,3.3,2.9c4.4-1,11-2.7,14.1,1.7C203,96.9,203.2,101.7,200.1,105z M207.1,91.7
		c-1.3-1.9-2.4-4.1-3.7-6c-1.3-1.8-2.6-3.7-3.8-5.7c-0.6-1.1-1.3-2.1-1.9-3.1c-0.5-0.7-2-2.3-2.1-3.2c0-0.8,1.3-1.2,1.9-1.6
		c0.6-0.4,1.5-1.6,2.4-1.5c0.8,0.1,1.3,1.2,1.6,1.9c0.5,1,1.1,1.9,1.8,2.8c3.1,4.1,5.5,8.7,8.4,12.9c0.9,1.3,1.5,2.7,2.5,3.9
		c0.3,0.4,1.4,1.5,1.2,2.1c-0.1,0.6-2.1,1.3-2.6,1.7c-0.3,0.3-1.8,1.6-2.3,1C209.5,95.3,208.3,93.5,207.1,91.7z M206.9,68.9
		c-0.3-0.4-0.9-0.9-0.9-1.4c-0.2-1.4,2.6-2.2,3.6-2.8c1.6-1,3.2-1.8,4.9-2.7c1.7-1,3.2-2.3,4.9-3.2c1.1-0.6,2.1-1.8,3.1-0.5
		c0.5,0.7,2.2,3.1,1.8,3.9c-0.2,0.4-1,0.6-1.4,0.8c-0.7,0.5-1.4,1-2.2,1.4c-1.9,1-1.3,1.3-0.4,2.8c1.7,2.9,3.3,6,5.1,8.8
		c0.9,1.4,1.6,2.9,2.4,4.4l1.5,2.2c0.3,0.5,1.2,1.5,1.3,2.1c0.1,1.1-1.7,1.6-2.6,2.1c-1.7,0.9-2.2,1.4-3.2-0.5
		c-1.9-3.3-4.1-6.6-5.9-10c-1-1.8-2-3.8-3.2-5.4c-0.4-0.6-0.7-1.4-1.1-2c-0.5-0.7-0.6-0.6-1.4-0.2c-0.7,0.4-4.3,3.5-4.9,2.5
		C207.7,70.4,207.5,69.6,206.9,68.9z M242.2,49.2c-0.2-0.4-0.8-1-0.8-1.5c-0.1-1.4,2.8-2,3.8-2.5c1.7-0.8,3.4-1.5,5.1-2.2
		c1.8-0.8,3.4-2,5.2-2.7c1.2-0.5,2.3-1.6,3.2-0.3c0.5,0.7,1.9,3.3,1.4,4.1c-0.3,0.4-1.1,0.5-1.5,0.7c-0.8,0.5-1.5,0.9-2.4,1.2
		c-2,0.8-1.4,1.2-0.6,2.8c1.5,3,2.7,6.2,4.3,9.3c0.8,1.5,1.3,3,2,4.6l1.3,2.3c0.3,0.5,1.1,1.6,1.1,2.2c0,1.1-1.8,1.4-2.8,1.8
		c-1.8,0.7-2.3,1.2-3.2-0.8c-1.6-3.5-3.5-6.9-4.9-10.5c-0.8-1.9-1.7-3.9-2.7-5.7c-0.4-0.7-0.5-1.5-1-2.1c-0.4-0.7-0.6-0.7-1.3-0.3
		c-0.7,0.3-4.6,3-5.1,2.1C242.9,50.8,242.7,50,242.2,49.2z M281.7,29.9c0.6,0.3,1,2.2,1.2,2.8c0.5,1.4,1.3,2.8,1.7,4.1
		c0.7,2.3,1.7,4.8,2.7,7c0.7,1.7,1.4,3.6,2.1,5.3c0.4,0.9,0.8,1.8,1.2,2.7c0.3,0.7,0.5,1.3,0.7,2c0.2,0.4,0.7,1.1,0.7,1.5
		c0.1,1.1-1.6,1.1-2.5,1.5c-0.8,0.4-2,1.5-2.9,0.7c-0.6-0.6-0.8-2.3-1.1-3.1c-0.5-1.4-1.2-2.7-1.8-4.1c-0.3-0.7-0.5-2.5-1.1-3
		c-0.6-0.5-1.6,0.2-2.3,0.5c-1,0.4-2,0.8-3,1.3c-1.3,0.5-1.4,0.9-0.8,2.1c1,1.9,1.6,4,2.4,6c0.3,0.8,1.1,2,1.2,2.9
		c0,1-1.1,1.2-1.9,1.5c-0.7,0.2-2.5,1.2-3.1,0.8c-0.6-0.3-1-2.2-1.3-2.8c-1-2.6-2-5.2-3.1-7.8c-0.5-1.1-1-2.3-1.4-3.4
		c-0.4-1.1-1-2.1-1.4-3.2c-0.8-2.2-1.5-4.3-2.5-6.4c-0.3-0.7-1-1.9-0.5-2.5c0.5-0.7,2.4-0.9,3.2-1.2c1.1-0.4,1.6-0.8,2.2,0.5
		c0.6,1.3,1,2.8,1.6,4.1c0.6,1.3,0.9,2.6,1.5,3.9c0.6,1.4,1.1,1,2.3,0.5c0.7-0.3,1.4-0.6,2.1-0.9c0.6-0.2,1.8-0.5,2.3-0.9
		c0.4-0.3-0.3-1.5-0.7-2.5c-0.6-1.5-1.2-2.9-1.8-4.4c-0.3-0.7-0.7-1.4-0.9-2.2c-0.1-0.3-0.1-0.8-0.2-1.1
		C276.4,31.2,281.2,29.5,281.7,29.9z M295.2,40.5c-0.9-2.2-1.7-4.6-2.4-6.8c-0.4-1.3-0.8-2.6-1.3-3.9c-0.3-0.9-1.4-2.6-0.9-3.6
		c0.7-1.2,3.8-1.3,5-1.7c2.3-0.8,4.7-1.5,7.1-2.3c0.6-0.2,1.3-0.9,2.1-0.5c0.6,0.3,0.8,1.4,1,2c0.6,2,1.3,3-1.2,3.5
		c-2,0.5-3.9,1.3-5.9,1.8c-1,0.2-1.2,0.1-1,1.2c0.2,1.2,0.8,2.6,1.2,3.8c0.3,1,0.2,0.9,1.2,0.7c0.8-0.2,1.9-0.5,2.6-0.8
		c0.8-0.3,2-1.2,3-1.2c1.2,0,1.3,0.9,1.6,1.9c0.4,1.4,1.6,2.9-0.3,3.6c-1.3,0.5-5.6,0.8-5.9,2.3c-0.1,0.6,0.6,2.4,0.8,3.1
		c0.1,0.5,0.7,1.9,1.2,2.3c0.2,0.1,1.1-0.2,1.7-0.4c1.5-0.4,2.7-0.8,4-1.4c0.8-0.3,1.9-1,2.7-1c1.2,0.1,1.3,1.2,1.7,2.2
		c0.2,0.7,1,2.4,0.5,3c-0.4,0.4-2.2,0.6-2.8,0.8c-0.8,0.2-11.3,4.3-11.6,3.5C297.8,48.8,296.7,44.5,295.2,40.5z M358.5,34.1
		c-0.1,1.7,0.4,3-1.7,3.5c-1.1,0.2-3.2,1.2-4,0.2c-1.2-1.5-1.7-3.8-2.6-5.5c-0.3-0.4-2-4.2-2.3-4.2c-0.3,0.1-0.5,2.8-0.6,3.2
		c-0.4,2.2-0.6,4.5-0.8,6.7c-0.2,2.1-1.5,2-3.3,2.4c-1.1,0.2-1.8,0.5-2.5-0.6c-0.6-1-1.2-2.2-1.7-3.3c-1.8-3.6-3.6-7.4-5.5-11
		c-0.9-1.7-1.7-3.3-2.6-5c-0.5-1.1-3.3-4.6-2.7-5.7c0.2-0.5,4.7-1.5,5.3-1.1c0.5,0.3,0.8,1.5,1,2c0.5,1.1,1.2,2.2,1.8,3.3
		c1.1,2.1,2.3,4.3,3.3,6.4c0.5,1.2,1,2.2,1.6,3.3c0.1,0.1,0.8,1.8,1,1.9c0.3,0,0.9-8.6,1-9.1c0.1-1,0.3-1.7-0.1-2.7
		c-0.3-0.9-0.8-1.8-1.3-2.7c-0.5-0.9-1-1.7-1.5-2.6c-0.5-0.9-0.2-1.1,0.7-1.5c1.2-0.4,3.9-1.5,4.9-0.5c0.4,0.4,0.6,1.2,0.8,1.8
		c0.4,0.9,0.9,1.8,1.4,2.7c1,2.1,1.9,4.2,2.9,6.2c0.5,1,0.8,2,1.3,3c0.1,0.3,0.8,2.2,1,2.3c0.3,0.1,0.2-2.7,0.2-2.8
		c0-1.1,0.1-2.3,0.2-3.4c0.1-2.7,0.1-5.3,0.3-8c0.1-1.1,0-2.5,0.3-3.5c0.3-1.1,1.4-1.1,2.4-1.4c0.4-0.1,3-0.8,3.1-0.1
		C359.3,16.9,358.9,25.5,358.5,34.1z M370.5,26.5c-0.4-2-0.6-4.1-0.9-6.1c-0.2-1.9-0.6-3.9-1-5.9c-0.2-1.7-0.5-3.3-0.6-5
		c0-0.6-0.7-2.2-0.4-2.6c0.3-0.6,1.4-0.3,2-0.4c2.4-0.2,4.7-0.7,7.1-1.1c1.2-0.2,2.4-0.3,3.6-0.4c0.6-0.1,1.7-0.6,2.2-0.3
		c0.7,0.4,0.6,2.4,0.7,3.1c0.1,1,0.7,1.9-0.5,2.3c-0.9,0.3-2.3,0.3-3.3,0.4c-1.1,0.2-2.2,0.4-3.3,0.5c-0.6,0.1-1.6-0.2-2.1,0.3
		c-0.4,0.6,0.1,2.4,0.2,3c0.1,0.7,0.1,2.2,0.6,2.7c0.3,0.3,2.2-0.3,3-0.4c1.1-0.2,2.4-0.6,3.5-0.5c1.2,0,0.9,0.7,1.1,1.8
		c0.2,0.8,0.8,2.3,0.5,3c-0.3,0.9-1.2,0.8-2,0.9c-1,0.1-1.8,0.3-2.7,0.5c-0.7,0.1-1.6,0-2.3,0.3c-0.9,0.4,0.1,3.5,0.2,4.5
		c0,0.9,0.4,1.4,0.6,1.6c0.8,0.1,2.6-0.2,3.4-0.4c1.4-0.2,2.5-0.3,3.9-0.6c1.5-0.3,1.9-0.4,2.2,1.1c0.1,1,0.4,2.2,0.4,3.2
		c-0.1,1.2-1,0.9-2,1c-1.4,0.2-13,2.9-13.1,2C371.2,32.1,371,29,370.5,26.5z M410.7,21.3c0.3,2.7,0.2,5.9-2.1,7.8
		c-2.3,1.9-5.6,1.9-8.4,2.1c-1.5,0.1-2.9,0.2-4.4,0.3c-1.4,0.1-1.9,0.2-2.1-1.4c-0.3-2.8-0.6-5.7-0.8-8.5c-0.2-3-0.2-6.1-0.7-9.1
		c-0.2-1.3-0.2-2.6-0.3-3.9c-0.1-1.2-0.8-3.3-0.5-4.4c0.3-1.3,1.6-1,2.6-1c1.3-0.1,2.7-0.3,4-0.5c2.8-0.3,6.7-0.4,8.6,2.1
		c2.1,2.8,2.1,6.2,1.1,8.8C410.2,15.6,410.5,18.6,410.7,21.3z M401.9,12c1.3-0.8,0.7-2.8-0.5-3.4c-0.8-0.4-3.4-0.3-3.8,0.5
		c-0.1,0.3,0.2,3.2,0.4,3.4C398.5,12.9,401.4,12.3,401.9,12z M400.3,18.1c-0.9,0-1.6-0.2-1.9,0.7c-0.3,0.9,0.4,2.9,0.4,3.8
		c0,0.7-0.2,2.6,0.5,3c0.5,0.2,1.8-0.1,2.3-0.2c1.9-0.5,3.6-1.9,3.4-4C404.8,18.6,402.6,18.1,400.3,18.1z M433.4,26.3
		c-1.2,1.6-2.6,2.5-4.5,3.3c-3,1.3-7.9,0.2-10.3-2c-1.1-1-2.5-2.7-1.5-4.1c0.5-0.7,3.1-2.9,3.9-2.6c0.6,0.2,0.8,1.2,1.2,1.7
		c0.6,0.7,1.5,1.4,2.4,1.6c1.8,0.5,4.2-0.9,4-2.9c-0.1-1.8-2.6-2.9-4.1-3.5c-1.9-0.8-3.7-1.4-5.4-2.6c-1.5-1-2.6-2.5-3.2-4.2
		c-0.8-2.1-0.3-4.3,1-6.1c2.2-3.4,7.1-5,11-3.8c1.8,0.5,3.2,1.8,4.3,3.2c0.3,0.5,1,1,1.1,1.6c0.2,1-1.1,1.8-1.8,2.3
		c-0.4,0.3-1.3,1.3-1.9,1.4c-0.8,0.1-1.6-1.5-2.1-2c-1.4-1.2-4.6-1.8-5.8,0.3c-1.4,2.5,4.2,3.7,5.6,4.3c1.8,0.8,3.9,2.1,5.3,3.5
		c0.7,0.7,1.1,1.6,1.5,2.4c0.8,1.9,0.7,3.5,0.3,5.4C434.4,24.5,434.1,25.6,433.4,26.3z M441.4,18.5c0.2-3.3-0.1-6.5,0-9.8
		c0.1-1.5,0-3.1,0.1-4.6c0-0.6-0.2-1.6,0-2.2c0.3-0.8,0.3-0.7,1.1-0.8c1-0.1,2.4,0,3.4,0.1c1.4,0,1.4,0.9,1.3,2
		C447,8.5,447,13.9,447,19.3c0,1.7,0,3.4-0.1,5.2c0,1.2,0.2,2.8-0.1,4c-0.4,1.5-1.7,1.1-3,1c-0.3,0-2.8,0.2-2.7-0.4
		C441.2,25.6,441.2,22.1,441.4,18.5z M453.9,2.5c0.1-1.7,1.8-1.3,3.1-1.1c3.5,0.4,7,0.5,10.5,0.8c1.3,0.1,3.1-0.4,4.3,0.1
		c1.2,0.5,0.8,2.1,0.7,3.1c-0.1,1.5,0,2.3-1.6,2.3c-0.9-0.1-1.9-0.1-2.8-0.1c-0.4,0-1.9-0.3-2.2,0c-0.3,0.2,0,0.9,0,1.3
		c0,0.7-0.3,1.5-0.3,2.2c-0.1,2-0.2,4.1-0.3,6.1c-0.2,3.6-0.6,7.2-0.6,10.8c0,0.8,0.2,2-0.5,2.4c-0.4,0.3-1.2,0-1.6,0
		c-0.9-0.1-1.9,0.1-2.7-0.1c-1.2-0.2-1-1.2-0.9-2.3c0.1-1.6,0.2-3.2,0.3-4.8c0.4-4.1,0.5-8.2,0.7-12.3c0-0.9,0.4-2.1,0.2-3
		C460,6.8,459.7,7,458.7,7c-0.7,0-5,0.2-4.9-0.7C453.9,5.1,453.8,3.8,453.9,2.5z M478.1,17.9c0.1-2.4,0.4-4.8,0.7-7.2
		c0.2-1.4,0.4-2.7,0.4-4.1c0.1-0.9-0.2-3,0.7-3.6c1.2-0.8,4,0.4,5.2,0.6c2.5,0.2,5,0.6,7.4,0.9c0.6,0.1,1.6-0.2,2.1,0.4
		c0.5,0.5,0.1,1.6,0.1,2.3c-0.3,2-0.1,3.3-2.6,2.7c-2-0.4-4.1-0.4-6.1-0.8c-1-0.2-1.1-0.4-1.4,0.7c-0.4,1.2-0.3,2.7-0.5,3.9
		c-0.1,1-0.2,0.9,0.7,1.2c0.8,0.2,1.9,0.3,2.7,0.4c0.9,0.1,2.3-0.2,3.2,0.2c1.1,0.5,0.8,1.3,0.6,2.4c-0.2,1.4,0.2,3.3-1.7,3.1
		c-1.4-0.1-5.4-1.7-6.4-0.4c-0.4,0.5-0.5,2.4-0.6,3.1c-0.1,0.5-0.2,2.1,0.1,2.6c0.1,0.2,1.1,0.3,1.7,0.4c1.6,0.3,2.8,0.4,4.2,0.5
		c0.9,0.1,2.1-0.2,2.9,0.2c1,0.5,0.7,1.7,0.6,2.7c-0.1,0.7-0.1,2.6-0.8,2.9c-0.6,0.2-2.3-0.3-2.9-0.4c-0.8-0.1-12.1-0.8-12-1.7
		C477,26.5,477.8,22.2,478.1,17.9z M99,360.6c3.1,0.4,6.7,1.2,8.9,3.4c2.3,2.3,2.9,6.1,2.6,9.2c-0.4,3.1-1.3,7-3.3,9.4
		c-2.3,2.8-5.5,3.3-8.9,3c-3.8-0.3-7.6-1.1-11.4-1.7c-3.7-0.6-7.8-1.1-10.6-3.7c-2.8-2.4-3-6.6-2.5-10.1c0.2-1.8,0.8-3.9,1.5-5.6
		c2.6-5.7,7-6.7,12.7-5.6C91.6,359.4,95.4,360.1,99,360.6z M82.1,367.7c-1.4,2.1-1.8,5.2,0.2,7.1c2.1,1.9,4.5,1.4,7,2
		c2.6,0.6,5.3,1.3,8,1.5c4.4,0.4,7.4-3.7,5.2-7.8c-1.1-2-3.2-2.6-5.4-2.9c-3.2-0.4-6.4-1-9.5-1.5C85.6,365.7,83.4,365.9,82.1,367.7z
		 M84.5,326.2c0.8-1.8,1.7-0.9,3.1-0.5c2.2,0.6,4.1,1.2,6.1,1.6c6.3,1.4,12.6,3.6,18.8,5.3c1.6,0.4,4.2,0.3,5.6,1.1
		c1.2,0.8,0.9,2,0.6,3.2c-0.3,1-0.6,3.4-1.3,4c-0.9,0.7-3.6,0.5-4.7,0.7c-3.1,0.4-6.2,1-9.3,1.5c-0.4,0.1-5.3,0.6-5.4,0.8
		c0,0.2,4.3,1.3,4.9,1.5c2.4,0.7,5.2,1.2,7.5,2c1.1,0.4,2.4,0.6,3.5,0.9c1.8,0.5,1.1,1.9,0.7,3.3c-0.3,0.9-0.4,3.4-1.4,3.8
		c-0.4,0.2-1.2-0.4-1.7-0.5c-0.9-0.3-2-0.4-2.9-0.6c-6.7-1.6-13-3.7-19.7-5.3c-1.7-0.4-3.4-1.1-5.2-1.7c-0.9-0.2-4-0.4-4.5-1.4
		c-0.4-0.9,0.8-3.2,1-4.2c0.5-2.1,0.8-2.5,3.1-2.7c3.7-0.5,7.4-0.8,10.9-1.5c0.7-0.1,5.9-0.6,6-0.9c0.1-0.6-7.3-1.8-7.7-2
		c-0.5-0.2-9.5-2.4-9.3-3.2C83.6,329.7,83.8,327.8,84.5,326.2z M124.3,271.3c5.1,2.2,9.8,5.2,15,7.2c0.9,0.3,2,0.7,2.2,1.7
		c0.2,1.1-1.2,2.2-1.5,3.2c-0.5,1.3-0.3,2.2-2,2.1c-1.2-0.1-2.9-1.3-3.9-1.8c-2.4-1.2-4.9-2.5-7.4-3.6c-1.4-0.6-2.8-1.4-4.1-1.9
		c-0.2,0-1.9-0.8-2.2-1c0.4,0.4,9.6,8.7,10.5,9.5c1.4,1.2,3.7,2.7,4.7,4.3c0.7,1.1-0.3,4.1-1.6,4.7c-1.6,0.7-20.8-4.2-21.1-3.5
		c0,0.3,6,2.8,6.7,3.1c2.4,1.2,4.8,2.3,7.3,3.5c1.6,0.7,4.9,1.3,4.2,3.5c-0.3,0.9-1,1.9-1.3,2.8c-0.2,0.6-0.3,1.9-1,2.1
		c-0.5,0.1-1.6-0.6-2-0.8l-4-2c-4.5-2.2-8.9-4.2-13.4-6.2c-2.4-1.1-4.8-2.1-7.1-3.3c-1.1-0.6-2.1-1.2-3.2-1.7
		c-0.4-0.2-2.2-0.6-2.4-1.1c-0.3-0.7,1-2.2,1.2-2.7c0.3-0.8,0.4-1.5,0.7-2.3c0.9-2,1.8-2.5,3.9-2.1c2.5,0.5,5.1,0.7,7.7,1
		c2.6,0.4,5.1,1,7.7,1.3c1,0.1,3.3,0.5,4,0.6c1.4,0.2,1.1-0.1,0.5-0.5c-1.6-1.4-2-1.8-2.5-2.2c-3.9-3.5-7.8-7.2-11.8-10.9
		c-2.1-1.9-2.4-2.7-0.9-5.3c0.3-0.5,1.8-4.3,2.4-4C114.7,267.1,119.5,269.2,124.3,271.3z M140.2,239.1c1.7,1,3.3,2.2,5,3.2
		c2,1.2,4,2.5,5.9,3.7c3.1,2,5.3,5,4.9,8.8c-0.3,2.7-1.7,5.1-3,7.2c-1.8,2.9-4.5,6.1-8.1,6.7c-3.1,0.5-6.1-1.3-8.6-2.8
		c-3.3-2.1-6.9-4-10.2-6.1c-2.8-1.9-6-4-6.8-7.6c-0.8-3.8,1.4-7.5,3.3-10.6c1.6-2.5,4.6-5.4,7.3-6
		C133.6,234.9,137.2,237.4,140.2,239.1z M129.5,244.8c-1.7,1.4-2.6,3.6-2,5.8c0.6,2.4,3.4,3.6,5.3,4.8c2.2,1.3,4.3,2.7,6.5,4
		c1.7,1,4.2,1.9,6,0.7c1.6-1,3.1-3.6,2.9-5.5c-0.2-2.5-3.3-3.9-5.1-5.2c-2.5-1.6-5-2.8-7.4-4.3C133.5,243.8,131.7,243.2,129.5,244.8
		z M168.4,219.8c2.7,2,5.7,4.8,5.5,8.5c-0.2,3.7-3,6.8-5.1,9.6c-1.2,1.4-2.3,2.9-3.4,4.3c-1,1.4-1.5,1.9-3,0.8
		c-2.9-2.1-5.8-4.2-8.6-6.5c-3-2.3-5.8-4.9-9-7c-1.3-0.9-2.5-2-3.9-2.9c-1.2-0.8-3.8-2-4.5-3.2c-0.9-1.4,0.4-2.4,1.2-3.3
		c1.1-1.3,2-2.8,2.9-4.1c2.1-2.9,5.3-6.6,9.2-6.2c4.4,0.4,7.5,3.2,9.1,6.3C162.6,215.5,165.6,217.8,168.4,219.8z M152.3,220.3
		c0.3-1.9-2-3-3.6-2.4c-1,0.4-3.2,2.9-2.7,3.9c0.2,0.3,3.2,2.5,3.5,2.4C150.2,224.1,152.2,221,152.3,220.3z M156.6,226.8
		c-0.7,0.9-1.5,1.3-0.9,2.4c0.6,1,3,2.1,3.9,2.8c0.7,0.6,2.3,2.4,3.2,2.1c0.6-0.2,1.5-1.7,1.7-2.3c1.2-2.2,1.2-5-0.9-6.6
		C160.9,223,158.6,224.7,156.6,226.8z M176.2,215c-2.2-1.9-4.2-4.2-6.5-6c-2.2-1.7-4.4-3.6-6.5-5.6c-1.1-1.1-2.2-2.1-3.4-3.1
		c-0.9-0.7-3.2-2.1-3.6-3.1c-0.3-1,1.1-1.9,1.7-2.6c0.6-0.7,1.3-2.4,2.4-2.6c1.1-0.1,2,1.1,2.6,1.7c1,1.1,2,1.9,3.1,2.7
		c5.1,3.9,9.6,8.6,14.5,12.8c1.5,1.2,2.8,2.7,4.3,3.9c0.5,0.4,2.2,1.4,2.2,2.2c0,0.8-2,2.3-2.5,3c-0.3,0.4-1.6,2.6-2.4,1.9
		C180.3,218.6,178.2,216.8,176.2,215z M189.4,194.8c1.5,1.3,2.8,2.4,4.2,3.8c0.4,0.4,2.3-1.9,3.1-2.7c1.2-1.3,2.6-2.3,3.7-3.7
		c1.4-1.5,2.1-1.9,3.6-0.3c0.8,0.8,3.2,2.4,2.7,3.5c-0.5,1-2.8,3-3.8,3.9c-1.4,1.4-2.8,2.8-4.2,4.2c-0.8,0.8-1.6,1.6-2.4,2.4
		c-0.7,0.6-1.4,1.8-2.2,2.2c-1.4,0.8-2.1-0.8-3.1-1.8c-1.3-1.3-2.6-2.8-3.9-4.2c-2.7-2.8-5.5-5.4-8.2-8.1c-1.8-1.8-3.6-3.4-5.3-5.3
		c-1.3-1.3-4.2-3.1-4.8-4.9c-0.4-1.2,1.5-2.6,2.4-3.5c0.3-0.3,1.9-2.1,2.4-1.6C178.9,183.9,183.8,190,189.4,194.8z M205.3,182.5
		c-1.8-1.9-3.4-3.9-5-5.9c-1.5-1.9-3.3-3.7-5-5.6c-1.4-1.7-2.7-3.2-4-4.9c-0.4-0.6-2.1-1.9-2.2-2.5c-0.1-0.8,1.3-1.3,1.8-1.8
		c2.4-1.8,4.5-3.9,6.8-5.9c1.2-1.1,2.4-1.9,3.6-2.9c0.5-0.5,1.5-1.8,2.1-1.8c1,0,2.2,2.1,2.8,2.8c0.8,0.9,2,1.6,1.1,2.8
		c-0.7,1-2.3,1.8-3.2,2.6c-1,0.9-2.1,1.9-3.1,2.7c-0.6,0.5-1.9,0.9-2,1.7c-0.1,0.9,1.7,2.5,2.2,3.1c0.6,0.7,1.6,2.2,2.5,2.4
		c0.4,0.1,2.2-1.8,2.9-2.5c1.1-1,2.1-2.2,3.4-2.9c1.3-0.7,1.5,0.2,2.4,1.2c0.7,0.7,2.3,1.9,2.5,2.9c0.3,1.2-0.8,1.6-1.6,2.2
		c-1,0.7-1.7,1.5-2.5,2.4c-0.7,0.6-1.7,1.1-2.3,1.8c-0.7,1,2.4,3.7,3.2,4.7c0.6,0.9,1.3,1.2,1.7,1.3c1-0.5,2.6-2,3.4-2.6
		c1.4-1.2,2.4-2,3.7-3.3c1.3-1.3,1.8-1.7,3.1-0.3c0.8,0.9,1.9,2,2.5,3.1c0.7,1.3-0.5,1.6-1.5,2.4c-1.4,1.1-11.9,11.7-12.6,10.8
		C209.8,188.1,207.5,184.9,205.3,182.5z"/>
</g>
</svg>
