<?xml version="1.0" encoding="utf-8"?>
<!-- Generator: Adobe Illustrator 19.0.0, SVG Export Plug-In . SVG Version: 6.00 Build 0)  -->
<svg version="1.1" id="Warstwa_1" xmlns="http://www.w3.org/2000/svg" xmlns:xlink="http://www.w3.org/1999/xlink" x="0px" y="0px"
	 viewBox="0 0 186.8 51.5" style="enable-background:new 0 0 186.8 51.5;" xml:space="preserve">
<style type="text/css">
	.st0{fill:#CC6E4E;}
</style>
<g id="XMLID_1_">
	<path id="XMLID_2_" class="st0" d="M13.1,29.5c0.5-1.4,0.8-2.8,1.2-4.2c0.3-1,0.6-2.1,0.9-3.2c0.3-1,0.5-1.9,0.8-2.8
		c0.3-1.1,0.7-2.1,1-3.2c0.3-0.8,0.5-1.7,0.8-2.6c0-0.1,0.1-0.1,0.1-0.3c0,0.2,0.1,0.3,0.1,0.5c0.1,0,0.1,0,0.1,0
		c0.1-0.3,0.3-0.5,0.4-0.8c0.1-0.3,0.2-0.7,0.3-1.1c0.3-1.2,0.6-2.3,0.9-3.5c0.1-0.3,0.1-0.6,0.1-1V7.2c-0.4-0.5-0.1-0.8,0-1.3
		s0.1-1,0.3-1.4c0.1-0.3,0.1-0.6,0.4-0.8c0.2-0.1,0.3-0.4,0.3-0.6c0.1-0.5,0.1-0.9,0.2-1.4c0.1,0.1,0.2,0.1,0.3,0.2
		c0-0.1,0.1-0.1,0.1-0.1c-0.1-0.2-0.3-0.5-0.2-0.5c0.2-0.3,0.1-0.4-0.1-0.5c-0.2-0.2-0.2-0.4,0.1-0.8c0.1,0.2,0.1,0.4,0.2,0.6
		c0.3,0,0.5,0,0.7,0c0.5-0.1,0.9,0.1,1.2,0.5c0.2,0.2,0.5,0.3,0.7,0.4c-0.2,0.1-0.4,0.2-0.5,0.3c0.1,0.1,0.1,0.3,0.1,0.4
		C23.5,2.5,23.8,2.8,24,3c0.4,0.2,0.8,0.4,1.2,0.6c0.3-0.2,0.3-0.6,0.4-1c0.2-0.1,0.3-0.1,0.5,0.2c0.3,0.4,0.3,0.4,0.8,0.1
		c0.1,0.6,0.3,1.2,0.3,1.7c0.1,0.1,0.1,0.3,0.2,0.4C27.4,5,27.6,5,27.7,5c0.1,0,0.2-0.1,0.3-0.3s0.1-0.3,0.1-0.5
		c0.1,0.1,0.1,0.3,0.1,0.5c0.1,0.3,0.1,0.7,0.1,1c0,0.8,0.5,1.4,0.9,2c0.8,0.8,1.3,1.7,1.7,2.8c0.6,1.5,1.3,3.2,1.7,4.8
		c0.1,0.6,0.3,1.3,0.5,1.9c0.3,1.2,0.7,2.3,1.2,3.5c0.6,1.6,1.4,3.2,2,4.8c0.5,1.2,1,2.4,1.5,3.7c0.1,0.1,0.1,0.3,0.3,0.4
		c0.3-0.1,0.5-0.3,0.5-0.6c0.5-1.3,0.9-2.5,1.3-3.8c0.2-0.6,0.3-1.2,0.5-1.8c0.3-1,0.6-2,0.8-3c0.6-1.9,1.2-3.8,1.8-5.7
		c0.6-1.9,1.2-3.9,1.8-5.8c0.1-0.3,0.2-0.6,0.3-0.8c0.3-1.5,0.8-3,1.3-4.4c0.3-0.8,1.2-1.5,2.1-1.4c0.6,0.1,1.3,0.1,1.9,0.2
		c0.4,0,0.8-0.1,1.2-0.1c0.3,0,0.5,0.1,0.8,0.1c-0.3,0.5-0.4,0.6-0.4,0.9c-0.2-0.1-0.3-0.1-0.5-0.1c-0.1,0-0.3,0-0.3,0
		c-0.1,0.5-0.6,0.3-0.8,0.6c0.3,0,0.5,0.1,0.6,0.1v0.1c-0.2,0.1-0.5,0.2-0.7,0.3c0.1,0.2,0.1,0.5,0,0.7C50.6,5,50.8,5,51,5
		c0.3,0.6,0.1,1.2-0.5,1.6c-0.3,0.3-0.2,0.6-0.3,1c-0.1,0.6-0.3,1.2-0.4,1.7c0,0-0.1,0-0.1,0c-0.1-0.1-0.2-0.3-0.3-0.5
		c-0.3,0-0.3,0.3-0.4,0.5S48.8,9.7,49,10c0.1,0.1,0.1,0.2,0.1,0.3c-0.2,0.6-0.2,1.4-0.5,1.9c-0.2,0.3-0.2,0.6-0.3,0.8
		c-0.1,0.5-0.2,0.9-0.3,1.4c0.5-0.3,0.4-0.7,0.5-1c0.2-0.5,0.3-0.9,0.5-1.3c0.1-0.4-0.1-0.9,0.4-1.2c0.1,0.6,0.1,1-0.1,1.5
		c-0.1,0.5-0.3,1-0.4,1.4c0.1,0,0.1,0,0.1,0.1c0.1-0.3,0.3-0.6,0.5-1c0.1,0.1,0.1,0.2,0.2,0.3c0.3,0,0.5,0,0.8-0.1
		c0.3-0.6,0.6-1.4,0.8-2.1c0.2-0.8,0.3-1.5,0.5-2.3c0.2,0,0.4,0,0.6,0c-0.1,0.5-0.1,0.9-0.2,1.3c-0.1,0.3,0.1,0.6-0.1,1
		c-0.2,0.3-0.3,0.6-0.4,1c-0.3,1.2-0.6,2.3-1,3.5c-0.5,1.7-1.1,3.5-1.5,5.3c-0.3,1.1-0.6,2.2-0.9,3.4c-0.5,2-1.1,4-1.5,6
		c-0.3,1.1-0.5,2.1-0.8,3.2c-0.1,0.4-0.2,0.7-0.3,1c-0.9,2.1-1.4,4.2-1.9,6.3c-0.1,0.1-0.1,0.3-0.1,0.4c-0.1,0.5-0.4,0.8-0.5,1.3
		s-0.3,0.8-0.6,1.2c-0.1,0.3-0.1,0.5,0,0.7c0.2,0.3,0.3,0.6-0.1,0.8c-0.1,0.1-0.1,0.5-0.2,0.7c-0.2-0.1-0.4-0.2-0.6-0.3
		c-0.2,0.2-0.3,0.4-0.1,0.6c0.2,0.3,0.5,0.3,0.8,0.2c0.2,0.1,0.4,0.3,0.6,0.5c0.4,0.3,0.4,0.6,0,0.9c-0.3,0.3-0.6,0.5-1,0.6
		c-0.7,0.3-1.4,0.6-2.1,0.8c-0.7,0.1-1.4,0.2-2.1,0.1c-1.2-0.1-1.9-1-2.3-1.9c-0.3-0.5-0.5-1.2-0.7-1.7c-0.3-0.6-0.5-1.2-0.8-1.9
		c-0.1-0.5-0.3-1-0.5-1.5c-0.2-0.6-0.4-1.1-0.5-1.7c-0.5-1.3-0.8-2.6-1.2-3.9c-0.3-1-0.5-2.1-0.8-3.2c-0.3-1-0.6-1.9-1-2.9
		c-0.3-0.7-0.5-1.4-0.8-2.1c-0.3-0.9-0.7-1.8-1.1-2.6c-0.4-0.9-0.8-1.9-1.2-2.7c-0.2-0.5-0.5-1-0.8-1.5c-0.1-0.1-0.3-0.1-0.5-0.3
		c-0.1,0.4-0.3,0.6-0.3,1c-0.4,1.1-0.7,2.2-1.1,3.2c-0.4,1-0.7,1.9-1.1,2.8c-0.3,0.5-0.5,1.1-0.8,1.5c-0.6,1-0.8,2.1-1.1,3.1
		c-0.3,1.2-0.6,2.3-1,3.4c-0.3,1.1-0.7,2.1-1.2,3.2c-0.5,1.2-0.8,2.4-1.4,3.5c-0.5,0.8-0.7,1.7-1.1,2.6c-0.2,0.5-0.5,1-0.8,1.4
		c-0.5,0.5-0.9,1-1.4,1.7c0,0-0.1,0-0.2,0.1c0.1-0.1,0.1-0.3,0.1-0.4c0.1-0.2,0.1-0.3-0.1-0.4c-0.1-0.1-0.3-0.1-0.4,0
		c-0.2,0.1-0.3,0.3-0.5,0.5c-0.1,0.1-0.3,0.2-0.3,0.2c-0.5-0.2-0.8,0.1-1.3,0.1c-0.4,0.1-0.8,0.1-1.1-0.4c0-0.1-0.1-0.1-0.1-0.1
		c-0.6,0.1-0.9-0.5-1.4-0.6c-0.2-0.1-0.5-0.2-0.5-0.4c-0.5-0.8-0.8-1.6-0.9-2.5c-0.1-1.2-0.5-2.4-0.7-3.7c-0.1-0.5-0.2-1-0.3-1.5
		c-0.1-0.3-0.2-0.5-0.3-0.8c-0.1-0.2-0.1-0.4-0.1-0.6c-0.1-0.5-0.2-1-0.3-1.6c0-0.1,0-0.3,0-0.5c-0.1-0.5-0.2-0.9-0.3-1.4
		c-0.1-0.5-0.1-1-0.2-1.5c-0.1-0.8-0.2-1.5-0.5-2.2c-0.1-0.2-0.1-0.4-0.1-0.5c-0.1-1-0.3-1.9-0.5-2.8c-0.1-0.3-0.2-0.5-0.3-0.8
		c-0.5-0.8-0.5-1.7-0.7-2.5c-0.2-0.7-0.4-1.5-0.5-2.2c-0.1-0.2-0.1-0.4-0.1-0.6C2.3,20,2,18.5,1.7,17c-0.3-1.2-0.6-2.4-0.9-3.7
		c-0.3-1.2-0.6-2.4-0.6-3.7c0-0.1,0-0.1,0-0.1c-0.4-1.4,0.2-2.6,0.6-3.9C0.9,5,1.4,4.7,1.8,4.3C2,4.1,2.2,3.9,2.4,3.6
		c0.5-0.6,1.1-0.9,2-0.7C4.9,3,5.3,3.3,5.5,3.7c0.7,1.2,1.4,2.3,2,3.5C7.8,7.8,7.9,8.5,8,9.1c0.2,1,0.3,1.9,0.4,2.9
		c0.1,0.8,0.3,1.5,0.4,2.2C9,15,9.1,15.8,9.3,16.6c0.3,1.2,0.6,2.3,0.8,3.4c0.1,0.5,0.1,1,0.3,1.4c0.2,1,0.5,2.1,0.7,3.2
		c0.1,0.5,0.2,0.8,0.3,1.3c0.3,0.8,0.4,1.5,0.6,2.4c0.1,0.5,0.3,1.1,0.5,1.7c0,0.1,0.1,0.2,0.3,0.5C12.9,30,13,29.7,13.1,29.5z
		 M8.4,41.9c0,0.1,0.1,0.3,0.1,0.5c0.1,0,0.1,0,0.1,0c0-0.2,0-0.3,0-0.5C8.6,41.8,8.5,41.9,8.4,41.9z M14.4,26
		c-0.3,1.2-0.6,2.4-0.8,3.6c-0.1,0.1,0,0.2,0,0.3c0.3-0.5,0.5-1,0.6-1.5c0.3-1.1,0.6-2.3,0.9-3.4c0.1-0.4,0.2-0.7,0.3-1.1
		c-0.5,0.4-0.5,0.5-0.3,1.1C14.6,25.1,14.6,25.6,14.4,26z M15.3,23.5c0.1,0.1,0.1,0.1,0.2,0.1c0.1-0.2,0.1-0.5,0.2-0.6
		C15.4,23.1,15.2,23.3,15.3,23.5z M16.9,26c0.1-0.2,0.3-0.5,0.2-0.9c-0.1,0.3-0.3,0.6-0.3,0.8C16.8,25.9,16.8,26,16.9,26z
		 M16.9,31.4c0.3-0.4,0.5-0.7,0.7-1C17.1,30.5,17,30.9,16.9,31.4z M17.3,24.8c0.1-0.1,0.1-0.3,0.2-0.4c-0.1-0.1-0.1-0.1-0.1-0.1
		c-0.1,0.1-0.1,0.3-0.2,0.4C17.3,24.8,17.3,24.8,17.3,24.8z M18.2,32.1C18,32.1,18,32,17.9,32c0.1-0.1,0.1-0.3,0.1-0.4
		s0-0.3-0.1-0.3c0,0-0.2,0-0.3,0.1c-0.1,0.1-0.2,0.3-0.3,0.5C17.5,32.3,17.9,32.4,18.2,32.1z M18,22.4c-0.3,1-0.3,1-0.2,1.2
		c0.3-0.6,0.8-1.9,0.8-2.4C18.4,21.7,18.2,22,18,22.4z M18.2,30.2c-0.2,0.3-0.2,0.3-0.1,0.5c0.2,0.2,0.4,0.3,0.7,0.1
		C18.6,30.6,18.4,30.4,18.2,30.2z M21,22.1c-0.1,0.1-0.2,0.2-0.2,0.3c-0.3,0.6-0.6,1.2-0.8,1.8c-0.3,0.6-0.5,1.2-0.6,1.9
		c-0.2,0.8-0.5,1.4-1.3,1.5c0.5,0.6,0.6,0.6,0.9,0.1c0.2-0.5,0.4-0.8,0.5-1.3c0.5-1.3,1-2.6,1.5-3.9c0.1-0.1,0-0.1,0.1-0.3
		C21.1,22.2,21,22.2,21,22.1z M20.2,27.8c0,0,0.1-0.1,0.1-0.1c0.4-0.1,0.5-0.3,0.5-0.6c0.2-0.4,0.3-0.8,0.5-1.2
		c0.2-0.5,0.4-0.9,0.6-1.4s0.4-1,0.6-1.6c0.1-0.2,0.2-0.5,0.2-0.6c0-0.1-0.1-0.3-0.1-0.5c-0.4,0.6-0.6,1.2-0.8,1.7
		c-0.2,0.5-0.4,0.9-0.5,1.4c0,0.1-0.1,0.2-0.1,0.3c-0.2,0.5-0.4,0.9-0.6,1.4c-0.1,0.2-0.2,0.5-0.4,0.6c-0.5,0.5-1,0.9-1.5,1.4
		c0,0,0,0.1,0,0.1c0.2-0.1,0.3-0.1,0.5-0.2c0,0.1,0,0.3,0.1,0.3C19.5,28.5,19.9,28.3,20.2,27.8z M18.7,32.4c0.1-0.1,0.1-0.3,0.2-0.4
		c-0.1,0-0.1,0-0.2-0.1c0,0.1-0.1,0.3-0.1,0.3C18.6,32.3,18.7,32.3,18.7,32.4z M19.1,19.5c0,0.1-0.1,0.3-0.1,0.4h0.1
		c0.1-0.1,0.1-0.3,0.1-0.3C19.1,19.5,19.1,19.5,19.1,19.5z M19.7,17.9c-0.2,0.1-0.3,0.4-0.1,0.6C19.6,18.3,19.7,18.1,19.7,17.9
		C19.7,17.9,19.7,17.9,19.7,17.9z M20.8,13.8c-0.1,0.3-0.1,0.5-0.1,0.8C20.9,14.2,20.9,14.2,20.8,13.8z M21.1,29.4
		c0.1-0.2,0.3-0.3,0.1-0.7c-0.1,0.3-0.2,0.5-0.3,0.6C20.9,29.3,21,29.3,21.1,29.4z M21.4,11.9c-0.1,0.4-0.2,0.8-0.4,1.4
		C21.6,12.6,21.6,12.4,21.4,11.9z M22.2,28.9c-0.6,0.3-0.6,0.9-1,1.4C21.8,30.2,22.2,29.6,22.2,28.9z M22.5,1.6
		c0.1,0.9,0.2,0.9,0.6,0.6C22.9,2,22.7,1.8,22.5,1.6z M29.2,12.1c0,0.3-0.1,0.5,0,0.8c0.4,0.8,0.6,1.6,0.9,2.4
		c0.1,0.5,0.3,0.8,0.5,1.2c0.5,1,0.9,2,1.4,3c0.3,0.6,0.8,1.3,1,2.1c0,0.1,0.1,0.1,0.1,0.3c0.5,0.9,0.9,1.8,1.3,2.8
		c0.3,0.7,0.6,1.4,0.9,2.1c0.4,1,0.7,2.1,1.1,3c0.1,0.1,0.1,0.3,0.1,0.5c0.3,0.8,0.5,1.7,0.8,2.6c0.3-0.2,0.4-0.5,0.4-0.7
		c-0.1-0.4-0.2-0.8-0.3-1.2c-0.4-1.6-1-3.2-1.6-4.8c-0.4-0.9-0.8-1.9-1.3-2.8c-0.1-0.4-0.3-0.8-0.5-1.2c-0.3-0.8-0.6-1.5-1-2.3
		c-0.1-0.2-0.1-0.3-0.3-0.5c-0.2-0.5-0.5-1-0.7-1.5c-0.3-0.8-0.6-1.7-0.9-2.5c-0.4-1-0.8-1.9-1.2-2.8c-0.1-0.2-0.4-0.4-0.5-0.6
		C29.3,12.1,29.3,12.1,29.2,12.1z M32.3,23.3c0,0.1,0.2,0,0.3,0c0-0.4-0.1-0.6-0.6-0.6C32.1,22.8,32.2,23.1,32.3,23.3z M41.6,45
		c0.2,0.3,0.4,0.3,0.6,0C42,44.8,41.8,44.8,41.6,45z M42.7,35.3c0.3-1.2,0.6-2.5,1-3.8c-0.6,1.3-0.9,2.6-1.2,4.1
		C42.6,35.4,42.7,35.4,42.7,35.3z M43.1,24.3c0.3-0.6,0.5-1.2,0.6-1.8c0.5-1.4,1-2.7,1.2-4.1c0.1-0.1,0.1-0.1,0.1-0.2
		c0.5-0.8,0.6-1.7,1-2.6c0.4-1.1,0.7-2.3,1-3.4c0.2-0.6,0.3-1.2,0.5-1.9c0.3-0.8,0.3-1.7,0.6-2.6c0.1-0.2,0.1-0.5,0.1-0.7
		c-0.5,0.4-0.8,0.8-0.8,1.4c0,0.2-0.1,0.4-0.1,0.6c-0.2,0.6-0.4,1.1-0.6,1.7c-0.3,1-0.5,2.1-0.8,3.1c-0.3,1.2-0.8,2.3-1,3.5
		c-0.2,1.1-0.6,2.2-0.9,3.2c-0.2,0.7-0.5,1.4-0.6,2.1c-0.2,0.7-0.4,1.4-0.6,2.1c-0.1,0.3-0.1,0.5-0.1,0.8c0.3-0.3,0.2-0.5,0.1-0.8
		C43,24.7,43.1,24.4,43.1,24.3z M42.7,46.1c0.2-0.1,0.2-0.1,0.4,0.2C42.9,46.3,42.9,46.2,42.7,46.1z M45.3,25.8
		c-0.3,0.8-0.5,1.4-0.6,2.1c0,0.1-0.1,0.2-0.1,0.3c-0.1,0.3-0.1,0.6-0.1,1c-0.3,0.2-0.4,0.5-0.4,0.7c0.1,0,0.1,0.1,0.1,0.1
		c0.1-0.3,0.1-0.5,0.2-0.8C44.9,28.1,45.4,26.3,45.3,25.8z M45.7,24.6c-0.1,0.3-0.2,0.6-0.3,1c0.1,0,0.1,0,0.1,0
		c0.1-0.3,0.2-0.6,0.3-0.9C45.8,24.6,45.8,24.6,45.7,24.6z M46.9,21.2c0.1-0.6,0.3-1.1,0.5-1.6c-0.1,0-0.1,0-0.2-0.1
		c-0.1,0.6-0.3,1.1-0.5,1.6C46.8,21.1,46.9,21.2,46.9,21.2z M48.7,6.3c0.1-0.3,0.3-0.6,0.1-1c-0.3,0.3-0.5,0.6-0.7,0.9
		C48.3,6.3,48.5,6.5,48.7,6.3z M48.7,15.1c-0.1,0.1-0.1,0.3-0.1,0.4c0,0,0,0,0.1,0C48.6,15.4,48.7,15.3,48.7,15.1L48.7,15.1z
		 M49.3,4.3c-0.1,0.1-0.2,0.3-0.3,0.4l0.2,0.2c0.1-0.1,0.3-0.2,0.5-0.3C49.5,4.4,49.3,4.3,49.3,4.3z M49.7,7.3
		c0.1-0.1,0.3-0.3,0.1-0.5C49.6,7.1,49.6,7.1,49.7,7.3z M51.7,8.4c-0.5-0.5,0.3-0.8,0.1-1.3c0.7,0,0.9-0.6,1.2-1
		C52.7,6.9,52.8,8,51.7,8.4z"/>
	<path id="XMLID_38_" class="st0" d="M57.9,42.7c-0.1-0.3-0.2-0.5,0.1-0.8c0.3-0.3,0.1-0.6-0.1-1c-0.3-0.5-0.6-0.8-0.7-1.4
		c-0.1-0.1-0.1-0.3-0.1-0.4c-0.4-1.7-0.7-3.5-0.8-5.3c-0.1-0.8-0.2-1.6-0.3-2.4c0-1,0.1-1.9,0.1-2.9c0-1,0-2.1,0.1-3.2
		c0.1-1.2,0.1-2.3,0.2-3.4c0.2-1.2,0.4-2.5,0.6-3.7c0.3-1.5,0.8-3.2,1.3-4.6c0.3-1,0.6-2.1,1-3c0.2-0.6,0.6-1.1,0.8-1.7
		c0.6-1.3,1.4-2.4,2.4-3.4c0.6-0.7,1.3-1.5,2.3-1.8c0.1-0.1,0.1-0.1,0.3-0.2c0.6-0.4,1.2-0.8,1.9-1.2c0.1-0.1,0.3-0.1,0.5-0.1
		c0.2,0,0.3,0.1,0.5,0.1C68.3,2.4,68.7,2.4,69,2c0.1-0.2,0.5-0.2,0.8-0.4c0.1,0.1,0.4,0.2,0.6,0.3c0.1,0.1,0.3,0.2,0.3,0.1
		c0.6-0.3,0.9,0.1,1.4,0.3c0.7,0.3,1.5,0.6,2.2,0.8c1.1,0.5,1.9,1.3,2.8,2.1c0.4,0.4,0.8,0.8,1.3,1.2C79,7,79.5,7.6,79.9,8.3
		c0.5,0.8,1,1.7,1.5,2.5c0.5,0.9,1,1.9,1.4,2.8c0.6,1.3,1.1,2.6,1.4,3.9c0.1,0.6,0.3,1.3,0.3,2c0.1,0.8,0.3,1.5,0.3,2.3
		c0.2,1,0.3,1.9,0.5,2.9c0.1,0.3-0.1,0.6-0.1,1c-0.1,0.9,0,1.8-0.1,2.8c-0.1,1.2-0.2,2.3-0.3,3.4c-0.1,0.5-0.1,0.9-0.1,1.3
		c0.1,1.2-0.3,2.3-0.5,3.5c-0.2,0.7-0.3,1.5-0.6,2.3c-0.4,1.4-1,2.8-1.8,4.1c-0.8,1.2-1.5,2.4-2.3,3.5c-0.3,0.4-0.6,0.6-1,0.7
		c-0.5,0.1-0.9,0.5-1.3,0.8c-0.8,0.6-1.6,1-2.6,1.2c-0.8,0.1-1.6,0.2-2.4,0.3c-0.3,0.1-0.6,0.2-1,0.3c-1.7,0.2-3.5,0-5.2-0.8
		c-0.3-0.1-0.6-0.3-1-0.4c-0.9-0.3-1.7-0.8-2.5-1.4c-0.8-0.6-1.5-1.4-2.2-2.2c-0.6-0.8-1.1-1.6-1.6-2.4c-0.2-0.2-0.3-0.6-0.7-0.5
		C58,42.3,57.9,42.5,57.9,42.7z M61.4,34.1c0-0.3-0.1-0.5-0.1-0.7C61.1,33.8,61.1,33.8,61.4,34.1z M61.4,34.3
		c-0.3,0.2-0.3,0.4,0.1,0.7C61.5,34.7,61.4,34.5,61.4,34.3z M62.1,36.4c0.1-0.3,0.1-0.5-0.3-0.7C61.9,36,62,36.2,62.1,36.4z
		 M62.6,34.2c0.1-0.6-0.1-1-0.3-1.4C62.2,33.3,62.1,33.8,62.6,34.2z M73.7,39.6c0.5-0.7,0.8-1.4,1.2-2.2c0.3-0.4,0.2-0.8,0.3-1.3
		c0.2-1.1,0.5-2.1,0.7-3.2c0.1-0.3,0.3-0.7,0.3-1.1c0.1-1.1,0.2-2.3,0.3-3.4c0.1-0.6,0.2-1.4,0.4-2c0.3-0.7,0.5-1.5,0.4-2.3
		c-0.1-0.7-0.2-1.4-0.3-2.1C77,21.9,77,21.8,77,21.7c-0.1-0.2-0.2-0.4-0.3-0.6c-0.1-0.6-0.2-1.3-0.3-1.9c-0.2-1.3-0.4-2.5-0.8-3.7
		c-0.2-0.7-0.5-1.4-0.9-2.1c-0.8-1.3-1.9-2.4-3.1-3.5c-0.5-0.4-1.4-0.3-1.8,0.3c-0.5,0.6-0.8,1.2-1.3,1.8c-0.6,0.9-1,2-1.3,3
		c-0.1,0.6-0.3,1.1-0.5,1.7c-0.5,1.2-0.8,2.4-1,3.7c-0.2,1.4-0.5,2.8-0.5,4.2c0,2.8,0.1,5.7,0.1,8.5c0,0.1,0,0.1,0,0.2
		c0.2,1.4,0.3,2.8,0.6,4.1c0.2,0.8,0.4,1.6,0.8,2.3c0.4,0.6,0.8,1.2,1.5,1.6c0.5,0.3,1,0.4,1.6,0.4c0.4,0,0.8-0.1,1.3,0.2
		c0.1,0.1,0.1,0,0.3,0c0.4,0.1,1.7-1,1.7-1.4c0-0.1,0-0.3,0-0.3C73.4,39.9,73.7,39.8,73.7,39.6z M72.1,44.9
		c-0.3-0.1-0.6-0.1-0.9,0.3c0.4-0.1,0.6-0.1,0.9-0.1C72.1,45,72.1,44.9,72.1,44.9z M71.5,43.6c0.6,0,1.2-0.1,1.5-0.5
		c0.3-0.3,0.6-0.5,1-0.7s0.8-0.5,1.1-0.8c0.4-0.4,0.8-0.8,1.2-1.3c0.1-0.1,0.1-0.3,0.3-0.5c-0.1,0-0.1-0.1-0.1-0.1
		c-0.1,0.1-0.3,0.1-0.5,0.3c-0.6,0.6-1.2,1.2-1.8,1.7c-0.4,0.4-0.9,0.8-1.4,1.1c-0.5,0.3-0.9,0.5-1.3,0.6
		C71.5,43.5,71.5,43.6,71.5,43.6z M74.9,43.8c0.4-0.3,0.6-0.8,1-1.2c0.7-1,0.7-1,0.7-1.3c-1,1.2-1.9,2.3-2.8,3.4
		C74.4,44.7,74.6,44.1,74.9,43.8z M80.2,41c0.3,0.4,0.3,0.5-0.1,0.7c-0.1,0.1-0.3,0.2-0.4,0.3c-0.2,0-0.4,0.2-0.5,0.1
		C79.1,42,79,41.8,79,41.6c-0.3-0.1-0.6-0.1-1-0.1c0.3,0.6,0.3,1.2-0.2,1.6c-0.1,0.1-0.1,0.1-0.1,0.2c-0.3,0.5-0.6,1-1.1,1.4
		s-1,0.8-1.4,1.3c0.1,0,0.1,0.1,0.1,0.1c0.5-0.1,0.8-0.1,1.2-0.1c0.1,0.1,0.1,0.3,0.1,0.4c0.2-0.1,0.3-0.3,0.5-0.4
		c0.5-0.5,0.9-1,1.4-1.3s0.7-0.7,1-1.1c0.3-0.5,0.7-0.9,1.1-1.3c0.5-0.4,0.6-0.8,0.5-1.5c-0.2,0-0.4-0.1-0.5-0.1s-0.3,0.1-0.3,0.1
		C80.1,40.9,80.1,41,80.2,41z M75.8,12.3c0.1,0.9,0.8,1.5,1,2.3c0,0.1,0.1,0.1,0.3,0.1C76.8,13.9,76.6,12.9,75.8,12.3z M77.1,34.7
		c-0.4,1-0.8,2-1.2,3c-0.1,0.1,0,0.1,0,0.2c0.3-0.1,0.6-0.3,0.8-0.6c0.1-0.4,0.3-0.7,0.4-1.2s0.1-1,0.5-1.4c0.1,0-0.1-0.2-0.1-0.4
		C77.3,34.5,77.2,34.5,77.1,34.7z M77.1,38.8c0.3,0,0.3-0.3,0.4-0.5c-0.3,0.1-0.4,0.3-0.6,0.3C77,38.7,77,38.7,77.1,38.8z
		 M77.3,44.8c0.3-0.1,0.4-0.4,0.4-0.6c0.1-0.5,0.1-0.6,0.7-0.5c0,0.5-0.6,0.6-0.7,1s-0.6,0.5-0.7,0.8C76.9,45.1,77,44.9,77.3,44.8z
		 M77,15c0.1,0.2,0.1,0.4,0.2,0.6c0.1-0.1,0.1-0.1,0.1-0.1c0-0.2-0.1-0.4-0.1-0.6C77.1,15,77.1,15,77,15z M77.3,15.9
		c0.1,0.3,0.1,0.6,0.3,0.9C77.7,16.1,77.6,15.9,77.3,15.9z M77.3,34c0.2,0,0.3,0.1,0.4,0.1c0-0.2-0.1-0.3-0.1-0.6
		C77.4,33.6,77.3,33.8,77.3,34z M77.7,32.8c0.1-0.1,0.1-0.2,0.1-0.3C77.5,32.6,77.5,32.6,77.7,32.8z M77.8,18.2
		c0.1,0.5,0.1,0.8,0.2,1.3c0.1,0.3-0.1,0.8,0.3,1.1c0.2-0.1,0.3-0.3,0.3-0.5c-0.2-0.8-0.3-1.6-0.5-2.4c-0.1-0.3-0.2-0.5-0.4-0.8
		C77.4,17.6,77.7,17.9,77.8,18.2z M78.4,27.7c0.3-0.3,0.2-0.6,0.1-1C78.4,27,78.2,27.3,78.4,27.7z M79.2,40.5c-0.1,0-0.2,0-0.3,0
		c0,0.1,0,0.2,0,0.2c0.1,0,0.2,0,0.3-0.1C79.2,40.6,79.2,40.5,79.2,40.5z M79.1,42.7c-0.1,0-0.1-0.1-0.1-0.1
		c0.1-0.1,0.1-0.3,0.2-0.4c0.1,0.1,0.1,0.1,0.1,0.1C79.2,42.5,79.1,42.6,79.1,42.7z M79.2,39.1c0.4,0.1,0.5-0.1,0.6-0.5
		c-0.3-0.1-0.5-0.1-0.8-0.1C79,38.8,79,39.1,79.2,39.1z M80.1,13.9c-0.2,0.4-0.1,0.7,0,1c0.1,0.3,0.2,0.5,0.3,0.8
		c0.1,0.4,0.1,0.7,0.1,1c0.2,0.7,0.4,1.4,0.5,2.1c0.1,0.6,0.3,1.2,0.3,1.7c0,0.5-0.1,0.9,0,1.4c0.1,0.5,0.1,1,0.1,1.4s0.3,0.7,0.6,1
		C82.4,22.5,81,15.1,80.1,13.9z M80.5,37.7c-0.3,0.2-0.2,0.5-0.1,0.6c0.3,0.5,0.8,0.8,1.5,0.9C81.4,38.7,81,38.2,80.5,37.7z
		 M81.1,28.6c0,0.8-0.1,1.5-0.2,2.3c-0.1,1-0.3,2.1-0.5,3.1c0,0.1,0.1,0.2,0.2,0.5c0.1-0.2,0.2-0.3,0.2-0.4c0.1-0.4,0.2-0.8,0.3-1.2
		c0.1-0.8,0.3-1.5,0.4-2.3s0.1-1.5,0.1-2.3c0-0.3,0-0.6,0.1-1c0-0.3,0-0.5,0-0.8s-0.1-0.5,0.3-0.6c0.1,0,0.1-0.1,0.1-0.3
		c0.1-0.1,0-0.1,0-0.2c-0.2,0-0.3,0-0.6,0C81.3,26.5,81.1,27.5,81.1,28.6z M81.3,40c0.1,0,0.2-0.1,0.4-0.1c-0.4-0.4-0.7-0.6-1.3-0.8
		C80.5,39.7,81,39.8,81.3,40z M83.4,35.2c-0.2,0.2-0.3,0.3-0.5,0.5C83.3,35.7,83.3,35.5,83.4,35.2z M83,36.7
		c0.3-0.3,0.3-0.3-0.1-0.5C83,36.4,83,36.5,83,36.7z M83.7,34c-0.1,0.1-0.1,0.2-0.2,0.3c0.1,0.1,0.1,0.1,0.1,0.1
		c0.1-0.1,0.1-0.2,0.2-0.3C83.8,34.1,83.7,34,83.7,34z M83.8,32.2c0.3-0.1,0.3-0.3,0.1-0.6C83.6,31.7,83.5,31.9,83.8,32.2z
		 M83.7,33.5c0.1-0.2,0.1-0.5,0.1-0.7C83.6,33.1,83.6,33.1,83.7,33.5z M83.8,23.7c-0.1,0.1-0.1,0.1-0.1,0.2c0,0,0.1,0.1,0.1,0.1
		c0.1-0.1,0.1-0.1,0.3-0.1C83.9,23.8,83.8,23.7,83.8,23.7z"/>
	<path id="XMLID_72_" class="st0" d="M98.2,47.6c-0.3-0.6-0.7-1.2-1.3-1.7c-0.1,0.4-0.2,0.7-0.3,1c-0.3-0.3-0.4-0.5-0.6-0.6
		s-0.4-0.2-0.6-0.3c0,0-0.1,0.1-0.1,0.1c-0.1-0.1-0.1-0.2-0.2-0.3C94.9,46,94.9,46,94.9,46c-0.1,0.3-0.1,0.5-0.1,0.7s-0.1,0.6,0,0.9
		c0.1,0.5,0.2,1,0.6,1.4c0,0.1,0.1,0.1,0.1,0.1c0.1,0.2,0.2,0.5,0.3,0.7c-0.3,0.1-0.5,0.2-0.7,0.3c0.3,0.4,0.5,0.8,0.8,1.2
		c-0.2,0-0.4-0.1-0.5,0c-0.1,0.3-0.3,0.3-0.6,0.3s-0.5,0.1-0.8,0.1s-0.5-0.1-0.5-0.3c-0.1-0.1-0.1-0.3-0.2-0.5
		c-0.1-0.5-0.5-0.8-0.7-1.2c-0.3-0.5-0.6-0.9-0.6-1.5c-0.1-1.1-0.1-2.2-0.1-3.4c0-1.8,0-3.7,0-5.5C92,38,92,36.7,92,35.4
		c0.1-0.6,0.2-1.2,0.2-1.8c0.1-0.6,0.1-1.2,0.1-1.7c0.1-0.8,0.1-1.7,0.1-2.6c0-0.1,0-0.1,0-0.2c0.3-0.9,0.3-1.8,0.3-2.7
		c0.1-0.3,0.1-0.6,0.3-1c0-0.1,0-0.3,0-0.4c0.1-0.8,0.1-1.6,0.2-2.4c0-0.2,0.1-0.4,0.1-0.6c0-0.3,0.1-0.5,0.1-0.6
		c0-1.5,0.1-3,0.1-4.4c0-0.8,0.1-1.7-0.2-2.5c-0.3-1-0.1-1.9-0.3-2.9c-0.2-0.9-0.1-1.9-0.2-2.8c0-1,0-1.9,0-2.8
		c0.1-0.2,0.1-0.3,0.3-0.5c0.2-0.3,0.5-0.6,0.4-1c0-0.2,0.1-0.4,0.3-0.5c0.3-0.1,0.3-0.3,0.3-0.6c-0.1-0.6-0.1-0.6,0.5-0.9
		c0.3-0.2,0.6-0.4,1-0.6c0.3-0.1,0.6-0.2,0.9-0.3c0.8-0.3,1.5-0.6,2.3-0.8c0.3-0.1,0.7,0,1.1,0.1c1.3,0.3,2.6,0.6,3.9,1
		c0.9,0.3,1.7,0.3,2.6,0.5c1.2,0.2,2.2,0.6,3.3,1c0.5,0.2,1,0.4,1.4,0.6c1.4,0.5,2.6,1.1,3.7,2.1c0.9,0.8,1.5,1.9,2.1,3
		c0.3,0.7,0.5,1.5,0.7,2.3c0.3,0.8,0.6,1.5,1.3,2c0.8,0.6,1.1,1.6,1.1,2.6c0,0.1-0.1,0.2-0.1,0.3c-0.4,0.8-0.8,1.6-1.3,2.4
		c-0.4,0.6-0.9,1.2-1,2c-0.1,0.3-0.3,0.5-0.6,0.5c-0.4,0.1-0.8,0.2-1.2,0.3c-0.1-0.2,0.1-0.4,0.2-0.6c0.4-0.7,0.7-1.4,1.1-2.1
		c0.1-0.1,0-0.2,0-0.3c-0.7,0.9-1.2,2-2.1,2.7c0.1-0.5,0-1,0.3-1.5s0.5-1.1,0.7-1.6c0-0.1,0-0.3,0-0.4c-0.2-0.8-0.5-1.5-0.6-2.3
		c-0.1-0.1-0.2-0.2-0.3-0.3c-0.1,0.1-0.1,0.1-0.2,0.3c-0.2,0.5-0.3,0.8-0.1,1.4c0.1-0.3,0.1-0.4,0.1-0.5c0.6,0.6,0.7,1.2,0.4,1.9
		c-0.5,1.2-1.2,2.3-2,3.4c-0.3,0.5-0.8,0.8-1.2,1.2c-0.8,0.7-1.5,1.5-2.2,2.3c-0.3,0.3-0.6,0.7-0.8,1.1c-0.4,0.6-0.2,1.3,0,1.9
		c0.3,0.8,0.8,1.6,1.2,2.4c0.7,1.7,1.6,3.4,2.4,5c0.8,1.4,1.4,2.8,2.1,4.3c0.5,0.8,0.8,1.5,1.2,2.3c0.2,0.4,0.3,0.8,0.5,1.2
		c0.4,1,0.8,1.9,1.2,3c-0.3-0.2-0.5-0.3-0.8-0.5c-0.2-0.3-0.4-0.8-0.6-1.2c-0.3-0.5-0.5-0.4-0.7,0.1s-0.3,1,0,1.6
		c0.1,0.4,0.3,0.8,0.3,1.4c0.1,0.2,0.3,0.4,0.5,0.6c-0.1,0.1-0.1,0.1-0.1,0.1c-0.4-0.2-0.7-0.3-1.2-0.5c-0.1,0.3-0.2,0.5,0.1,0.6
		c0.2,0.1,0.5,0.3,0.6,0.3c0.3,0.1,0.4,0.3,0.2,0.5c-0.5-0.3-1-0.6-1.6-0.6c0.1,0.6,0.5,0.8,1,0.8c0.7,0.2,1.4,0.4,2.1,0.6
		c-0.1,0.3-0.1,0.4-0.1,0.6c-0.2,0.1-0.5,0.1-0.7,0.1c-0.3,0.1-0.5,0-0.6-0.3c-0.4-0.5-0.6-0.5-1-0.1c-0.3,0.3-0.8,0.2-1.2,0.3
		c-0.4,0.1-0.9,0-1.4,0c-0.1,0-0.3-0.1-0.3-0.3c-0.4-0.6-0.7-1.2-1-1.8c-0.1-0.3-0.3-0.5-0.4-0.8c-0.3-0.9-0.9-1.7-1.5-2.6
		c-0.3-0.4-0.5-0.8-0.6-1.2c-0.1-0.1-0.1-0.3,0.1-0.4c0.2-0.3,0.2-0.5,0.1-0.8c-0.5-0.8-1-1.7-1.5-2.6c-0.4-0.7-0.8-1.4-1.3-2
		c-0.1-0.1-0.1-0.2-0.2-0.3c-0.8-0.7-1.1-1.3-1.5-2.2c0-0.1,0-0.1-0.1-0.1c-0.7-0.6-1-1.5-1.4-2.4c-0.5-1.1-1-2.1-1.6-3.2
		c-0.1-0.1-0.2-0.3-0.3-0.3c-0.4-0.3-0.6-0.1-0.7,0.3c0,0.2-0.1,0.4-0.1,0.6c-0.1,1.2-0.1,2.4-0.2,3.6c-0.1,1.5-0.1,2.9-0.2,4.3
		c-0.1,1.5-0.1,3-0.1,4.6c0,0.7-0.1,1.4-0.2,2.1c-0.1,1.4-0.1,2.9-0.1,4.4c-0.1,0-0.1,0-0.1,0C98.7,48.9,98.5,48.1,98.2,47.6z
		 M92.4,44.3c0,0.2,0,0.5-0.1,0.6c0.1,0,0.1,0,0.1,0c0.1-0.2,0.1-0.4,0.2-0.6C92.6,44.3,92.4,44.3,92.4,44.3z M92.4,46.5
		c0-0.3,0.1-0.5,0.1-0.7c0.1-0.2,0.2-0.4-0.2-0.5c0.1,0.1,0.1,0.3,0.3,0.5C92.1,46,92.4,46.2,92.4,46.5z M92.7,47.4
		c0.1-0.1,0.1-0.2,0.2-0.3c-0.6-0.1-0.6,0-0.5,0.5C92.6,47.6,92.6,47.5,92.7,47.4z M92.5,41.6c0,0.3-0.1,0.6-0.1,0.9
		c0,0.3,0.1,0.6,0.1,0.8c-0.1,0.6-0.1,0.6,0.1,0.8c-0.2-0.9,0.2-1.7,0-2.5C92.6,41.6,92.6,41.6,92.5,41.6z M92.6,36.4
		c-0.1,0.3,0.1,0.6,0.4,0.6c0.1-0.7,0-1.1-0.1-1.3C92.7,35.9,92.6,36.1,92.6,36.4z M97.8,41.4c0-0.6,0-1.2,0-1.8
		c0-0.3-0.1-0.5-0.5-0.5c-0.1,0-0.1-0.1-0.1-0.1c0-0.2,0.1-0.4,0.1-0.6c-0.5-0.3-0.6-0.1-0.8,0.3c-0.1,0.3-0.1,0.6-0.1,1
		c-0.1,0.4-0.1,0.7-0.1,1.1c-0.1,0.3,0.1,0.7-0.4,0.9c-0.1,0-0.1,0.1-0.1,0.1c0,0.8-0.1,1.6-0.1,2.4c0,0.1,0,0.1,0,0.2
		c0.1,0.3,0.1,0.7,0.2,1c0.1,0.1,0.2,0.3,0.3,0.3c0.2,0.1,0.4,0.1,0.6,0.1c0.2-0.5-0.2-0.8-0.3-1.1c0.4-0.5,0.4-0.5,0.4-1
		c0-0.6,0.1-0.7,0.6-0.9C97.8,42.5,97.8,42,97.8,41.4z M102.4,21.5c0.6-0.3,1.1-0.5,1.6-0.8c1.3-0.6,2.5-1.5,3.5-2.5
		c0.5-0.5,1-1,1.7-1.5c0.2-0.1,0.4-0.3,0.6-0.5c0.1-0.2,0.3-0.4,0.3-0.6c0.1-0.9,0.1-1.8,0.1-2.7c0-0.2-0.1-0.5-0.2-0.6
		c-0.5-0.3-1-0.7-1.5-1c-0.6-0.3-1.2-0.5-1.9-0.7c-1-0.3-2.1-0.7-3.1-1c-0.5-0.1-1.1-0.1-1.6-0.1c-0.3,0-0.5,0.1-0.5,0.5
		c0,0.5-0.1,1-0.1,1.4c-0.1,0.7-0.1,1.4-0.1,2c-0.1,0.5-0.1,0.8-0.1,1.3c-0.1,1.1-0.1,2.2-0.1,3.3c-0.1,0.3-0.1,0.6-0.1,0.9
		c-0.1,0.8-0.1,1.6-0.2,2.4C101.3,21.8,101.9,21.7,102.4,21.5z M111,17.1c0.3-0.4,0.7-0.7,0.8-1.3c-0.3,0.4-0.6,0.8-0.9,1.2
		C110.9,17,111,17.1,111,17.1z M113.8,15.1c-0.3-0.1-0.6-0.1-0.7,0.3c-0.1,0.4,0.1,0.5,0.5,0.7C113.6,15.7,113.8,15.5,113.8,15.1z
		 M113.9,12.6c0.3,0.5,0.3,0.5,0.7,0.2C114.3,12.8,114.1,12.7,113.9,12.6z M114.5,11.6c0.1-0.1,0.1-0.2,0.1-0.3s-0.1-0.2-0.1-0.3
		c-0.1,0.1-0.2,0.1-0.4,0.3C114.3,11.5,114.3,11.5,114.5,11.6z M114.5,12.2c0.2,0.1,0.3,0.1,0.6,0.2
		C114.8,12.1,114.8,12.1,114.5,12.2z M117.5,13.7c-0.7-0.3-1.4-0.5-2-0.6c0,0,0,0-0.1,0.1c0.3,0.1,0.5,0.3,0.8,0.5
		c-0.3-0.1-0.5,0.1-0.8,0.3c0.3,0.2,0.5,0.4,0.6,0.6c0.5-0.4,0.1-0.6,0.1-1C116.6,13.7,116.9,14.2,117.5,13.7z"/>
	<path id="XMLID_87_" class="st0" d="M142.4,34.4c0.5,1.4,1,2.8,1.6,4.1c0.5,1,0.9,2.1,1.4,3.1c0.3,0.6,0.7,1.4,1,2
		c-0.1,0.2-0.3,0.4-0.4,0.6c-0.3-0.1-0.5-0.1-0.7-0.2c-0.1,0-0.1,0.1-0.2,0.1c0.3,0.5,0.5,1,0.8,1.4c0.1,0.3,0.5,0.5,0.8,0.3
		c0.3-0.1,0.6,0,0.7,0.3c-0.1,0.1-0.3,0.3-0.3,0.5s0.3,0.3,0.4,0.4c0.5,0.3,0.5,0.3,0.1,0.7c0.3,0.3,0.6,0.1,0.8,0.1
		c0.5-0.1,0.6-0.1,0.6,0.5c0.1,0.5,0.5,0.7,0.8,1c0,0.4-0.3,0.6-0.6,0.6c-0.9,0.1-1.8,0.4-2.7,0.1c-0.2-0.1-0.4-0.3-0.6-0.3
		c-0.6,0.1-1.1-0.4-1.6-0.6c-0.6-0.1-1-0.4-1.4-0.9l-0.1-0.1c-0.4-0.9-0.8-1.9-1.2-2.8c-0.5-1-0.9-1.9-1.3-2.9
		c-0.3-0.6-0.5-1.3-0.8-1.9c-0.5-1-1-1.9-1.4-2.9c-0.4-0.7-0.7-1.4-1.2-2c-0.7-1.2-1.5-2.3-2.2-3.4c-0.2-0.2-0.4-0.4-0.8-0.3
		c0,0.6,0,1.1,0,1.7c0,0.1,0,0.1,0,0.3c0,1.8,0,3.6,0,5.3c0,0.9,0,1.8,0,2.7c-0.1,0.6-0.1,1.3-0.2,1.9c-0.5,0-0.6,0.3-0.6,0.6
		c0.1,0.7,0.2,1.4,0.3,2.1c-0.1-0.2-0.3-0.4-0.4-0.6c0.2-0.4-0.3-1-0.3-1.6c-0.5,0.5-0.1,1-0.4,1.4c-0.2-0.3-0.4-0.6-0.6-0.9
		c-0.3,0.7,0.4,1.1,0.3,1.7c-0.4-0.4-0.6-0.8-0.7-1.3c-0.1-0.1-0.1-0.3-0.1-0.4c-0.1-0.3-0.3-0.4-0.6-0.2c0.1,0.5,0.3,1,0.4,1.4
		c0,0-0.1,0.1-0.2,0.1c-0.3-0.2-0.1-0.8-0.6-0.8c-0.3,0.4,0.1,0.9-0.3,1.2c-0.1-0.1-0.2-0.2-0.3-0.4c0,0.3-0.1,0.6,0.2,0.7
		c0.2,0.1,0.3,0.3,0.1,0.5c-0.3,0.3-0.1,0.6,0.2,0.8c-0.1,0.3-0.3,0.6-0.4,0.8c-0.4-0.3-0.8-0.5-1.2-0.7c-0.3-0.2-0.5-0.4-0.1-0.7
		c-0.4-0.2-0.7-0.3-1-0.5c-0.5-0.2-0.6-0.5-0.6-1c0.1-0.8,0.2-1.7,0.1-2.5c-0.1-0.6,0-1.2,0.1-1.8c0-0.3-0.1-0.6-0.1-0.8
		c-0.1-1.2-0.1-2.4-0.3-3.5c-0.1-1,0-2.1,0.1-3.1c0-0.3-0.1-0.7-0.1-1c0-0.7,0.1-1.4,0-2c-0.1-0.8-0.2-1.6-0.3-2.4
		c0-0.1-0.1-0.3-0.1-0.4c0.1-2.6-0.1-5.3,0-7.9c0.1-1,0.1-1.9,0.1-2.8c-0.1-1.3,0.2-2.5,0.3-3.7c0-0.7,0-1.4,0-2.1
		c0.1-0.6-0.1-1.2,0.2-1.7c0.1-0.3,0-0.6,0.1-0.8c0-1,0-2.1,0.1-3c0.1-0.8,0.3-1.5,1-2.1c0.3-0.1,0.5-0.5,0.6-0.6
		c0.5-0.3,0.8-0.6,1.4-0.7c0.3,0,0.5-0.1,0.8-0.1c0.7-0.3,1.2-0.3,1.8,0.3c0.4,0.4,0.6,0.9,0.8,1.4c0.3,1,0.5,2,0.6,3
		c0.1,0.8,0.3,1.6,0.2,2.4c-0.1,0.3,0.1,0.6,0.1,0.8c-0.1,1-0.1,2.1-0.1,3.1c-0.1,1.2-0.1,2.4-0.1,3.5c0.6,0.2,0.9-0.1,1.2-0.5
		c0.7-1,1.4-2.1,2.1-3.1c0.9-1.3,1.8-2.6,2.7-3.8c0.6-0.9,1.1-1.8,1.7-2.7c0.3-0.4,0.5-0.8,0.8-1.2c0.3-0.6,0.7-1.1,1-1.7
		c0.2-0.4,0.5-0.6,0.9-0.8c0.8-0.3,1.5-0.6,2.3-0.9c0.1,0,0.3,0,0.6-0.1c-0.3,0.4-1.1,0.5-0.8,1.1c0.6,0.1,1.2-0.2,1.8-0.8
		c0.1,0.1,0.3,0.1,0.5,0.3c-0.6,0.3-1,0.5-1.5,0.7c-0.5,0.2-1,0.4-1.5,0.6c0.4,0.1,0.5,0.1,0.9-0.1c0.3-0.2,0.7-0.4,1.1-0.3
		c0.1,0.1,0.3-0.1,0.5-0.2c0.2-0.3,0.5-0.3,0.7-0.2c0,0.5-0.6,0.5-0.9,1c0.5-0.2,0.8-0.3,1.1-0.4c0.1-0.1,0.2-0.2,0.2-0.3
		c0.2-0.3,0.3-0.6,0.5-1c0.5,0.2,0.8,0.3,1.2,0.5c0.3,0.1,0.6,1,0.4,1.3c-0.1,0.3-0.3,0.5-0.5,0.7c-0.3,0.5-0.6,1-0.9,1.6
		c-0.3,0.7-0.8,1.3-1.2,1.9c-0.4,0.5-0.7,1.1-1,1.6c-0.4,0.6-0.8,1.4-1.3,2c-1.2,1.5-2.1,3.2-3,4.8c-0.8,1.4-1.6,2.8-2.7,4
		c-0.5,0.6-0.9,1.2-1.4,1.8c-0.1,0.1-0.1,0.3-0.1,0.4c0.1,0.2,0.2,0.3,0.3,0.5c0.1,0.3,0.4,0.5,0.5,0.8c0.3,0.8,0.8,1.4,1.5,2.1
		c0.2,0.2,0.5,0.4,0.5,0.8c0.3,0.1,0.3,0.5,0.4,0.7c1,1.4,1.7,2.8,2.5,4.3c1.1,2.1,2.3,4.2,3.4,6.3c0.3,0.5,0.6,1,0.8,1.5
		c0.1,0.1,0.1,0.1,0.1,0.1c0.1,0.9,0.3,1.8,0.4,2.7c0,0.3,0.1,0.5,0.1,0.8c0.1,0.5,0.3,0.9,0.5,1.4c-0.2,0-0.3,0.1-0.5,0.1
		c-0.1,0.2-0.1,0.3-0.1,0.5c-0.3,0-0.6-0.1-0.9-0.1c-0.3,0-0.4-0.1-0.5-0.4c-0.2-0.5-0.5-0.8-0.7-1.3c-0.1-0.3-0.2-0.6-0.4-0.8
		c-0.6-1-1-2.3-1.5-3.4c-0.2-0.5-0.3-1-0.6-1.4c-0.4-0.5-0.5-1.3-0.8-1.9c-0.2-0.5-0.5-1-0.7-1.5c-0.3-0.6-0.6-1.2-0.9-1.8
		c-0.1-0.2-0.3-0.4-0.3-0.6c-0.1,0-0.1,0.1-0.2,0.1C142.2,33.6,142.2,34,142.4,34.4z M130.5,43.2c0.2-0.4,0.5-0.6,0.5-1.1
		c0-0.5-0.2-0.9-0.2-1.3c-0.1-0.4-0.1-0.4-0.5-0.6c0,0.6-0.1,1.3-0.1,2.1c-0.2-0.3-0.3-0.5-0.4-0.7c-0.1,0.2-0.2,0.3-0.2,0.3
		c-0.1,0.6-0.1,1.2,0,1.7c0,0.1,0.2,0.2,0.3,0.3C130.2,43.6,130.4,43.4,130.5,43.2z M129.9,31.6c0.1,0.1,0.2,0.2,0.3,0.3
		c0.1-0.3,0.2-0.5-0.1-0.5C129.9,31.5,129.9,31.6,129.9,31.6z M131.2,46.9c-0.1,0-0.1,0.1-0.1,0.1c-0.1-0.1-0.1-0.3-0.1-0.4h0.1
		C131,46.6,131.1,46.7,131.2,46.9z M139.2,28c0-0.1,0.1-0.2,0.1-0.2c-0.1-0.2-0.3-0.3-0.6-0.1C138.9,27.8,139,27.9,139.2,28z
		 M139,16.4c0.3-0.1,0.6-0.2,0.6-0.7c-0.3,0.3-0.5,0.4-0.7,0.6C138.9,16.4,139,16.4,139,16.4z M144.6,48c-0.1-0.1-0.3-0.3-0.6,0
		c0.3,0.1,0.4,0.1,0.6,0.2C144.6,48.1,144.6,48.1,144.6,48z M144.3,42.2c0.1,0.1,0.3,0.2,0.4,0.3c0.1,0.6,0.1,0.6,0.4,0.7
		c-0.2-0.3,0-0.6-0.5-0.7C144.8,42.3,144.6,42.2,144.3,42.2z M144.8,34c0.1,0.2,0.1,0.5,0.5,0.5c-0.1-0.2-0.2-0.4-0.3-0.5
		C145,33.9,144.9,34,144.8,34z M145,46.5c0.1,0.1,0.3,0.1,0.3,0.1c0-0.1,0-0.2,0-0.3c-0.1,0.1-0.2,0.1-0.3,0.1
		C145,46.4,145,46.5,145,46.5z M145.7,35.4c-0.1-0.3-0.3-0.5-0.4-0.7C145.1,35.3,145.5,35.3,145.7,35.4z M145.9,6.4
		c0.3,0.1,0.5,0.1,0.6-0.3C146.2,6.3,146.1,6.3,145.9,6.4z M146.7,37.7c-0.1-0.2-0.3-0.4-0.4-0.6c-0.1,0.3,0,0.5,0.2,0.6
		C146.6,37.8,146.6,37.7,146.7,37.7z M147.8,48.2c-0.3-0.1-0.5-0.3-0.7-0.3C147.2,48.2,147.4,48.3,147.8,48.2z M149.3,5.2
		c-0.3-0.3-0.6-0.2-0.9-0.1c0,0.1,0.1,0.2,0.1,0.3c-0.3,0.2-0.6,0.4-1,0.6C147.9,6.1,148.6,5.8,149.3,5.2z"/>
	<path id="XMLID_103_" class="st0" d="M183,13.4c-0.3,0.5-0.6,0.8-1.2,0.9c-0.6,0.1-1.1,0.3-1.7,0.4c-0.2,0-0.3,0.1-0.5,0.1
		c-0.7,0.2-1.4,0.1-2.1-0.2c-0.2-0.1-0.4-0.3-0.5-0.6c-0.1-0.2-0.1-0.5-0.1-0.7c0-1.2-0.3-2.2-0.7-3.2c-0.1-0.1-0.1-0.3-0.3-0.4
		c-1-1-2.1-1.7-3.6-1.8c-1-0.1-1.8,0.3-2.4,1.1c-0.5,0.6-0.9,1.2-1.2,1.9c-0.1,0.1-0.1,0.3-0.1,0.4c-0.1,1.2,0.1,2.4,0.5,3.5
		c0.3,1.1,1.1,1.9,1.9,2.6c0.9,0.8,1.7,1.6,2.6,2.4c0.5,0.5,1,0.8,1.4,1.2c0.6,0.6,1.3,1.2,1.9,1.8c0.1,0.1,0.3,0.2,0.4,0.3
		c1.4,1.1,2.6,2.4,3.6,3.8c0.9,1.2,1.7,2.4,2.4,3.7c0.8,1.4,1.3,2.8,1.7,4.3c0.3,1,0.3,1.9,0.3,2.9c0.1,0.9,0.1,1.8,0,2.7
		c-0.1,1-0.3,1.9-0.5,2.9c-0.3,1-0.8,1.7-1.3,2.6c-0.3,0.6-0.8,1-1.3,1.4c-0.3,0.2-0.6,0.3-0.9,0.3c-0.6-0.1-1.2,0.1-1.5,0.6
		c-0.3,0.5-0.8,0.5-1.4,0.6c-0.7,0.1-1.4-0.1-2.1-0.3c-0.3-0.1-0.6,0-0.8,0.1c-1.7,0.7-3.4,0.8-5.2,0.8c-0.4,0-0.7-0.1-1.1-0.2
		c-1.5-0.3-3-0.7-4.3-1.4c-1.2-0.6-2.3-1.2-3.2-2.2c-0.4-0.5-0.8-1.2-1.2-1.7c-0.3-0.5-0.6-0.9-0.9-1.4c-0.4-0.8-0.8-1.5-0.9-2.3
		c-0.1-0.9-0.3-1.8-0.4-2.7c-0.1-0.5-0.1-1-0.5-1.5c-0.3-0.4-0.2-0.6,0.1-1c0.1-0.1,0.1-0.1,0.2-0.3c0.1-0.3,0.3-0.7,0.5-1
		c0.3-0.8,0.9-1.2,1.5-1.5c0.3-0.2,0.6-0.2,0.8,0c1,0.6,2.1,1.1,2.8,2c0.7,0.8,1.2,1.7,1.5,2.7c0.3,0.9,0.2,1.8,0.3,2.7
		c0.1,0.6,0.3,1,0.8,1.2c1.1,0.3,2.3,0.6,3.4,0.6c0.6,0,1.2,0.1,1.8,0c0.5-0.1,1.1-0.2,1.6-0.4c0.5-0.1,0.8-0.5,1.1-1
		c0.3-0.6,0.7-1.2,0.8-1.8c0.1-0.4,0.1-0.7,0.1-1c-0.2-1-0.6-2-1.1-2.9c-0.8-1.7-1.9-3.2-3.2-4.6c-0.5-0.6-1.1-1.2-1.7-1.7
		c-0.3-0.2-0.5-0.5-0.6-0.7c-0.7-0.7-1.4-1.4-2-2.1c-0.1-0.1-0.1-0.1-0.2-0.2c-1.1-1.4-2.4-2.7-3.3-4.3c-0.3-0.5-0.5-0.9-0.7-1.4
		c-0.1-0.2-0.2-0.3-0.3-0.5c-0.2-0.3-0.4-0.6-0.6-1c-0.1-0.1-0.1-0.2-0.1-0.3c-0.6-0.5-0.8-1.2-1-1.7c-0.3-0.6-0.6-1.2-0.6-2
		c0-0.1-0.1-0.3-0.1-0.4c0-0.2-0.1-0.5-0.1-0.6c0.3-0.6,0.2-1.2,0.2-1.9c0-0.7,0.3-1.3,0.6-1.8c0.2-0.4,0.5-0.7,0.8-1
		c0.1-0.1,0.1-0.2,0.2-0.3c0.7-1.7,1.9-3.2,3.5-4.3c0.7-0.5,1.5-1,2.3-1.4c0.6-0.3,1.4-0.5,2-0.6c1.9-0.6,4-0.5,5.9-0.4
		c1.6,0.1,3.1,0.7,4.5,1.4c0.3,0.1,0.6,0.5,0.9,0.7c0.8,0.6,1.5,1.4,2.2,2.2c0.5,0.7,0.6,1.5,0.9,2.3c0.1,0.4,0.3,0.8,0.3,1.3
		s0.1,0.9,0.1,1.4C184,11.7,183.4,12.5,183,13.4z M159.1,38c0,0.1,0.1,0.3,0.1,0.5c0.1-0.1,0.1-0.1,0.1-0.1c0-0.1-0.1-0.3-0.1-0.4
		C159.1,38,159.1,38,159.1,38z M175.9,46.7c-0.4-0.1-0.5,0-0.6,0.3C175.5,46.9,175.6,46.9,175.9,46.7z M179.2,47.4
		c0.1,0.1,0.3,0.1,0.5,0.2c-0.1-0.7-0.5-1.2-1.2-1.2c0.1-0.1,0.1-0.3,0.1-0.3c-0.5-0.3-0.5-0.3-1.4-0.2
		C177.7,46.8,178.7,46.8,179.2,47.4z M177.6,47.2c0.1,0.5,0.5,0.6,0.7,0.8C178.1,47.7,178.1,47.3,177.6,47.2z M178,42.8
		c0.3,0,0.6-0.1,1-0.1C178.7,42.3,178.5,42.3,178,42.8z M179.4,12.1c0-0.1,0-0.1,0-0.2c-0.2-0.1-0.3-0.3-0.6,0.1
		C179,12.1,179.2,12.1,179.4,12.1z M180.3,45.8c0.1,0.4,0.4,0.5,0.7,0.5c0.3,0,0.3-0.3,0.4-0.6C181,45.8,180.6,45.6,180.3,45.8z
		 M182,41.6c-0.6-0.5-0.8-0.6-1.4-0.3c0,0.5-0.1,0.9-0.1,1.4c0.2,0.1,0.4,0.1,0.6,0.2c0.1-0.2,0-0.4,0.1-0.5
		c0.3-0.1,0.2-0.4,0.1-0.6C181.8,41.8,181.8,41.8,182,41.6z M181.8,44.6c0.8-0.8,1.4-2.3,1.2-3.1c-0.1,0-0.1,0-0.2,0
		c-0.3,0.5-0.5,1-0.8,1.5c-0.2,0.3-0.3,0.7-0.6,1c-0.2,0.3-0.3,0.5-0.3,0.8C181.4,44.9,181.4,44.9,181.8,44.6z M181.7,41.1
		c0.1,0.1,0.3,0.1,0.4,0.1c0.1-0.3,0.2-0.6,0.3-0.9c-0.1-0.1-0.3-0.3-0.5-0.4c0.2,0,0.5,0.1,0.6-0.1c-0.3-0.3-0.3-0.3-0.6,0.1
		C181.9,40.3,181.8,40.7,181.7,41.1z"/>
</g>
</svg>
