<?xml version="1.0" encoding="utf-8"?>
<!-- Generator: Adobe Illustrator 23.0.3, SVG Export Plug-In . SVG Version: 6.00 Build 0)  -->
<svg version="1.1" id="Warstwa_1" xmlns="http://www.w3.org/2000/svg" xmlns:xlink="http://www.w3.org/1999/xlink" x="0px" y="0px"
	 viewBox="0 0 73 43" style="enable-background:new 0 0 73 43;" xml:space="preserve">
<style type="text/css">
	.st0{fill:#808080;}
</style>
<path class="st0" d="M16.9,38.6c-0.9,0-1.8-0.3-2.5-1L1,24c-1.4-1.4-1.4-3.6,0-5L14.4,5.5c1.4-1.4,3.6-1.4,5,0c1.4,1.4,1.4,3.6,0,5
	l-10.9,11l10.9,11c1.4,1.4,1.4,3.6,0,5C18.6,38.2,17.7,38.6,16.9,38.6z M58.6,37.5L72,24c1.4-1.4,1.4-3.6,0-5L58.6,5.5
	c-1.4-1.4-3.6-1.4-5,0c-1.4,1.4-1.4,3.6,0,5l10.9,11l-10.9,11c-1.4,1.4-1.4,3.6,0,5c0.7,0.7,1.6,1,2.5,1S57.9,38.2,58.6,37.5z
	 M51.2,0.3c0,0-2.4-1.1-6.9,1.3c-5.2,2.7-6.1,7.1-6,9.1s1.3,3.9,4.3,3.7c3-0.2,4.4-3,4.6-4.7C48.3,1,51.2,0.3,51.2,0.3z M41.4,17.2
	c0,0-3.4-0.2-4.5-2.6c-5.4,1.9-16.1,26.5-13,28.2C27.3,44.8,42.3,21.7,41.4,17.2z"/>
</svg>
