<svg xmlns="http://www.w3.org/2000/svg" viewBox="0 0 73 43"><path d="M16.9 38.6c-.9 0-1.8-.3-2.5-1L1 24a3.5 3.5 0 0 1 0-5L14.4 5.5a3.5 3.5 0 0 1 5 0 3.5 3.5 0 0 1 0 5l-10.9 11 10.9 11a3.5 3.5 0 0 1 0 5 4 4 0 0 1-2.5 1.1zm41.7-1.1L72 24a3.5 3.5 0 0 0 0-5L58.6 5.5a3.5 3.5 0 0 0-5 0 3.5 3.5 0 0 0 0 5l10.9 11-10.9 11a3.5 3.5 0 0 0 2.5 6c.9 0 1.8-.3 2.5-1zM51.2.3s-2.4-1.1-6.9 1.3c-5.2 2.7-6.1 7.1-6 9.1s1.3 3.9 4.3 3.7c3-.2 4.4-3 4.6-4.7 1.1-8.7 4-9.4 4-9.4zm-9.8 16.9s-3.4-.2-4.5-2.6c-5.4 1.9-16.1 26.5-13 28.2 3.4 2 18.4-21.1 17.5-25.6z" fill="gray"/></svg>